M48
;DRILL file {KiCad 4.0.2-stable} date 02/09/2016 20:32:05
;FORMAT={-:-/ absolute / inch / decimal}
FMAT,2
INCH,TZ
T1C0.016
T2C0.020
T3C0.032
T4C0.032
T5C0.039
T6C0.040
T7C0.055
%
G90
G05
M72
T1
X4.3Y-3.25
X4.3Y-3.35
X4.3Y-4.25
X4.3Y-4.35
X4.3Y-4.45
X4.3Y-4.55
X4.3Y-4.65
X4.4Y-3.25
X4.4Y-4.65
X4.5Y-4.65
X4.5Y-4.75
X4.5Y-4.85
X4.5Y-4.95
X4.5Y-5.05
X4.6Y-5.05
X4.74Y-3.76
X5.125Y-3.725
X5.18Y-3.42
X5.28Y-3.94
X5.3Y-3.46
X5.35Y-5.05
X5.36Y-3.98
X5.435Y-3.78
X5.44Y-3.56
X5.44Y-3.66
X5.45Y-5.05
X5.456Y-3.506
X5.55Y-5.05
X5.65Y-5.05
X5.75Y-5.05
X5.85Y-5.05
X5.936Y-4.244
X5.95Y-5.05
X5.964Y-4.21
X6.05Y-5.05
X6.15Y-5.05
X6.192Y-3.766
X6.2Y-3.9
X6.206Y-3.558
X6.228Y-4.214
X6.23Y-3.874
X6.232Y-3.524
X6.235Y-3.475
X6.236Y-4.106
X6.238Y-4.16
X6.25Y-5.05
X6.326Y-3.594
X6.35Y-5.05
X6.377Y-3.49
X6.45Y-5.05
X6.55Y-5.05
X6.65Y-5.05
X6.75Y-3.05
X6.75Y-3.15
X6.75Y-3.25
X6.75Y-5.05
X6.764Y-3.38
X6.85Y-3.05
X6.85Y-5.05
X6.95Y-3.05
X6.95Y-5.05
X7.05Y-3.05
X7.05Y-3.15
X7.05Y-3.25
X7.05Y-5.05
X7.15Y-3.25
X7.15Y-5.05
X7.25Y-3.25
X7.25Y-5.05
X7.35Y-3.25
X7.35Y-5.05
X7.45Y-3.3
X7.45Y-3.4
X7.45Y-3.5
X7.45Y-3.6
X7.45Y-3.7
X7.45Y-3.8
X7.45Y-3.9
X7.45Y-5.05
T2
X4.7508Y-4.66
X4.8Y-4.66
X4.885Y-3.23
X4.9342Y-3.23
X5.1108Y-4.66
X5.145Y-3.235
X5.16Y-4.66
X5.1942Y-3.235
X5.2434Y-3.235
X5.2926Y-3.235
X5.3419Y-3.235
X5.3911Y-3.235
X5.605Y-4.6
X5.6542Y-4.6
X5.7034Y-4.6
X5.7526Y-4.6
X5.8019Y-4.6
X5.8511Y-4.6
X5.9003Y-4.6
X5.9495Y-4.6
X6.94Y-3.4816
X6.94Y-3.5308
X6.94Y-3.58
X6.94Y-3.8016
X6.94Y-3.8508
X6.94Y-3.9
T3
X5.315Y-3.5939
X5.315Y-3.7861
X5.315Y-4.0389
X5.315Y-4.2311
T4
X5.48Y-4.32
X5.58Y-4.32
X5.68Y-4.32
X5.78Y-4.32
X5.88Y-4.32
X5.98Y-4.32
X6.08Y-4.32
X6.18Y-4.32
X6.28Y-4.32
T5
X4.9Y-3.4781
X4.9Y-3.8719
X5.04Y-3.4731
X5.04Y-3.8669
X6.2431Y-4.82
X6.42Y-4.1831
X6.42Y-4.5769
X6.6369Y-4.82
X6.64Y-4.1831
X6.64Y-4.5769
X7.26Y-3.5031
X7.26Y-3.8969
T6
X6.46Y-3.34
X6.46Y-3.44
X6.46Y-3.54
X6.46Y-3.64
X6.46Y-3.74
X6.46Y-3.84
X6.46Y-3.94
X6.46Y-4.04
X6.56Y-3.34
X6.56Y-3.44
X6.56Y-3.54
X6.56Y-3.64
X6.56Y-3.74
X6.56Y-3.84
X6.56Y-3.94
X6.56Y-4.04
T7
X6.9435Y-4.4233
X6.9435Y-4.8167
X7.0419Y-4.62
X7.042Y-4.3248
X7.042Y-4.9152
T0
M30
