G04 #@! TF.FileFunction,Paste,Top*
%FSLAX46Y46*%
G04 Gerber Fmt 4.6, Leading zero omitted, Abs format (unit mm)*
G04 Created by KiCad (PCBNEW 4.0.2-stable) date 02/09/2016 20:31:52*
%MOMM*%
G01*
G04 APERTURE LIST*
%ADD10C,0.100000*%
%ADD11R,1.500000X0.280000*%
%ADD12R,0.280000X1.500000*%
%ADD13R,1.600200X1.198880*%
%ADD14R,1.803400X1.600200*%
%ADD15R,1.500000X1.250000*%
%ADD16R,1.399540X2.999740*%
%ADD17R,2.032000X3.657600*%
%ADD18R,2.032000X1.016000*%
G04 APERTURE END LIST*
D10*
D11*
X139928000Y-88996000D03*
X139928000Y-89496000D03*
X139928000Y-89996000D03*
X139928000Y-90496000D03*
X139928000Y-90996000D03*
X139928000Y-91496000D03*
X139928000Y-91996000D03*
X139928000Y-92496000D03*
X139928000Y-92996000D03*
X139928000Y-93496000D03*
X139928000Y-93996000D03*
X139928000Y-94496000D03*
X139928000Y-94996000D03*
X139928000Y-95496000D03*
X139928000Y-95996000D03*
X139928000Y-96496000D03*
X139928000Y-96996000D03*
X139928000Y-97496000D03*
X139928000Y-97996000D03*
X139928000Y-98496000D03*
X139928000Y-98996000D03*
X139928000Y-99496000D03*
X139928000Y-99996000D03*
X139928000Y-100496000D03*
X139928000Y-100996000D03*
D12*
X141828000Y-102896000D03*
X142328000Y-102896000D03*
X142828000Y-102896000D03*
X143328000Y-102896000D03*
X143828000Y-102896000D03*
X144328000Y-102896000D03*
X144828000Y-102896000D03*
X145328000Y-102896000D03*
X145828000Y-102896000D03*
X146328000Y-102896000D03*
X146828000Y-102896000D03*
X147328000Y-102896000D03*
X147828000Y-102896000D03*
X148328000Y-102896000D03*
X148828000Y-102896000D03*
X149328000Y-102896000D03*
X149828000Y-102896000D03*
X150328000Y-102896000D03*
X150828000Y-102896000D03*
X151328000Y-102896000D03*
X151828000Y-102896000D03*
X152328000Y-102896000D03*
X152828000Y-102896000D03*
X153328000Y-102896000D03*
X153828000Y-102896000D03*
D11*
X155728000Y-100996000D03*
X155728000Y-100496000D03*
X155728000Y-99996000D03*
X155728000Y-99496000D03*
X155728000Y-98996000D03*
X155728000Y-98496000D03*
X155728000Y-97996000D03*
X155728000Y-97496000D03*
X155728000Y-96996000D03*
X155728000Y-96496000D03*
X155728000Y-95996000D03*
X155728000Y-95496000D03*
X155728000Y-94996000D03*
X155728000Y-94496000D03*
X155728000Y-93996000D03*
X155728000Y-93496000D03*
X155728000Y-92996000D03*
X155728000Y-92496000D03*
X155728000Y-91996000D03*
X155728000Y-91496000D03*
X155728000Y-90996000D03*
X155728000Y-90496000D03*
X155728000Y-89996000D03*
X155728000Y-89496000D03*
X155728000Y-88996000D03*
D12*
X153828000Y-87096000D03*
X153328000Y-87096000D03*
X152828000Y-87096000D03*
X152328000Y-87096000D03*
X151828000Y-87096000D03*
X151328000Y-87096000D03*
X150828000Y-87096000D03*
X150328000Y-87096000D03*
X149828000Y-87096000D03*
X149328000Y-87096000D03*
X148828000Y-87096000D03*
X148328000Y-87096000D03*
X147828000Y-87096000D03*
X147328000Y-87096000D03*
X146828000Y-87096000D03*
X146328000Y-87096000D03*
X145828000Y-87096000D03*
X145328000Y-87096000D03*
X144828000Y-87096000D03*
X144328000Y-87096000D03*
X143828000Y-87096000D03*
X143328000Y-87096000D03*
X142828000Y-87096000D03*
X142328000Y-87096000D03*
X141828000Y-87096000D03*
D13*
X141201140Y-81788000D03*
X144802860Y-81788000D03*
D14*
X142367000Y-122364500D03*
X142367000Y-125158500D03*
X144716500Y-122364500D03*
X144716500Y-125158500D03*
X146939000Y-122364500D03*
X146939000Y-125158500D03*
X149161500Y-122364500D03*
X149161500Y-125158500D03*
X151384000Y-122364500D03*
X151384000Y-125158500D03*
X120015000Y-107061000D03*
X120015000Y-104267000D03*
X120015000Y-98933000D03*
X120015000Y-101727000D03*
X120015000Y-90551000D03*
X120015000Y-93345000D03*
D15*
X133116000Y-86360000D03*
X135616000Y-86360000D03*
X128163000Y-101346000D03*
X130663000Y-101346000D03*
X128163000Y-104521000D03*
X130663000Y-104521000D03*
X128163000Y-107696000D03*
X130663000Y-107696000D03*
D14*
X149479000Y-77597000D03*
X149479000Y-80391000D03*
X152019000Y-77597000D03*
X152019000Y-80391000D03*
X154559000Y-77597000D03*
X154559000Y-80391000D03*
X157099000Y-77597000D03*
X157099000Y-80391000D03*
X159639000Y-77597000D03*
X159639000Y-80391000D03*
X162179000Y-77597000D03*
X162179000Y-80391000D03*
X164719000Y-77597000D03*
X164719000Y-80391000D03*
X167259000Y-77597000D03*
X167259000Y-80391000D03*
D13*
X162283140Y-126492000D03*
X165884860Y-126492000D03*
X175536860Y-106680000D03*
X171935140Y-106680000D03*
D16*
X168656000Y-108651040D03*
X168656000Y-113852960D03*
D10*
G36*
X167739060Y-120478550D02*
X167739060Y-124377450D01*
X164238940Y-123277630D01*
X164238940Y-121578370D01*
X167739060Y-120478550D01*
X167739060Y-120478550D01*
G37*
G36*
X159412940Y-124377450D02*
X159412940Y-120478550D01*
X162913060Y-121578370D01*
X162913060Y-123277630D01*
X159412940Y-124377450D01*
X159412940Y-124377450D01*
G37*
D16*
X163068000Y-113852960D03*
X163068000Y-108651040D03*
X184404000Y-91379040D03*
X184404000Y-96580960D03*
X128016000Y-95818960D03*
X128016000Y-90617040D03*
X124460000Y-90744040D03*
X124460000Y-95945960D03*
D17*
X109601000Y-91948000D03*
D18*
X116205000Y-91948000D03*
X116205000Y-89662000D03*
X116205000Y-94234000D03*
D17*
X109601000Y-103124000D03*
D18*
X116205000Y-103124000D03*
X116205000Y-100838000D03*
X116205000Y-105410000D03*
M02*
