G04 #@! TF.FileFunction,Other,User*
%FSLAX46Y46*%
G04 Gerber Fmt 4.6, Leading zero omitted, Abs format (unit mm)*
G04 Created by KiCad (PCBNEW 4.0.2-stable) date 02/09/2016 20:31:52*
%MOMM*%
G01*
G04 APERTURE LIST*
%ADD10C,0.100000*%
%ADD11C,0.050000*%
G04 APERTURE END LIST*
D10*
D11*
X138928000Y-86096000D02*
X138928000Y-103896000D01*
X156728000Y-86096000D02*
X156728000Y-103896000D01*
X138928000Y-86096000D02*
X156728000Y-86096000D01*
X138928000Y-103896000D02*
X156728000Y-103896000D01*
X132066000Y-85360000D02*
X136666000Y-85360000D01*
X132066000Y-87360000D02*
X136666000Y-87360000D01*
X132066000Y-85360000D02*
X132066000Y-87360000D01*
X136666000Y-85360000D02*
X136666000Y-87360000D01*
X127113000Y-100346000D02*
X131713000Y-100346000D01*
X127113000Y-102346000D02*
X131713000Y-102346000D01*
X127113000Y-100346000D02*
X127113000Y-102346000D01*
X131713000Y-100346000D02*
X131713000Y-102346000D01*
X127113000Y-103521000D02*
X131713000Y-103521000D01*
X127113000Y-105521000D02*
X131713000Y-105521000D01*
X127113000Y-103521000D02*
X127113000Y-105521000D01*
X131713000Y-103521000D02*
X131713000Y-105521000D01*
X127113000Y-106696000D02*
X131713000Y-106696000D01*
X127113000Y-108696000D02*
X131713000Y-108696000D01*
X127113000Y-106696000D02*
X127113000Y-108696000D01*
X131713000Y-106696000D02*
X131713000Y-108696000D01*
X185573000Y-78994000D02*
G75*
G03X185573000Y-78994000I-1550000J0D01*
G01*
X111786000Y-122174000D02*
G75*
G03X111786000Y-122174000I-1550000J0D01*
G01*
M02*
