G04 #@! TF.FileFunction,Other,ECO2*
%FSLAX46Y46*%
G04 Gerber Fmt 4.6, Leading zero omitted, Abs format (unit mm)*
G04 Created by KiCad (PCBNEW 4.0.2-stable) date 25/08/2016 11:49:55*
%MOMM*%
G01*
G04 APERTURE LIST*
%ADD10C,0.100000*%
%ADD11C,0.300000*%
G04 APERTURE END LIST*
D10*
D11*
X96380571Y-108806570D02*
X96380571Y-109520856D01*
X97094857Y-109592285D01*
X97023429Y-109520856D01*
X96952000Y-109377999D01*
X96952000Y-109020856D01*
X97023429Y-108877999D01*
X97094857Y-108806570D01*
X97237714Y-108735142D01*
X97594857Y-108735142D01*
X97737714Y-108806570D01*
X97809143Y-108877999D01*
X97880571Y-109020856D01*
X97880571Y-109377999D01*
X97809143Y-109520856D01*
X97737714Y-109592285D01*
X96380571Y-107377999D02*
X96380571Y-108092285D01*
X97094857Y-108163714D01*
X97023429Y-108092285D01*
X96952000Y-107949428D01*
X96952000Y-107592285D01*
X97023429Y-107449428D01*
X97094857Y-107377999D01*
X97237714Y-107306571D01*
X97594857Y-107306571D01*
X97737714Y-107377999D01*
X97809143Y-107449428D01*
X97880571Y-107592285D01*
X97880571Y-107949428D01*
X97809143Y-108092285D01*
X97737714Y-108163714D01*
X97809143Y-106592286D02*
X97880571Y-106592286D01*
X98023429Y-106663714D01*
X98094857Y-106735143D01*
X96380571Y-106092285D02*
X96380571Y-105163714D01*
X96952000Y-105663714D01*
X96952000Y-105449428D01*
X97023429Y-105306571D01*
X97094857Y-105235142D01*
X97237714Y-105163714D01*
X97594857Y-105163714D01*
X97737714Y-105235142D01*
X97809143Y-105306571D01*
X97880571Y-105449428D01*
X97880571Y-105878000D01*
X97809143Y-106020857D01*
X97737714Y-106092285D01*
X96380571Y-104663714D02*
X96380571Y-103663714D01*
X97880571Y-104306571D01*
X96523429Y-103163715D02*
X96452000Y-103092286D01*
X96380571Y-102949429D01*
X96380571Y-102592286D01*
X96452000Y-102449429D01*
X96523429Y-102378000D01*
X96666286Y-102306572D01*
X96809143Y-102306572D01*
X97023429Y-102378000D01*
X97880571Y-103235143D01*
X97880571Y-102306572D01*
X97880571Y-100520858D02*
X96880571Y-100520858D01*
X97023429Y-100520858D02*
X96952000Y-100449430D01*
X96880571Y-100306572D01*
X96880571Y-100092287D01*
X96952000Y-99949430D01*
X97094857Y-99878001D01*
X97880571Y-99878001D01*
X97094857Y-99878001D02*
X96952000Y-99806572D01*
X96880571Y-99663715D01*
X96880571Y-99449430D01*
X96952000Y-99306572D01*
X97094857Y-99235144D01*
X97880571Y-99235144D01*
X97880571Y-98520858D02*
X96880571Y-98520858D01*
X97023429Y-98520858D02*
X96952000Y-98449430D01*
X96880571Y-98306572D01*
X96880571Y-98092287D01*
X96952000Y-97949430D01*
X97094857Y-97878001D01*
X97880571Y-97878001D01*
X97094857Y-97878001D02*
X96952000Y-97806572D01*
X96880571Y-97663715D01*
X96880571Y-97449430D01*
X96952000Y-97306572D01*
X97094857Y-97235144D01*
X97880571Y-97235144D01*
X98552000Y-131064000D02*
X98552000Y-75692000D01*
X106680000Y-131064000D02*
X95852000Y-131064000D01*
X106680000Y-75692000D02*
X95852000Y-75692000D01*
X98552000Y-75692000D02*
X99138421Y-76818504D01*
X98552000Y-75692000D02*
X97965579Y-76818504D01*
X98552000Y-131064000D02*
X99138421Y-129937496D01*
X98552000Y-131064000D02*
X97965579Y-129937496D01*
X143931430Y-69591429D02*
X143788572Y-69520000D01*
X143717144Y-69448571D01*
X143645715Y-69305714D01*
X143645715Y-69234286D01*
X143717144Y-69091429D01*
X143788572Y-69020000D01*
X143931430Y-68948571D01*
X144217144Y-68948571D01*
X144360001Y-69020000D01*
X144431430Y-69091429D01*
X144502858Y-69234286D01*
X144502858Y-69305714D01*
X144431430Y-69448571D01*
X144360001Y-69520000D01*
X144217144Y-69591429D01*
X143931430Y-69591429D01*
X143788572Y-69662857D01*
X143717144Y-69734286D01*
X143645715Y-69877143D01*
X143645715Y-70162857D01*
X143717144Y-70305714D01*
X143788572Y-70377143D01*
X143931430Y-70448571D01*
X144217144Y-70448571D01*
X144360001Y-70377143D01*
X144431430Y-70305714D01*
X144502858Y-70162857D01*
X144502858Y-69877143D01*
X144431430Y-69734286D01*
X144360001Y-69662857D01*
X144217144Y-69591429D01*
X145788572Y-68948571D02*
X145502858Y-68948571D01*
X145360001Y-69020000D01*
X145288572Y-69091429D01*
X145145715Y-69305714D01*
X145074286Y-69591429D01*
X145074286Y-70162857D01*
X145145715Y-70305714D01*
X145217143Y-70377143D01*
X145360001Y-70448571D01*
X145645715Y-70448571D01*
X145788572Y-70377143D01*
X145860001Y-70305714D01*
X145931429Y-70162857D01*
X145931429Y-69805714D01*
X145860001Y-69662857D01*
X145788572Y-69591429D01*
X145645715Y-69520000D01*
X145360001Y-69520000D01*
X145217143Y-69591429D01*
X145145715Y-69662857D01*
X145074286Y-69805714D01*
X146645714Y-70377143D02*
X146645714Y-70448571D01*
X146574286Y-70591429D01*
X146502857Y-70662857D01*
X147145715Y-68948571D02*
X148074286Y-68948571D01*
X147574286Y-69520000D01*
X147788572Y-69520000D01*
X147931429Y-69591429D01*
X148002858Y-69662857D01*
X148074286Y-69805714D01*
X148074286Y-70162857D01*
X148002858Y-70305714D01*
X147931429Y-70377143D01*
X147788572Y-70448571D01*
X147360000Y-70448571D01*
X147217143Y-70377143D01*
X147145715Y-70305714D01*
X149360000Y-68948571D02*
X149074286Y-68948571D01*
X148931429Y-69020000D01*
X148860000Y-69091429D01*
X148717143Y-69305714D01*
X148645714Y-69591429D01*
X148645714Y-70162857D01*
X148717143Y-70305714D01*
X148788571Y-70377143D01*
X148931429Y-70448571D01*
X149217143Y-70448571D01*
X149360000Y-70377143D01*
X149431429Y-70305714D01*
X149502857Y-70162857D01*
X149502857Y-69805714D01*
X149431429Y-69662857D01*
X149360000Y-69591429D01*
X149217143Y-69520000D01*
X148931429Y-69520000D01*
X148788571Y-69591429D01*
X148717143Y-69662857D01*
X148645714Y-69805714D01*
X150431428Y-68948571D02*
X150574285Y-68948571D01*
X150717142Y-69020000D01*
X150788571Y-69091429D01*
X150860000Y-69234286D01*
X150931428Y-69520000D01*
X150931428Y-69877143D01*
X150860000Y-70162857D01*
X150788571Y-70305714D01*
X150717142Y-70377143D01*
X150574285Y-70448571D01*
X150431428Y-70448571D01*
X150288571Y-70377143D01*
X150217142Y-70305714D01*
X150145714Y-70162857D01*
X150074285Y-69877143D01*
X150074285Y-69520000D01*
X150145714Y-69234286D01*
X150217142Y-69091429D01*
X150288571Y-69020000D01*
X150431428Y-68948571D01*
X152717142Y-70448571D02*
X152717142Y-69448571D01*
X152717142Y-69591429D02*
X152788570Y-69520000D01*
X152931428Y-69448571D01*
X153145713Y-69448571D01*
X153288570Y-69520000D01*
X153359999Y-69662857D01*
X153359999Y-70448571D01*
X153359999Y-69662857D02*
X153431428Y-69520000D01*
X153574285Y-69448571D01*
X153788570Y-69448571D01*
X153931428Y-69520000D01*
X154002856Y-69662857D01*
X154002856Y-70448571D01*
X154717142Y-70448571D02*
X154717142Y-69448571D01*
X154717142Y-69591429D02*
X154788570Y-69520000D01*
X154931428Y-69448571D01*
X155145713Y-69448571D01*
X155288570Y-69520000D01*
X155359999Y-69662857D01*
X155359999Y-70448571D01*
X155359999Y-69662857D02*
X155431428Y-69520000D01*
X155574285Y-69448571D01*
X155788570Y-69448571D01*
X155931428Y-69520000D01*
X156002856Y-69662857D01*
X156002856Y-70448571D01*
X106680000Y-71120000D02*
X193040000Y-71120000D01*
X106680000Y-75692000D02*
X106680000Y-68420000D01*
X193040000Y-75692000D02*
X193040000Y-68420000D01*
X193040000Y-71120000D02*
X191913496Y-71706421D01*
X193040000Y-71120000D02*
X191913496Y-70533579D01*
X106680000Y-71120000D02*
X107806504Y-71706421D01*
X106680000Y-71120000D02*
X107806504Y-70533579D01*
M02*
