G04 #@! TF.FileFunction,Other,Fab,Top*
%FSLAX46Y46*%
G04 Gerber Fmt 4.6, Leading zero omitted, Abs format (unit mm)*
G04 Created by KiCad (PCBNEW 4.0.2-stable) date 29/08/2016 23:52:40*
%MOMM*%
G01*
G04 APERTURE LIST*
%ADD10C,0.100000*%
%ADD11C,0.200000*%
%ADD12C,0.150000*%
G04 APERTURE END LIST*
D10*
D11*
X142137000Y-117990000D02*
X140867000Y-116720000D01*
X140867000Y-116720000D02*
X140867000Y-114790000D01*
X140867000Y-114790000D02*
X152617000Y-114790000D01*
X152617000Y-114790000D02*
X152617000Y-117990000D01*
X152617000Y-117990000D02*
X142137000Y-117990000D01*
X130453000Y-83319000D02*
X129183000Y-82049000D01*
X129183000Y-82049000D02*
X129183000Y-80119000D01*
X129183000Y-80119000D02*
X138433000Y-80119000D01*
X138433000Y-80119000D02*
X138433000Y-83319000D01*
X138433000Y-83319000D02*
X130453000Y-83319000D01*
X131294000Y-117214000D02*
X132564000Y-118484000D01*
X132564000Y-118484000D02*
X132564000Y-120414000D01*
X132564000Y-120414000D02*
X128314000Y-120414000D01*
X128314000Y-120414000D02*
X128314000Y-117214000D01*
X128314000Y-117214000D02*
X131294000Y-117214000D01*
X123849000Y-83192000D02*
X122579000Y-81922000D01*
X122579000Y-81922000D02*
X122579000Y-79992000D01*
X122579000Y-79992000D02*
X126829000Y-79992000D01*
X126829000Y-79992000D02*
X126829000Y-83192000D01*
X126829000Y-83192000D02*
X123849000Y-83192000D01*
X177426000Y-91162000D02*
X176156000Y-92432000D01*
X176156000Y-92432000D02*
X174226000Y-92432000D01*
X174226000Y-92432000D02*
X174226000Y-86932000D01*
X174226000Y-86932000D02*
X177426000Y-86932000D01*
X177426000Y-86932000D02*
X177426000Y-91162000D01*
X177426000Y-99290000D02*
X176156000Y-100560000D01*
X176156000Y-100560000D02*
X174226000Y-100560000D01*
X174226000Y-100560000D02*
X174226000Y-95060000D01*
X174226000Y-95060000D02*
X177426000Y-95060000D01*
X177426000Y-95060000D02*
X177426000Y-99290000D01*
X122150000Y-117214000D02*
X123420000Y-118484000D01*
X123420000Y-118484000D02*
X123420000Y-120414000D01*
X123420000Y-120414000D02*
X119170000Y-120414000D01*
X119170000Y-120414000D02*
X119170000Y-117214000D01*
X119170000Y-117214000D02*
X122150000Y-117214000D01*
D12*
X144685095Y-118197381D02*
X145256524Y-118197381D01*
X144970809Y-119197381D02*
X144970809Y-118197381D01*
X145970810Y-119149762D02*
X145875572Y-119197381D01*
X145685095Y-119197381D01*
X145589857Y-119149762D01*
X145542238Y-119054524D01*
X145542238Y-118673571D01*
X145589857Y-118578333D01*
X145685095Y-118530714D01*
X145875572Y-118530714D01*
X145970810Y-118578333D01*
X146018429Y-118673571D01*
X146018429Y-118768810D01*
X145542238Y-118864048D01*
X146875572Y-119149762D02*
X146780334Y-119197381D01*
X146589857Y-119197381D01*
X146494619Y-119149762D01*
X146447000Y-119102143D01*
X146399381Y-119006905D01*
X146399381Y-118721190D01*
X146447000Y-118625952D01*
X146494619Y-118578333D01*
X146589857Y-118530714D01*
X146780334Y-118530714D01*
X146875572Y-118578333D01*
X147447000Y-119197381D02*
X147351762Y-119149762D01*
X147304143Y-119054524D01*
X147304143Y-118197381D01*
X148256525Y-119197381D02*
X148256525Y-118673571D01*
X148208906Y-118578333D01*
X148113668Y-118530714D01*
X147923191Y-118530714D01*
X147827953Y-118578333D01*
X148256525Y-119149762D02*
X148161287Y-119197381D01*
X147923191Y-119197381D01*
X147827953Y-119149762D01*
X147780334Y-119054524D01*
X147780334Y-118959286D01*
X147827953Y-118864048D01*
X147923191Y-118816429D01*
X148161287Y-118816429D01*
X148256525Y-118768810D01*
X149161287Y-119197381D02*
X149161287Y-118197381D01*
X149161287Y-119149762D02*
X149066049Y-119197381D01*
X148875572Y-119197381D01*
X148780334Y-119149762D01*
X148732715Y-119102143D01*
X148685096Y-119006905D01*
X148685096Y-118721190D01*
X148732715Y-118625952D01*
X148780334Y-118578333D01*
X148875572Y-118530714D01*
X149066049Y-118530714D01*
X149161287Y-118578333D01*
X149780334Y-119197381D02*
X149685096Y-119149762D01*
X149637477Y-119102143D01*
X149589858Y-119006905D01*
X149589858Y-118721190D01*
X149637477Y-118625952D01*
X149685096Y-118578333D01*
X149780334Y-118530714D01*
X149923192Y-118530714D01*
X150018430Y-118578333D01*
X150066049Y-118625952D01*
X150113668Y-118721190D01*
X150113668Y-119006905D01*
X150066049Y-119102143D01*
X150018430Y-119149762D01*
X149923192Y-119197381D01*
X149780334Y-119197381D01*
M02*
