G04 #@! TF.FileFunction,Legend,Top*
%FSLAX46Y46*%
G04 Gerber Fmt 4.6, Leading zero omitted, Abs format (unit mm)*
G04 Created by KiCad (PCBNEW 4.0.2-stable) date 02/09/2016 20:31:52*
%MOMM*%
G01*
G04 APERTURE LIST*
%ADD10C,0.100000*%
%ADD11C,0.150000*%
%ADD12C,0.127000*%
%ADD13C,0.304800*%
%ADD14C,0.119380*%
G04 APERTURE END LIST*
D10*
D11*
X134000240Y-100330000D02*
X134401560Y-100129340D01*
X134401560Y-100129340D02*
X135001000Y-100027740D01*
X135001000Y-100027740D02*
X135501380Y-100129340D01*
X135501380Y-100129340D02*
X136199880Y-100528120D01*
X136199880Y-100528120D02*
X136601200Y-101130100D01*
X136601200Y-101130100D02*
X136801860Y-101729540D01*
X136801860Y-101729540D02*
X136801860Y-108328460D01*
X136801860Y-108328460D02*
X136601200Y-109029500D01*
X136601200Y-109029500D02*
X136301480Y-109428280D01*
X136301480Y-109428280D02*
X135801100Y-109829600D01*
X135801100Y-109829600D02*
X135201660Y-110030260D01*
X135201660Y-110030260D02*
X134701280Y-110030260D01*
X134701280Y-110030260D02*
X134200900Y-109829600D01*
X134200900Y-109829600D02*
X133601460Y-109329220D01*
X133601460Y-109329220D02*
X133301740Y-108828840D01*
X133301740Y-108828840D02*
X133200140Y-108328460D01*
X133200140Y-108229400D02*
X133200140Y-101627940D01*
X133200140Y-101627940D02*
X133301740Y-101229160D01*
X133301740Y-101229160D02*
X133601460Y-100728780D01*
X133601460Y-100728780D02*
X134101840Y-100228400D01*
X132671820Y-108219240D02*
X132720080Y-108678980D01*
X132720080Y-108678980D02*
X132831840Y-109077760D01*
X132831840Y-109077760D02*
X133050280Y-109509560D01*
X133050280Y-109509560D02*
X133281420Y-109799120D01*
X133281420Y-109799120D02*
X133631940Y-110129320D01*
X133631940Y-110129320D02*
X134170420Y-110418880D01*
X134170420Y-110418880D02*
X134769860Y-110548420D01*
X134769860Y-110548420D02*
X135280400Y-110548420D01*
X135280400Y-110548420D02*
X135981440Y-110378240D01*
X135981440Y-110378240D02*
X136570720Y-109979460D01*
X136570720Y-109979460D02*
X136941560Y-109519720D01*
X136941560Y-109519720D02*
X137149840Y-109098080D01*
X137149840Y-109098080D02*
X137309860Y-108648500D01*
X137309860Y-108648500D02*
X137340340Y-108209080D01*
X137121900Y-100868480D02*
X136900920Y-100490020D01*
X136900920Y-100490020D02*
X136621520Y-100169980D01*
X136621520Y-100169980D02*
X136291320Y-99918520D01*
X136291320Y-99918520D02*
X135740140Y-99618800D01*
X135740140Y-99618800D02*
X135270240Y-99509580D01*
X135270240Y-99509580D02*
X134810500Y-99489260D01*
X134810500Y-99489260D02*
X134350760Y-99578160D01*
X134350760Y-99578160D02*
X133901180Y-99768660D01*
X133901180Y-99768660D02*
X133431280Y-100129340D01*
X133431280Y-100129340D02*
X133111240Y-100479860D01*
X133111240Y-100479860D02*
X132880100Y-100868480D01*
X132880100Y-100868480D02*
X132740400Y-101297740D01*
X132740400Y-101297740D02*
X132671820Y-101739700D01*
X137330180Y-108229400D02*
X137330180Y-101777800D01*
X137330180Y-101777800D02*
X137292080Y-101358700D01*
X137292080Y-101358700D02*
X137121900Y-100868480D01*
X132671820Y-108229400D02*
X132671820Y-101777800D01*
X134000240Y-89027000D02*
X134401560Y-88826340D01*
X134401560Y-88826340D02*
X135001000Y-88724740D01*
X135001000Y-88724740D02*
X135501380Y-88826340D01*
X135501380Y-88826340D02*
X136199880Y-89225120D01*
X136199880Y-89225120D02*
X136601200Y-89827100D01*
X136601200Y-89827100D02*
X136801860Y-90426540D01*
X136801860Y-90426540D02*
X136801860Y-97025460D01*
X136801860Y-97025460D02*
X136601200Y-97726500D01*
X136601200Y-97726500D02*
X136301480Y-98125280D01*
X136301480Y-98125280D02*
X135801100Y-98526600D01*
X135801100Y-98526600D02*
X135201660Y-98727260D01*
X135201660Y-98727260D02*
X134701280Y-98727260D01*
X134701280Y-98727260D02*
X134200900Y-98526600D01*
X134200900Y-98526600D02*
X133601460Y-98026220D01*
X133601460Y-98026220D02*
X133301740Y-97525840D01*
X133301740Y-97525840D02*
X133200140Y-97025460D01*
X133200140Y-96926400D02*
X133200140Y-90324940D01*
X133200140Y-90324940D02*
X133301740Y-89926160D01*
X133301740Y-89926160D02*
X133601460Y-89425780D01*
X133601460Y-89425780D02*
X134101840Y-88925400D01*
X132671820Y-96916240D02*
X132720080Y-97375980D01*
X132720080Y-97375980D02*
X132831840Y-97774760D01*
X132831840Y-97774760D02*
X133050280Y-98206560D01*
X133050280Y-98206560D02*
X133281420Y-98496120D01*
X133281420Y-98496120D02*
X133631940Y-98826320D01*
X133631940Y-98826320D02*
X134170420Y-99115880D01*
X134170420Y-99115880D02*
X134769860Y-99245420D01*
X134769860Y-99245420D02*
X135280400Y-99245420D01*
X135280400Y-99245420D02*
X135981440Y-99075240D01*
X135981440Y-99075240D02*
X136570720Y-98676460D01*
X136570720Y-98676460D02*
X136941560Y-98216720D01*
X136941560Y-98216720D02*
X137149840Y-97795080D01*
X137149840Y-97795080D02*
X137309860Y-97345500D01*
X137309860Y-97345500D02*
X137340340Y-96906080D01*
X137121900Y-89565480D02*
X136900920Y-89187020D01*
X136900920Y-89187020D02*
X136621520Y-88866980D01*
X136621520Y-88866980D02*
X136291320Y-88615520D01*
X136291320Y-88615520D02*
X135740140Y-88315800D01*
X135740140Y-88315800D02*
X135270240Y-88206580D01*
X135270240Y-88206580D02*
X134810500Y-88186260D01*
X134810500Y-88186260D02*
X134350760Y-88275160D01*
X134350760Y-88275160D02*
X133901180Y-88465660D01*
X133901180Y-88465660D02*
X133431280Y-88826340D01*
X133431280Y-88826340D02*
X133111240Y-89176860D01*
X133111240Y-89176860D02*
X132880100Y-89565480D01*
X132880100Y-89565480D02*
X132740400Y-89994740D01*
X132740400Y-89994740D02*
X132671820Y-90436700D01*
X137330180Y-96926400D02*
X137330180Y-90474800D01*
X137330180Y-90474800D02*
X137292080Y-90055700D01*
X137292080Y-90055700D02*
X137121900Y-89565480D01*
X132671820Y-96926400D02*
X132671820Y-90474800D01*
X140703000Y-87871000D02*
X140703000Y-88631000D01*
X154953000Y-87871000D02*
X154953000Y-88631000D01*
X154953000Y-102121000D02*
X154953000Y-101361000D01*
X140703000Y-102121000D02*
X140703000Y-101361000D01*
X140703000Y-87871000D02*
X141463000Y-87871000D01*
X140703000Y-102121000D02*
X141463000Y-102121000D01*
X154953000Y-102121000D02*
X154193000Y-102121000D01*
X154953000Y-87871000D02*
X154193000Y-87871000D01*
X140703000Y-88631000D02*
X139178000Y-88631000D01*
X142450820Y-82588100D02*
X143502380Y-82588100D01*
X143553180Y-80987900D02*
X142501620Y-80987900D01*
D12*
X143179800Y-122618500D02*
X141554200Y-122618500D01*
X141554200Y-124904500D02*
X143179800Y-124904500D01*
X141554200Y-125361700D02*
X143179800Y-125361700D01*
X143179800Y-125361700D02*
X143179800Y-122161300D01*
X143179800Y-122161300D02*
X141554200Y-122161300D01*
X141554200Y-122161300D02*
X141554200Y-125361700D01*
X145529300Y-122618500D02*
X143903700Y-122618500D01*
X143903700Y-124904500D02*
X145529300Y-124904500D01*
X143903700Y-125361700D02*
X145529300Y-125361700D01*
X145529300Y-125361700D02*
X145529300Y-122161300D01*
X145529300Y-122161300D02*
X143903700Y-122161300D01*
X143903700Y-122161300D02*
X143903700Y-125361700D01*
X147751800Y-122618500D02*
X146126200Y-122618500D01*
X146126200Y-124904500D02*
X147751800Y-124904500D01*
X146126200Y-125361700D02*
X147751800Y-125361700D01*
X147751800Y-125361700D02*
X147751800Y-122161300D01*
X147751800Y-122161300D02*
X146126200Y-122161300D01*
X146126200Y-122161300D02*
X146126200Y-125361700D01*
X149974300Y-122618500D02*
X148348700Y-122618500D01*
X148348700Y-124904500D02*
X149974300Y-124904500D01*
X148348700Y-125361700D02*
X149974300Y-125361700D01*
X149974300Y-125361700D02*
X149974300Y-122161300D01*
X149974300Y-122161300D02*
X148348700Y-122161300D01*
X148348700Y-122161300D02*
X148348700Y-125361700D01*
X152196800Y-122618500D02*
X150571200Y-122618500D01*
X150571200Y-124904500D02*
X152196800Y-124904500D01*
X150571200Y-125361700D02*
X152196800Y-125361700D01*
X152196800Y-125361700D02*
X152196800Y-122161300D01*
X152196800Y-122161300D02*
X150571200Y-122161300D01*
X150571200Y-122161300D02*
X150571200Y-125361700D01*
X119202200Y-106807000D02*
X120827800Y-106807000D01*
X120827800Y-104521000D02*
X119202200Y-104521000D01*
X120827800Y-104063800D02*
X119202200Y-104063800D01*
X119202200Y-104063800D02*
X119202200Y-107264200D01*
X119202200Y-107264200D02*
X120827800Y-107264200D01*
X120827800Y-107264200D02*
X120827800Y-104063800D01*
X120827800Y-99187000D02*
X119202200Y-99187000D01*
X119202200Y-101473000D02*
X120827800Y-101473000D01*
X119202200Y-101930200D02*
X120827800Y-101930200D01*
X120827800Y-101930200D02*
X120827800Y-98729800D01*
X120827800Y-98729800D02*
X119202200Y-98729800D01*
X119202200Y-98729800D02*
X119202200Y-101930200D01*
X120827800Y-90805000D02*
X119202200Y-90805000D01*
X119202200Y-93091000D02*
X120827800Y-93091000D01*
X119202200Y-93548200D02*
X120827800Y-93548200D01*
X120827800Y-93548200D02*
X120827800Y-90347800D01*
X120827800Y-90347800D02*
X119202200Y-90347800D01*
X119202200Y-90347800D02*
X119202200Y-93548200D01*
D11*
X134866000Y-85510000D02*
X133866000Y-85510000D01*
X133866000Y-87210000D02*
X134866000Y-87210000D01*
X129913000Y-100496000D02*
X128913000Y-100496000D01*
X128913000Y-102196000D02*
X129913000Y-102196000D01*
X129913000Y-103671000D02*
X128913000Y-103671000D01*
X128913000Y-105371000D02*
X129913000Y-105371000D01*
X129913000Y-106846000D02*
X128913000Y-106846000D01*
X128913000Y-108546000D02*
X129913000Y-108546000D01*
D12*
X150291800Y-77851000D02*
X148666200Y-77851000D01*
X148666200Y-80137000D02*
X150291800Y-80137000D01*
X148666200Y-80594200D02*
X150291800Y-80594200D01*
X150291800Y-80594200D02*
X150291800Y-77393800D01*
X150291800Y-77393800D02*
X148666200Y-77393800D01*
X148666200Y-77393800D02*
X148666200Y-80594200D01*
X152831800Y-77851000D02*
X151206200Y-77851000D01*
X151206200Y-80137000D02*
X152831800Y-80137000D01*
X151206200Y-80594200D02*
X152831800Y-80594200D01*
X152831800Y-80594200D02*
X152831800Y-77393800D01*
X152831800Y-77393800D02*
X151206200Y-77393800D01*
X151206200Y-77393800D02*
X151206200Y-80594200D01*
X155371800Y-77851000D02*
X153746200Y-77851000D01*
X153746200Y-80137000D02*
X155371800Y-80137000D01*
X153746200Y-80594200D02*
X155371800Y-80594200D01*
X155371800Y-80594200D02*
X155371800Y-77393800D01*
X155371800Y-77393800D02*
X153746200Y-77393800D01*
X153746200Y-77393800D02*
X153746200Y-80594200D01*
X157911800Y-77851000D02*
X156286200Y-77851000D01*
X156286200Y-80137000D02*
X157911800Y-80137000D01*
X156286200Y-80594200D02*
X157911800Y-80594200D01*
X157911800Y-80594200D02*
X157911800Y-77393800D01*
X157911800Y-77393800D02*
X156286200Y-77393800D01*
X156286200Y-77393800D02*
X156286200Y-80594200D01*
X160451800Y-77851000D02*
X158826200Y-77851000D01*
X158826200Y-80137000D02*
X160451800Y-80137000D01*
X158826200Y-80594200D02*
X160451800Y-80594200D01*
X160451800Y-80594200D02*
X160451800Y-77393800D01*
X160451800Y-77393800D02*
X158826200Y-77393800D01*
X158826200Y-77393800D02*
X158826200Y-80594200D01*
X162991800Y-77851000D02*
X161366200Y-77851000D01*
X161366200Y-80137000D02*
X162991800Y-80137000D01*
X161366200Y-80594200D02*
X162991800Y-80594200D01*
X162991800Y-80594200D02*
X162991800Y-77393800D01*
X162991800Y-77393800D02*
X161366200Y-77393800D01*
X161366200Y-77393800D02*
X161366200Y-80594200D01*
X165531800Y-77851000D02*
X163906200Y-77851000D01*
X163906200Y-80137000D02*
X165531800Y-80137000D01*
X163906200Y-80594200D02*
X165531800Y-80594200D01*
X165531800Y-80594200D02*
X165531800Y-77393800D01*
X165531800Y-77393800D02*
X163906200Y-77393800D01*
X163906200Y-77393800D02*
X163906200Y-80594200D01*
X168071800Y-77851000D02*
X166446200Y-77851000D01*
X166446200Y-80137000D02*
X168071800Y-80137000D01*
X166446200Y-80594200D02*
X168071800Y-80594200D01*
X168071800Y-80594200D02*
X168071800Y-77393800D01*
X168071800Y-77393800D02*
X166446200Y-77393800D01*
X166446200Y-77393800D02*
X166446200Y-80594200D01*
D11*
X163532820Y-127292100D02*
X164584380Y-127292100D01*
X164635180Y-125691900D02*
X163583620Y-125691900D01*
X174287180Y-105879900D02*
X173235620Y-105879900D01*
X173184820Y-107480100D02*
X174236380Y-107480100D01*
D13*
X190614300Y-126347220D02*
X190614300Y-106847640D01*
X190863220Y-108348780D02*
X190863220Y-126347220D01*
X191114680Y-127848360D02*
X191114680Y-108348780D01*
X172864780Y-126347220D02*
X189865000Y-126347220D01*
X172864780Y-126347220D02*
X172364400Y-125846840D01*
X172364400Y-125846840D02*
X172364400Y-123347480D01*
X172364400Y-123347480D02*
X172864780Y-122847100D01*
X172864780Y-122847100D02*
X174863760Y-122847100D01*
X174863760Y-122847100D02*
X174863760Y-119346980D01*
X172864780Y-108348780D02*
X189865000Y-108348780D01*
X172864780Y-108348780D02*
X172364400Y-108849160D01*
X172364400Y-108849160D02*
X172364400Y-110848140D01*
X172364400Y-110848140D02*
X172364400Y-111348520D01*
X172364400Y-111348520D02*
X172864780Y-111848900D01*
X172864780Y-111848900D02*
X174863760Y-111848900D01*
X174863760Y-111848900D02*
X174863760Y-115349020D01*
X172364400Y-118849140D02*
X172864780Y-119346980D01*
X172864780Y-119346980D02*
X174863760Y-119346980D01*
X172364400Y-118849140D02*
X172364400Y-115846860D01*
X172364400Y-115846860D02*
X172864780Y-115349020D01*
X172864780Y-115349020D02*
X174863760Y-115349020D01*
X190863220Y-106847640D02*
X190863220Y-108348780D01*
X190863220Y-108348780D02*
X191363600Y-108348780D01*
X191363600Y-108348780D02*
X191363600Y-127848360D01*
X190863220Y-127848360D02*
X190863220Y-126347220D01*
X190863220Y-126347220D02*
X190362840Y-126347220D01*
X190362840Y-126347220D02*
X190362840Y-106847640D01*
X189865000Y-108348780D02*
X189865000Y-108849160D01*
X189865000Y-126347220D02*
X189865000Y-125846840D01*
X190362840Y-108849160D02*
X189865000Y-108849160D01*
X189865000Y-125846840D02*
X190362840Y-125846840D01*
X191363600Y-127848360D02*
X190863220Y-127848360D01*
X190362840Y-106847640D02*
X190863220Y-106847640D01*
D11*
X137922000Y-110998000D02*
X137922000Y-108458000D01*
X137922000Y-108458000D02*
X160782000Y-108458000D01*
X160782000Y-108458000D02*
X160782000Y-110998000D01*
X137922000Y-110998000D02*
X160782000Y-110998000D01*
X158242000Y-110998000D02*
X158242000Y-108458000D01*
X167513000Y-112903000D02*
X167513000Y-109601000D01*
X169799000Y-111252000D02*
X169799000Y-109601000D01*
X169799000Y-111252000D02*
X169799000Y-112903000D01*
X163576000Y-121627900D02*
X163375340Y-121627900D01*
X163576000Y-121627900D02*
X163776660Y-121627900D01*
X163675060Y-123228100D02*
X163776660Y-123228100D01*
X163776660Y-123228100D02*
X163375340Y-123228100D01*
X164211000Y-109601000D02*
X164211000Y-112903000D01*
X161925000Y-111252000D02*
X161925000Y-112903000D01*
X161925000Y-111252000D02*
X161925000Y-109601000D01*
X183261000Y-95631000D02*
X183261000Y-92329000D01*
X185547000Y-93980000D02*
X185547000Y-92329000D01*
X185547000Y-93980000D02*
X185547000Y-95631000D01*
X129159000Y-91567000D02*
X129159000Y-94869000D01*
X126873000Y-93218000D02*
X126873000Y-94869000D01*
X126873000Y-93218000D02*
X126873000Y-91567000D01*
X123317000Y-94996000D02*
X123317000Y-91694000D01*
X125603000Y-93345000D02*
X125603000Y-91694000D01*
X125603000Y-93345000D02*
X125603000Y-94996000D01*
X114427000Y-95504000D02*
X117475000Y-95504000D01*
X117475000Y-95504000D02*
X117475000Y-88392000D01*
X117475000Y-88392000D02*
X114427000Y-88392000D01*
X111379000Y-95504000D02*
X110617000Y-95504000D01*
X110617000Y-95504000D02*
X108331000Y-93980000D01*
X108331000Y-93980000D02*
X108331000Y-89916000D01*
X108331000Y-89916000D02*
X110617000Y-88392000D01*
X110617000Y-88392000D02*
X111379000Y-88392000D01*
X114427000Y-106680000D02*
X117475000Y-106680000D01*
X117475000Y-106680000D02*
X117475000Y-99568000D01*
X117475000Y-99568000D02*
X114427000Y-99568000D01*
X111379000Y-106680000D02*
X110617000Y-106680000D01*
X110617000Y-106680000D02*
X108331000Y-105156000D01*
X108331000Y-105156000D02*
X108331000Y-101092000D01*
X108331000Y-101092000D02*
X110617000Y-99568000D01*
X110617000Y-99568000D02*
X111379000Y-99568000D01*
X140867000Y-116720000D02*
X140867000Y-114790000D01*
X140867000Y-114790000D02*
X152617000Y-114790000D01*
X152617000Y-114790000D02*
X152617000Y-117990000D01*
X152617000Y-117990000D02*
X142137000Y-117990000D01*
X142367000Y-118490000D02*
X142867000Y-118990000D01*
X142867000Y-118990000D02*
X141867000Y-118990000D01*
X141867000Y-118990000D02*
X142367000Y-118490000D01*
X129183000Y-82049000D02*
X129183000Y-80119000D01*
X129183000Y-80119000D02*
X138433000Y-80119000D01*
X138433000Y-80119000D02*
X138433000Y-83319000D01*
X138433000Y-83319000D02*
X130453000Y-83319000D01*
X130683000Y-83819000D02*
X131183000Y-84319000D01*
X131183000Y-84319000D02*
X130183000Y-84319000D01*
X130183000Y-84319000D02*
X130683000Y-83819000D01*
X132564000Y-118484000D02*
X132564000Y-120414000D01*
X132564000Y-120414000D02*
X128314000Y-120414000D01*
X128314000Y-120414000D02*
X128314000Y-117214000D01*
X128314000Y-117214000D02*
X131294000Y-117214000D01*
X131064000Y-116714000D02*
X130564000Y-116214000D01*
X130564000Y-116214000D02*
X131564000Y-116214000D01*
X131564000Y-116214000D02*
X131064000Y-116714000D01*
X122579000Y-81922000D02*
X122579000Y-79992000D01*
X122579000Y-79992000D02*
X126829000Y-79992000D01*
X126829000Y-79992000D02*
X126829000Y-83192000D01*
X126829000Y-83192000D02*
X123849000Y-83192000D01*
X124079000Y-83692000D02*
X124579000Y-84192000D01*
X124579000Y-84192000D02*
X123579000Y-84192000D01*
X123579000Y-84192000D02*
X124079000Y-83692000D01*
X176156000Y-92432000D02*
X174226000Y-92432000D01*
X174226000Y-92432000D02*
X174226000Y-86932000D01*
X174226000Y-86932000D02*
X177426000Y-86932000D01*
X177426000Y-86932000D02*
X177426000Y-91162000D01*
X177926000Y-90932000D02*
X178426000Y-90432000D01*
X178426000Y-90432000D02*
X178426000Y-91432000D01*
X178426000Y-91432000D02*
X177926000Y-90932000D01*
X176156000Y-100560000D02*
X174226000Y-100560000D01*
X174226000Y-100560000D02*
X174226000Y-95060000D01*
X174226000Y-95060000D02*
X177426000Y-95060000D01*
X177426000Y-95060000D02*
X177426000Y-99290000D01*
X177926000Y-99060000D02*
X178426000Y-98560000D01*
X178426000Y-98560000D02*
X178426000Y-99560000D01*
X178426000Y-99560000D02*
X177926000Y-99060000D01*
X123420000Y-118484000D02*
X123420000Y-120414000D01*
X123420000Y-120414000D02*
X119170000Y-120414000D01*
X119170000Y-120414000D02*
X119170000Y-117214000D01*
X119170000Y-117214000D02*
X122150000Y-117214000D01*
X121920000Y-116714000D02*
X121420000Y-116214000D01*
X121420000Y-116214000D02*
X122420000Y-116214000D01*
X122420000Y-116214000D02*
X121920000Y-116714000D01*
X134580381Y-112696524D02*
X135580381Y-112029857D01*
X134580381Y-112029857D02*
X135580381Y-112696524D01*
X135580381Y-111125095D02*
X135580381Y-111696524D01*
X135580381Y-111410810D02*
X134580381Y-111410810D01*
X134723238Y-111506048D01*
X134818476Y-111601286D01*
X134866095Y-111696524D01*
X131405381Y-94814924D02*
X132405381Y-94148257D01*
X131405381Y-94148257D02*
X132405381Y-94814924D01*
X131500619Y-93814924D02*
X131453000Y-93767305D01*
X131405381Y-93672067D01*
X131405381Y-93433971D01*
X131453000Y-93338733D01*
X131500619Y-93291114D01*
X131595857Y-93243495D01*
X131691095Y-93243495D01*
X131833952Y-93291114D01*
X132405381Y-93862543D01*
X132405381Y-93243495D01*
X147066095Y-84798381D02*
X147066095Y-85607905D01*
X147113714Y-85703143D01*
X147161333Y-85750762D01*
X147256571Y-85798381D01*
X147447048Y-85798381D01*
X147542286Y-85750762D01*
X147589905Y-85703143D01*
X147637524Y-85607905D01*
X147637524Y-84798381D01*
X148542286Y-85131714D02*
X148542286Y-85798381D01*
X148304190Y-84750762D02*
X148066095Y-85465048D01*
X148685143Y-85465048D01*
X142835334Y-80335381D02*
X142359143Y-80335381D01*
X142359143Y-79335381D01*
X143073429Y-79335381D02*
X143692477Y-79335381D01*
X143359143Y-79716333D01*
X143502001Y-79716333D01*
X143597239Y-79763952D01*
X143644858Y-79811571D01*
X143692477Y-79906810D01*
X143692477Y-80144905D01*
X143644858Y-80240143D01*
X143597239Y-80287762D01*
X143502001Y-80335381D01*
X143216286Y-80335381D01*
X143121048Y-80287762D01*
X143073429Y-80240143D01*
D14*
X142545707Y-127083396D02*
X142569535Y-127107224D01*
X142593362Y-127178707D01*
X142593362Y-127226362D01*
X142569535Y-127297845D01*
X142521880Y-127345500D01*
X142474224Y-127369328D01*
X142378914Y-127393156D01*
X142307431Y-127393156D01*
X142212120Y-127369328D01*
X142164465Y-127345500D01*
X142116810Y-127297845D01*
X142092982Y-127226362D01*
X142092982Y-127178707D01*
X142116810Y-127107224D01*
X142140638Y-127083396D01*
X142593362Y-126606844D02*
X142593362Y-126892776D01*
X142593362Y-126749810D02*
X142092982Y-126749810D01*
X142164465Y-126797465D01*
X142212120Y-126845120D01*
X142235948Y-126892776D01*
X144958707Y-127083396D02*
X144982535Y-127107224D01*
X145006362Y-127178707D01*
X145006362Y-127226362D01*
X144982535Y-127297845D01*
X144934880Y-127345500D01*
X144887224Y-127369328D01*
X144791914Y-127393156D01*
X144720431Y-127393156D01*
X144625120Y-127369328D01*
X144577465Y-127345500D01*
X144529810Y-127297845D01*
X144505982Y-127226362D01*
X144505982Y-127178707D01*
X144529810Y-127107224D01*
X144553638Y-127083396D01*
X144553638Y-126892776D02*
X144529810Y-126868948D01*
X144505982Y-126821293D01*
X144505982Y-126702155D01*
X144529810Y-126654499D01*
X144553638Y-126630672D01*
X144601293Y-126606844D01*
X144648948Y-126606844D01*
X144720431Y-126630672D01*
X145006362Y-126916603D01*
X145006362Y-126606844D01*
X147117707Y-127083396D02*
X147141535Y-127107224D01*
X147165362Y-127178707D01*
X147165362Y-127226362D01*
X147141535Y-127297845D01*
X147093880Y-127345500D01*
X147046224Y-127369328D01*
X146950914Y-127393156D01*
X146879431Y-127393156D01*
X146784120Y-127369328D01*
X146736465Y-127345500D01*
X146688810Y-127297845D01*
X146664982Y-127226362D01*
X146664982Y-127178707D01*
X146688810Y-127107224D01*
X146712638Y-127083396D01*
X146664982Y-126916603D02*
X146664982Y-126606844D01*
X146855603Y-126773637D01*
X146855603Y-126702155D01*
X146879431Y-126654499D01*
X146903259Y-126630672D01*
X146950914Y-126606844D01*
X147070052Y-126606844D01*
X147117707Y-126630672D01*
X147141535Y-126654499D01*
X147165362Y-126702155D01*
X147165362Y-126845120D01*
X147141535Y-126892776D01*
X147117707Y-126916603D01*
X149149707Y-126956396D02*
X149173535Y-126980224D01*
X149197362Y-127051707D01*
X149197362Y-127099362D01*
X149173535Y-127170845D01*
X149125880Y-127218500D01*
X149078224Y-127242328D01*
X148982914Y-127266156D01*
X148911431Y-127266156D01*
X148816120Y-127242328D01*
X148768465Y-127218500D01*
X148720810Y-127170845D01*
X148696982Y-127099362D01*
X148696982Y-127051707D01*
X148720810Y-126980224D01*
X148744638Y-126956396D01*
X148863776Y-126527499D02*
X149197362Y-126527499D01*
X148673155Y-126646637D02*
X149030569Y-126765776D01*
X149030569Y-126456016D01*
X151562707Y-126956396D02*
X151586535Y-126980224D01*
X151610362Y-127051707D01*
X151610362Y-127099362D01*
X151586535Y-127170845D01*
X151538880Y-127218500D01*
X151491224Y-127242328D01*
X151395914Y-127266156D01*
X151324431Y-127266156D01*
X151229120Y-127242328D01*
X151181465Y-127218500D01*
X151133810Y-127170845D01*
X151109982Y-127099362D01*
X151109982Y-127051707D01*
X151133810Y-126980224D01*
X151157638Y-126956396D01*
X151109982Y-126503672D02*
X151109982Y-126741948D01*
X151348259Y-126765776D01*
X151324431Y-126741948D01*
X151300603Y-126694293D01*
X151300603Y-126575155D01*
X151324431Y-126527499D01*
X151348259Y-126503672D01*
X151395914Y-126479844D01*
X151515052Y-126479844D01*
X151562707Y-126503672D01*
X151586535Y-126527499D01*
X151610362Y-126575155D01*
X151610362Y-126694293D01*
X151586535Y-126741948D01*
X151562707Y-126765776D01*
X121717707Y-105747396D02*
X121741535Y-105771224D01*
X121765362Y-105842707D01*
X121765362Y-105890362D01*
X121741535Y-105961845D01*
X121693880Y-106009500D01*
X121646224Y-106033328D01*
X121550914Y-106057156D01*
X121479431Y-106057156D01*
X121384120Y-106033328D01*
X121336465Y-106009500D01*
X121288810Y-105961845D01*
X121264982Y-105890362D01*
X121264982Y-105842707D01*
X121288810Y-105771224D01*
X121312638Y-105747396D01*
X121264982Y-105318499D02*
X121264982Y-105413810D01*
X121288810Y-105461465D01*
X121312638Y-105485293D01*
X121384120Y-105532948D01*
X121479431Y-105556776D01*
X121670052Y-105556776D01*
X121717707Y-105532948D01*
X121741535Y-105509120D01*
X121765362Y-105461465D01*
X121765362Y-105366155D01*
X121741535Y-105318499D01*
X121717707Y-105294672D01*
X121670052Y-105270844D01*
X121550914Y-105270844D01*
X121503259Y-105294672D01*
X121479431Y-105318499D01*
X121455603Y-105366155D01*
X121455603Y-105461465D01*
X121479431Y-105509120D01*
X121503259Y-105532948D01*
X121550914Y-105556776D01*
X121844707Y-100413396D02*
X121868535Y-100437224D01*
X121892362Y-100508707D01*
X121892362Y-100556362D01*
X121868535Y-100627845D01*
X121820880Y-100675500D01*
X121773224Y-100699328D01*
X121677914Y-100723156D01*
X121606431Y-100723156D01*
X121511120Y-100699328D01*
X121463465Y-100675500D01*
X121415810Y-100627845D01*
X121391982Y-100556362D01*
X121391982Y-100508707D01*
X121415810Y-100437224D01*
X121439638Y-100413396D01*
X121391982Y-100246603D02*
X121391982Y-99913016D01*
X121892362Y-100127465D01*
X118898307Y-92005996D02*
X118922135Y-92029824D01*
X118945962Y-92101307D01*
X118945962Y-92148962D01*
X118922135Y-92220445D01*
X118874480Y-92268100D01*
X118826824Y-92291928D01*
X118731514Y-92315756D01*
X118660031Y-92315756D01*
X118564720Y-92291928D01*
X118517065Y-92268100D01*
X118469410Y-92220445D01*
X118445582Y-92148962D01*
X118445582Y-92101307D01*
X118469410Y-92029824D01*
X118493238Y-92005996D01*
X118660031Y-91720065D02*
X118636203Y-91767720D01*
X118612376Y-91791548D01*
X118564720Y-91815376D01*
X118540893Y-91815376D01*
X118493238Y-91791548D01*
X118469410Y-91767720D01*
X118445582Y-91720065D01*
X118445582Y-91624755D01*
X118469410Y-91577099D01*
X118493238Y-91553272D01*
X118540893Y-91529444D01*
X118564720Y-91529444D01*
X118612376Y-91553272D01*
X118636203Y-91577099D01*
X118660031Y-91624755D01*
X118660031Y-91720065D01*
X118683859Y-91767720D01*
X118707686Y-91791548D01*
X118755341Y-91815376D01*
X118850652Y-91815376D01*
X118898307Y-91791548D01*
X118922135Y-91767720D01*
X118945962Y-91720065D01*
X118945962Y-91624755D01*
X118922135Y-91577099D01*
X118898307Y-91553272D01*
X118850652Y-91529444D01*
X118755341Y-91529444D01*
X118707686Y-91553272D01*
X118683859Y-91577099D01*
X118660031Y-91624755D01*
D11*
X133945334Y-84812143D02*
X133897715Y-84859762D01*
X133754858Y-84907381D01*
X133659620Y-84907381D01*
X133516762Y-84859762D01*
X133421524Y-84764524D01*
X133373905Y-84669286D01*
X133326286Y-84478810D01*
X133326286Y-84335952D01*
X133373905Y-84145476D01*
X133421524Y-84050238D01*
X133516762Y-83955000D01*
X133659620Y-83907381D01*
X133754858Y-83907381D01*
X133897715Y-83955000D01*
X133945334Y-84002619D01*
X134421524Y-84907381D02*
X134612000Y-84907381D01*
X134707239Y-84859762D01*
X134754858Y-84812143D01*
X134850096Y-84669286D01*
X134897715Y-84478810D01*
X134897715Y-84097857D01*
X134850096Y-84002619D01*
X134802477Y-83955000D01*
X134707239Y-83907381D01*
X134516762Y-83907381D01*
X134421524Y-83955000D01*
X134373905Y-84002619D01*
X134326286Y-84097857D01*
X134326286Y-84335952D01*
X134373905Y-84431190D01*
X134421524Y-84478810D01*
X134516762Y-84526429D01*
X134707239Y-84526429D01*
X134802477Y-84478810D01*
X134850096Y-84431190D01*
X134897715Y-84335952D01*
X124833143Y-101703143D02*
X124785524Y-101750762D01*
X124642667Y-101798381D01*
X124547429Y-101798381D01*
X124404571Y-101750762D01*
X124309333Y-101655524D01*
X124261714Y-101560286D01*
X124214095Y-101369810D01*
X124214095Y-101226952D01*
X124261714Y-101036476D01*
X124309333Y-100941238D01*
X124404571Y-100846000D01*
X124547429Y-100798381D01*
X124642667Y-100798381D01*
X124785524Y-100846000D01*
X124833143Y-100893619D01*
X125785524Y-101798381D02*
X125214095Y-101798381D01*
X125499809Y-101798381D02*
X125499809Y-100798381D01*
X125404571Y-100941238D01*
X125309333Y-101036476D01*
X125214095Y-101084095D01*
X126404571Y-100798381D02*
X126499810Y-100798381D01*
X126595048Y-100846000D01*
X126642667Y-100893619D01*
X126690286Y-100988857D01*
X126737905Y-101179333D01*
X126737905Y-101417429D01*
X126690286Y-101607905D01*
X126642667Y-101703143D01*
X126595048Y-101750762D01*
X126499810Y-101798381D01*
X126404571Y-101798381D01*
X126309333Y-101750762D01*
X126261714Y-101703143D01*
X126214095Y-101607905D01*
X126166476Y-101417429D01*
X126166476Y-101179333D01*
X126214095Y-100988857D01*
X126261714Y-100893619D01*
X126309333Y-100846000D01*
X126404571Y-100798381D01*
X124833143Y-105005143D02*
X124785524Y-105052762D01*
X124642667Y-105100381D01*
X124547429Y-105100381D01*
X124404571Y-105052762D01*
X124309333Y-104957524D01*
X124261714Y-104862286D01*
X124214095Y-104671810D01*
X124214095Y-104528952D01*
X124261714Y-104338476D01*
X124309333Y-104243238D01*
X124404571Y-104148000D01*
X124547429Y-104100381D01*
X124642667Y-104100381D01*
X124785524Y-104148000D01*
X124833143Y-104195619D01*
X125785524Y-105100381D02*
X125214095Y-105100381D01*
X125499809Y-105100381D02*
X125499809Y-104100381D01*
X125404571Y-104243238D01*
X125309333Y-104338476D01*
X125214095Y-104386095D01*
X126737905Y-105100381D02*
X126166476Y-105100381D01*
X126452190Y-105100381D02*
X126452190Y-104100381D01*
X126356952Y-104243238D01*
X126261714Y-104338476D01*
X126166476Y-104386095D01*
X124706143Y-108180143D02*
X124658524Y-108227762D01*
X124515667Y-108275381D01*
X124420429Y-108275381D01*
X124277571Y-108227762D01*
X124182333Y-108132524D01*
X124134714Y-108037286D01*
X124087095Y-107846810D01*
X124087095Y-107703952D01*
X124134714Y-107513476D01*
X124182333Y-107418238D01*
X124277571Y-107323000D01*
X124420429Y-107275381D01*
X124515667Y-107275381D01*
X124658524Y-107323000D01*
X124706143Y-107370619D01*
X125658524Y-108275381D02*
X125087095Y-108275381D01*
X125372809Y-108275381D02*
X125372809Y-107275381D01*
X125277571Y-107418238D01*
X125182333Y-107513476D01*
X125087095Y-107561095D01*
X126039476Y-107370619D02*
X126087095Y-107323000D01*
X126182333Y-107275381D01*
X126420429Y-107275381D01*
X126515667Y-107323000D01*
X126563286Y-107370619D01*
X126610905Y-107465857D01*
X126610905Y-107561095D01*
X126563286Y-107703952D01*
X125991857Y-108275381D01*
X126610905Y-108275381D01*
D14*
X149683107Y-82719272D02*
X149706935Y-82743100D01*
X149730762Y-82814583D01*
X149730762Y-82862238D01*
X149706935Y-82933721D01*
X149659280Y-82981376D01*
X149611624Y-83005204D01*
X149516314Y-83029032D01*
X149444831Y-83029032D01*
X149349520Y-83005204D01*
X149301865Y-82981376D01*
X149254210Y-82933721D01*
X149230382Y-82862238D01*
X149230382Y-82814583D01*
X149254210Y-82743100D01*
X149278038Y-82719272D01*
X149730762Y-82242720D02*
X149730762Y-82528652D01*
X149730762Y-82385686D02*
X149230382Y-82385686D01*
X149301865Y-82433341D01*
X149349520Y-82480996D01*
X149373348Y-82528652D01*
X149230382Y-82075927D02*
X149230382Y-81766168D01*
X149421003Y-81932961D01*
X149421003Y-81861479D01*
X149444831Y-81813823D01*
X149468659Y-81789996D01*
X149516314Y-81766168D01*
X149635452Y-81766168D01*
X149683107Y-81789996D01*
X149706935Y-81813823D01*
X149730762Y-81861479D01*
X149730762Y-82004444D01*
X149706935Y-82052100D01*
X149683107Y-82075927D01*
X152172307Y-82617672D02*
X152196135Y-82641500D01*
X152219962Y-82712983D01*
X152219962Y-82760638D01*
X152196135Y-82832121D01*
X152148480Y-82879776D01*
X152100824Y-82903604D01*
X152005514Y-82927432D01*
X151934031Y-82927432D01*
X151838720Y-82903604D01*
X151791065Y-82879776D01*
X151743410Y-82832121D01*
X151719582Y-82760638D01*
X151719582Y-82712983D01*
X151743410Y-82641500D01*
X151767238Y-82617672D01*
X152219962Y-82141120D02*
X152219962Y-82427052D01*
X152219962Y-82284086D02*
X151719582Y-82284086D01*
X151791065Y-82331741D01*
X151838720Y-82379396D01*
X151862548Y-82427052D01*
X151886376Y-81712223D02*
X152219962Y-81712223D01*
X151695755Y-81831361D02*
X152053169Y-81950500D01*
X152053169Y-81640740D01*
X154712307Y-82668472D02*
X154736135Y-82692300D01*
X154759962Y-82763783D01*
X154759962Y-82811438D01*
X154736135Y-82882921D01*
X154688480Y-82930576D01*
X154640824Y-82954404D01*
X154545514Y-82978232D01*
X154474031Y-82978232D01*
X154378720Y-82954404D01*
X154331065Y-82930576D01*
X154283410Y-82882921D01*
X154259582Y-82811438D01*
X154259582Y-82763783D01*
X154283410Y-82692300D01*
X154307238Y-82668472D01*
X154759962Y-82191920D02*
X154759962Y-82477852D01*
X154759962Y-82334886D02*
X154259582Y-82334886D01*
X154331065Y-82382541D01*
X154378720Y-82430196D01*
X154402548Y-82477852D01*
X154259582Y-81739196D02*
X154259582Y-81977472D01*
X154497859Y-82001300D01*
X154474031Y-81977472D01*
X154450203Y-81929817D01*
X154450203Y-81810679D01*
X154474031Y-81763023D01*
X154497859Y-81739196D01*
X154545514Y-81715368D01*
X154664652Y-81715368D01*
X154712307Y-81739196D01*
X154736135Y-81763023D01*
X154759962Y-81810679D01*
X154759962Y-81929817D01*
X154736135Y-81977472D01*
X154712307Y-82001300D01*
X157303107Y-82719272D02*
X157326935Y-82743100D01*
X157350762Y-82814583D01*
X157350762Y-82862238D01*
X157326935Y-82933721D01*
X157279280Y-82981376D01*
X157231624Y-83005204D01*
X157136314Y-83029032D01*
X157064831Y-83029032D01*
X156969520Y-83005204D01*
X156921865Y-82981376D01*
X156874210Y-82933721D01*
X156850382Y-82862238D01*
X156850382Y-82814583D01*
X156874210Y-82743100D01*
X156898038Y-82719272D01*
X157350762Y-82242720D02*
X157350762Y-82528652D01*
X157350762Y-82385686D02*
X156850382Y-82385686D01*
X156921865Y-82433341D01*
X156969520Y-82480996D01*
X156993348Y-82528652D01*
X156850382Y-81813823D02*
X156850382Y-81909134D01*
X156874210Y-81956789D01*
X156898038Y-81980617D01*
X156969520Y-82028272D01*
X157064831Y-82052100D01*
X157255452Y-82052100D01*
X157303107Y-82028272D01*
X157326935Y-82004444D01*
X157350762Y-81956789D01*
X157350762Y-81861479D01*
X157326935Y-81813823D01*
X157303107Y-81789996D01*
X157255452Y-81766168D01*
X157136314Y-81766168D01*
X157088659Y-81789996D01*
X157064831Y-81813823D01*
X157041003Y-81861479D01*
X157041003Y-81956789D01*
X157064831Y-82004444D01*
X157088659Y-82028272D01*
X157136314Y-82052100D01*
X159792307Y-82770072D02*
X159816135Y-82793900D01*
X159839962Y-82865383D01*
X159839962Y-82913038D01*
X159816135Y-82984521D01*
X159768480Y-83032176D01*
X159720824Y-83056004D01*
X159625514Y-83079832D01*
X159554031Y-83079832D01*
X159458720Y-83056004D01*
X159411065Y-83032176D01*
X159363410Y-82984521D01*
X159339582Y-82913038D01*
X159339582Y-82865383D01*
X159363410Y-82793900D01*
X159387238Y-82770072D01*
X159839962Y-82293520D02*
X159839962Y-82579452D01*
X159839962Y-82436486D02*
X159339582Y-82436486D01*
X159411065Y-82484141D01*
X159458720Y-82531796D01*
X159482548Y-82579452D01*
X159339582Y-82126727D02*
X159339582Y-81793140D01*
X159839962Y-82007589D01*
X162332307Y-82719272D02*
X162356135Y-82743100D01*
X162379962Y-82814583D01*
X162379962Y-82862238D01*
X162356135Y-82933721D01*
X162308480Y-82981376D01*
X162260824Y-83005204D01*
X162165514Y-83029032D01*
X162094031Y-83029032D01*
X161998720Y-83005204D01*
X161951065Y-82981376D01*
X161903410Y-82933721D01*
X161879582Y-82862238D01*
X161879582Y-82814583D01*
X161903410Y-82743100D01*
X161927238Y-82719272D01*
X162379962Y-82242720D02*
X162379962Y-82528652D01*
X162379962Y-82385686D02*
X161879582Y-82385686D01*
X161951065Y-82433341D01*
X161998720Y-82480996D01*
X162022548Y-82528652D01*
X162094031Y-81956789D02*
X162070203Y-82004444D01*
X162046376Y-82028272D01*
X161998720Y-82052100D01*
X161974893Y-82052100D01*
X161927238Y-82028272D01*
X161903410Y-82004444D01*
X161879582Y-81956789D01*
X161879582Y-81861479D01*
X161903410Y-81813823D01*
X161927238Y-81789996D01*
X161974893Y-81766168D01*
X161998720Y-81766168D01*
X162046376Y-81789996D01*
X162070203Y-81813823D01*
X162094031Y-81861479D01*
X162094031Y-81956789D01*
X162117859Y-82004444D01*
X162141686Y-82028272D01*
X162189341Y-82052100D01*
X162284652Y-82052100D01*
X162332307Y-82028272D01*
X162356135Y-82004444D01*
X162379962Y-81956789D01*
X162379962Y-81861479D01*
X162356135Y-81813823D01*
X162332307Y-81789996D01*
X162284652Y-81766168D01*
X162189341Y-81766168D01*
X162141686Y-81789996D01*
X162117859Y-81813823D01*
X162094031Y-81861479D01*
X164872307Y-82566872D02*
X164896135Y-82590700D01*
X164919962Y-82662183D01*
X164919962Y-82709838D01*
X164896135Y-82781321D01*
X164848480Y-82828976D01*
X164800824Y-82852804D01*
X164705514Y-82876632D01*
X164634031Y-82876632D01*
X164538720Y-82852804D01*
X164491065Y-82828976D01*
X164443410Y-82781321D01*
X164419582Y-82709838D01*
X164419582Y-82662183D01*
X164443410Y-82590700D01*
X164467238Y-82566872D01*
X164919962Y-82090320D02*
X164919962Y-82376252D01*
X164919962Y-82233286D02*
X164419582Y-82233286D01*
X164491065Y-82280941D01*
X164538720Y-82328596D01*
X164562548Y-82376252D01*
X164919962Y-81852044D02*
X164919962Y-81756734D01*
X164896135Y-81709079D01*
X164872307Y-81685251D01*
X164800824Y-81637596D01*
X164705514Y-81613768D01*
X164514893Y-81613768D01*
X164467238Y-81637596D01*
X164443410Y-81661423D01*
X164419582Y-81709079D01*
X164419582Y-81804389D01*
X164443410Y-81852044D01*
X164467238Y-81875872D01*
X164514893Y-81899700D01*
X164634031Y-81899700D01*
X164681686Y-81875872D01*
X164705514Y-81852044D01*
X164729341Y-81804389D01*
X164729341Y-81709079D01*
X164705514Y-81661423D01*
X164681686Y-81637596D01*
X164634031Y-81613768D01*
X167412307Y-82516072D02*
X167436135Y-82539900D01*
X167459962Y-82611383D01*
X167459962Y-82659038D01*
X167436135Y-82730521D01*
X167388480Y-82778176D01*
X167340824Y-82802004D01*
X167245514Y-82825832D01*
X167174031Y-82825832D01*
X167078720Y-82802004D01*
X167031065Y-82778176D01*
X166983410Y-82730521D01*
X166959582Y-82659038D01*
X166959582Y-82611383D01*
X166983410Y-82539900D01*
X167007238Y-82516072D01*
X167007238Y-82325452D02*
X166983410Y-82301624D01*
X166959582Y-82253969D01*
X166959582Y-82134831D01*
X166983410Y-82087175D01*
X167007238Y-82063348D01*
X167054893Y-82039520D01*
X167102548Y-82039520D01*
X167174031Y-82063348D01*
X167459962Y-82349279D01*
X167459962Y-82039520D01*
X166959582Y-81729761D02*
X166959582Y-81682106D01*
X166983410Y-81634451D01*
X167007238Y-81610623D01*
X167054893Y-81586796D01*
X167150203Y-81562968D01*
X167269341Y-81562968D01*
X167364652Y-81586796D01*
X167412307Y-81610623D01*
X167436135Y-81634451D01*
X167459962Y-81682106D01*
X167459962Y-81729761D01*
X167436135Y-81777417D01*
X167412307Y-81801244D01*
X167364652Y-81825072D01*
X167269341Y-81848900D01*
X167150203Y-81848900D01*
X167054893Y-81825072D01*
X167007238Y-81801244D01*
X166983410Y-81777417D01*
X166959582Y-81729761D01*
D11*
X158678667Y-126420571D02*
X158345333Y-126420571D01*
X158345333Y-126944381D02*
X158345333Y-125944381D01*
X158821524Y-125944381D01*
X159535810Y-126420571D02*
X159678667Y-126468190D01*
X159726286Y-126515810D01*
X159773905Y-126611048D01*
X159773905Y-126753905D01*
X159726286Y-126849143D01*
X159678667Y-126896762D01*
X159583429Y-126944381D01*
X159202476Y-126944381D01*
X159202476Y-125944381D01*
X159535810Y-125944381D01*
X159631048Y-125992000D01*
X159678667Y-126039619D01*
X159726286Y-126134857D01*
X159726286Y-126230095D01*
X159678667Y-126325333D01*
X159631048Y-126372952D01*
X159535810Y-126420571D01*
X159202476Y-126420571D01*
X160726286Y-126944381D02*
X160154857Y-126944381D01*
X160440571Y-126944381D02*
X160440571Y-125944381D01*
X160345333Y-126087238D01*
X160250095Y-126182476D01*
X160154857Y-126230095D01*
X178141334Y-107132381D02*
X177665143Y-107132381D01*
X177665143Y-106132381D01*
X178427048Y-106227619D02*
X178474667Y-106180000D01*
X178569905Y-106132381D01*
X178808001Y-106132381D01*
X178903239Y-106180000D01*
X178950858Y-106227619D01*
X178998477Y-106322857D01*
X178998477Y-106418095D01*
X178950858Y-106560952D01*
X178379429Y-107132381D01*
X178998477Y-107132381D01*
D13*
X183696429Y-129775857D02*
X182172429Y-129775857D01*
X182172429Y-129195285D01*
X182245000Y-129050143D01*
X182317571Y-128977571D01*
X182462714Y-128905000D01*
X182680429Y-128905000D01*
X182825571Y-128977571D01*
X182898143Y-129050143D01*
X182970714Y-129195285D01*
X182970714Y-129775857D01*
X182172429Y-127598714D02*
X182172429Y-127889000D01*
X182245000Y-128034143D01*
X182317571Y-128106714D01*
X182535286Y-128251857D01*
X182825571Y-128324428D01*
X183406143Y-128324428D01*
X183551286Y-128251857D01*
X183623857Y-128179285D01*
X183696429Y-128034143D01*
X183696429Y-127743857D01*
X183623857Y-127598714D01*
X183551286Y-127526143D01*
X183406143Y-127453571D01*
X183043286Y-127453571D01*
X182898143Y-127526143D01*
X182825571Y-127598714D01*
X182753000Y-127743857D01*
X182753000Y-128034143D01*
X182825571Y-128179285D01*
X182898143Y-128251857D01*
X183043286Y-128324428D01*
D11*
X140295334Y-108148381D02*
X139962000Y-107672190D01*
X139723905Y-108148381D02*
X139723905Y-107148381D01*
X140104858Y-107148381D01*
X140200096Y-107196000D01*
X140247715Y-107243619D01*
X140295334Y-107338857D01*
X140295334Y-107481714D01*
X140247715Y-107576952D01*
X140200096Y-107624571D01*
X140104858Y-107672190D01*
X139723905Y-107672190D01*
X141247715Y-108148381D02*
X140676286Y-108148381D01*
X140962000Y-108148381D02*
X140962000Y-107148381D01*
X140866762Y-107291238D01*
X140771524Y-107386476D01*
X140676286Y-107434095D01*
X171508681Y-111517726D02*
X171032490Y-111851060D01*
X171508681Y-112089155D02*
X170508681Y-112089155D01*
X170508681Y-111708202D01*
X170556300Y-111612964D01*
X170603919Y-111565345D01*
X170699157Y-111517726D01*
X170842014Y-111517726D01*
X170937252Y-111565345D01*
X170984871Y-111612964D01*
X171032490Y-111708202D01*
X171032490Y-112089155D01*
X170603919Y-111136774D02*
X170556300Y-111089155D01*
X170508681Y-110993917D01*
X170508681Y-110755821D01*
X170556300Y-110660583D01*
X170603919Y-110612964D01*
X170699157Y-110565345D01*
X170794395Y-110565345D01*
X170937252Y-110612964D01*
X171508681Y-111184393D01*
X171508681Y-110565345D01*
X163409334Y-121000781D02*
X163076000Y-120524590D01*
X162837905Y-121000781D02*
X162837905Y-120000781D01*
X163218858Y-120000781D01*
X163314096Y-120048400D01*
X163361715Y-120096019D01*
X163409334Y-120191257D01*
X163409334Y-120334114D01*
X163361715Y-120429352D01*
X163314096Y-120476971D01*
X163218858Y-120524590D01*
X162837905Y-120524590D01*
X163742667Y-120000781D02*
X164361715Y-120000781D01*
X164028381Y-120381733D01*
X164171239Y-120381733D01*
X164266477Y-120429352D01*
X164314096Y-120476971D01*
X164361715Y-120572210D01*
X164361715Y-120810305D01*
X164314096Y-120905543D01*
X164266477Y-120953162D01*
X164171239Y-121000781D01*
X163885524Y-121000781D01*
X163790286Y-120953162D01*
X163742667Y-120905543D01*
X161081981Y-112891866D02*
X160605790Y-113225200D01*
X161081981Y-113463295D02*
X160081981Y-113463295D01*
X160081981Y-113082342D01*
X160129600Y-112987104D01*
X160177219Y-112939485D01*
X160272457Y-112891866D01*
X160415314Y-112891866D01*
X160510552Y-112939485D01*
X160558171Y-112987104D01*
X160605790Y-113082342D01*
X160605790Y-113463295D01*
X160415314Y-112034723D02*
X161081981Y-112034723D01*
X160034362Y-112272819D02*
X160748648Y-112510914D01*
X160748648Y-111891866D01*
X187256681Y-94245726D02*
X186780490Y-94579060D01*
X187256681Y-94817155D02*
X186256681Y-94817155D01*
X186256681Y-94436202D01*
X186304300Y-94340964D01*
X186351919Y-94293345D01*
X186447157Y-94245726D01*
X186590014Y-94245726D01*
X186685252Y-94293345D01*
X186732871Y-94340964D01*
X186780490Y-94436202D01*
X186780490Y-94817155D01*
X186256681Y-93340964D02*
X186256681Y-93817155D01*
X186732871Y-93864774D01*
X186685252Y-93817155D01*
X186637633Y-93721917D01*
X186637633Y-93483821D01*
X186685252Y-93388583D01*
X186732871Y-93340964D01*
X186828110Y-93293345D01*
X187066205Y-93293345D01*
X187161443Y-93340964D01*
X187209062Y-93388583D01*
X187256681Y-93483821D01*
X187256681Y-93721917D01*
X187209062Y-93817155D01*
X187161443Y-93864774D01*
X126791981Y-93384666D02*
X126315790Y-93718000D01*
X126791981Y-93956095D02*
X125791981Y-93956095D01*
X125791981Y-93575142D01*
X125839600Y-93479904D01*
X125887219Y-93432285D01*
X125982457Y-93384666D01*
X126125314Y-93384666D01*
X126220552Y-93432285D01*
X126268171Y-93479904D01*
X126315790Y-93575142D01*
X126315790Y-93956095D01*
X125791981Y-92527523D02*
X125791981Y-92718000D01*
X125839600Y-92813238D01*
X125887219Y-92860857D01*
X126030076Y-92956095D01*
X126220552Y-93003714D01*
X126601505Y-93003714D01*
X126696743Y-92956095D01*
X126744362Y-92908476D01*
X126791981Y-92813238D01*
X126791981Y-92622761D01*
X126744362Y-92527523D01*
X126696743Y-92479904D01*
X126601505Y-92432285D01*
X126363410Y-92432285D01*
X126268171Y-92479904D01*
X126220552Y-92527523D01*
X126172933Y-92622761D01*
X126172933Y-92813238D01*
X126220552Y-92908476D01*
X126268171Y-92956095D01*
X126363410Y-93003714D01*
X123134381Y-93638666D02*
X122658190Y-93972000D01*
X123134381Y-94210095D02*
X122134381Y-94210095D01*
X122134381Y-93829142D01*
X122182000Y-93733904D01*
X122229619Y-93686285D01*
X122324857Y-93638666D01*
X122467714Y-93638666D01*
X122562952Y-93686285D01*
X122610571Y-93733904D01*
X122658190Y-93829142D01*
X122658190Y-94210095D01*
X122134381Y-93305333D02*
X122134381Y-92638666D01*
X123134381Y-93067238D01*
X108545381Y-88264905D02*
X109354905Y-88264905D01*
X109450143Y-88217286D01*
X109497762Y-88169667D01*
X109545381Y-88074429D01*
X109545381Y-87883952D01*
X109497762Y-87788714D01*
X109450143Y-87741095D01*
X109354905Y-87693476D01*
X108545381Y-87693476D01*
X108545381Y-86741095D02*
X108545381Y-87217286D01*
X109021571Y-87264905D01*
X108973952Y-87217286D01*
X108926333Y-87122048D01*
X108926333Y-86883952D01*
X108973952Y-86788714D01*
X109021571Y-86741095D01*
X109116810Y-86693476D01*
X109354905Y-86693476D01*
X109450143Y-86741095D01*
X109497762Y-86788714D01*
X109545381Y-86883952D01*
X109545381Y-87122048D01*
X109497762Y-87217286D01*
X109450143Y-87264905D01*
X108545381Y-99440905D02*
X109354905Y-99440905D01*
X109450143Y-99393286D01*
X109497762Y-99345667D01*
X109545381Y-99250429D01*
X109545381Y-99059952D01*
X109497762Y-98964714D01*
X109450143Y-98917095D01*
X109354905Y-98869476D01*
X108545381Y-98869476D01*
X109545381Y-97869476D02*
X109545381Y-98440905D01*
X109545381Y-98155191D02*
X108545381Y-98155191D01*
X108688238Y-98250429D01*
X108783476Y-98345667D01*
X108831095Y-98440905D01*
X153463667Y-116038381D02*
X153463667Y-116752667D01*
X153416047Y-116895524D01*
X153320809Y-116990762D01*
X153177952Y-117038381D01*
X153082714Y-117038381D01*
X154463667Y-117038381D02*
X153892238Y-117038381D01*
X154177952Y-117038381D02*
X154177952Y-116038381D01*
X154082714Y-116181238D01*
X153987476Y-116276476D01*
X153892238Y-116324095D01*
X168933905Y-86355181D02*
X168933905Y-85355181D01*
X169314858Y-85355181D01*
X169410096Y-85402800D01*
X169457715Y-85450419D01*
X169505334Y-85545657D01*
X169505334Y-85688514D01*
X169457715Y-85783752D01*
X169410096Y-85831371D01*
X169314858Y-85878990D01*
X168933905Y-85878990D01*
X169886286Y-85450419D02*
X169933905Y-85402800D01*
X170029143Y-85355181D01*
X170267239Y-85355181D01*
X170362477Y-85402800D01*
X170410096Y-85450419D01*
X170457715Y-85545657D01*
X170457715Y-85640895D01*
X170410096Y-85783752D01*
X169838667Y-86355181D01*
X170457715Y-86355181D01*
X133119905Y-79547981D02*
X133119905Y-78547981D01*
X133500858Y-78547981D01*
X133596096Y-78595600D01*
X133643715Y-78643219D01*
X133691334Y-78738457D01*
X133691334Y-78881314D01*
X133643715Y-78976552D01*
X133596096Y-79024171D01*
X133500858Y-79071790D01*
X133119905Y-79071790D01*
X134024667Y-78547981D02*
X134643715Y-78547981D01*
X134310381Y-78928933D01*
X134453239Y-78928933D01*
X134548477Y-78976552D01*
X134596096Y-79024171D01*
X134643715Y-79119410D01*
X134643715Y-79357505D01*
X134596096Y-79452743D01*
X134548477Y-79500362D01*
X134453239Y-79547981D01*
X134167524Y-79547981D01*
X134072286Y-79500362D01*
X134024667Y-79452743D01*
X129817905Y-121864381D02*
X129817905Y-120864381D01*
X130198858Y-120864381D01*
X130294096Y-120912000D01*
X130341715Y-120959619D01*
X130389334Y-121054857D01*
X130389334Y-121197714D01*
X130341715Y-121292952D01*
X130294096Y-121340571D01*
X130198858Y-121388190D01*
X129817905Y-121388190D01*
X131246477Y-121197714D02*
X131246477Y-121864381D01*
X131008381Y-120816762D02*
X130770286Y-121531048D01*
X131389334Y-121531048D01*
X123721905Y-79446381D02*
X123721905Y-78446381D01*
X124102858Y-78446381D01*
X124198096Y-78494000D01*
X124245715Y-78541619D01*
X124293334Y-78636857D01*
X124293334Y-78779714D01*
X124245715Y-78874952D01*
X124198096Y-78922571D01*
X124102858Y-78970190D01*
X123721905Y-78970190D01*
X125198096Y-78446381D02*
X124721905Y-78446381D01*
X124674286Y-78922571D01*
X124721905Y-78874952D01*
X124817143Y-78827333D01*
X125055239Y-78827333D01*
X125150477Y-78874952D01*
X125198096Y-78922571D01*
X125245715Y-79017810D01*
X125245715Y-79255905D01*
X125198096Y-79351143D01*
X125150477Y-79398762D01*
X125055239Y-79446381D01*
X124817143Y-79446381D01*
X124721905Y-79398762D01*
X124674286Y-79351143D01*
X175712381Y-85812238D02*
X175236190Y-86145572D01*
X175712381Y-86383667D02*
X174712381Y-86383667D01*
X174712381Y-86002714D01*
X174760000Y-85907476D01*
X174807619Y-85859857D01*
X174902857Y-85812238D01*
X175045714Y-85812238D01*
X175140952Y-85859857D01*
X175188571Y-85907476D01*
X175236190Y-86002714D01*
X175236190Y-86383667D01*
X174712381Y-85526524D02*
X175712381Y-85193191D01*
X174712381Y-84859857D01*
X175712381Y-84002714D02*
X175712381Y-84574143D01*
X175712381Y-84288429D02*
X174712381Y-84288429D01*
X174855238Y-84383667D01*
X174950476Y-84478905D01*
X174998095Y-84574143D01*
X175839381Y-102703238D02*
X175363190Y-103036572D01*
X175839381Y-103274667D02*
X174839381Y-103274667D01*
X174839381Y-102893714D01*
X174887000Y-102798476D01*
X174934619Y-102750857D01*
X175029857Y-102703238D01*
X175172714Y-102703238D01*
X175267952Y-102750857D01*
X175315571Y-102798476D01*
X175363190Y-102893714D01*
X175363190Y-103274667D01*
X174839381Y-102417524D02*
X175839381Y-102084191D01*
X174839381Y-101750857D01*
X174934619Y-101465143D02*
X174887000Y-101417524D01*
X174839381Y-101322286D01*
X174839381Y-101084190D01*
X174887000Y-100988952D01*
X174934619Y-100941333D01*
X175029857Y-100893714D01*
X175125095Y-100893714D01*
X175267952Y-100941333D01*
X175839381Y-101512762D01*
X175839381Y-100893714D01*
X120800905Y-121864381D02*
X120800905Y-120864381D01*
X121181858Y-120864381D01*
X121277096Y-120912000D01*
X121324715Y-120959619D01*
X121372334Y-121054857D01*
X121372334Y-121197714D01*
X121324715Y-121292952D01*
X121277096Y-121340571D01*
X121181858Y-121388190D01*
X120800905Y-121388190D01*
X122324715Y-121864381D02*
X121753286Y-121864381D01*
X122039000Y-121864381D02*
X122039000Y-120864381D01*
X121943762Y-121007238D01*
X121848524Y-121102476D01*
X121753286Y-121150095D01*
X182935667Y-81716571D02*
X182602333Y-81716571D01*
X182602333Y-82240381D02*
X182602333Y-81240381D01*
X183078524Y-81240381D01*
X183459476Y-82240381D02*
X183459476Y-81240381D01*
X183697571Y-81240381D01*
X183840429Y-81288000D01*
X183935667Y-81383238D01*
X183983286Y-81478476D01*
X184030905Y-81668952D01*
X184030905Y-81811810D01*
X183983286Y-82002286D01*
X183935667Y-82097524D01*
X183840429Y-82192762D01*
X183697571Y-82240381D01*
X183459476Y-82240381D01*
X184411857Y-81335619D02*
X184459476Y-81288000D01*
X184554714Y-81240381D01*
X184792810Y-81240381D01*
X184888048Y-81288000D01*
X184935667Y-81335619D01*
X184983286Y-81430857D01*
X184983286Y-81526095D01*
X184935667Y-81668952D01*
X184364238Y-82240381D01*
X184983286Y-82240381D01*
X112802667Y-122802571D02*
X112469333Y-122802571D01*
X112469333Y-123326381D02*
X112469333Y-122326381D01*
X112945524Y-122326381D01*
X113326476Y-123326381D02*
X113326476Y-122326381D01*
X113564571Y-122326381D01*
X113707429Y-122374000D01*
X113802667Y-122469238D01*
X113850286Y-122564476D01*
X113897905Y-122754952D01*
X113897905Y-122897810D01*
X113850286Y-123088286D01*
X113802667Y-123183524D01*
X113707429Y-123278762D01*
X113564571Y-123326381D01*
X113326476Y-123326381D01*
X114850286Y-123326381D02*
X114278857Y-123326381D01*
X114564571Y-123326381D02*
X114564571Y-122326381D01*
X114469333Y-122469238D01*
X114374095Y-122564476D01*
X114278857Y-122612095D01*
M02*
