G04 #@! TF.FileFunction,Other,User*
%FSLAX46Y46*%
G04 Gerber Fmt 4.6, Leading zero omitted, Abs format (unit mm)*
G04 Created by KiCad (PCBNEW 4.0.2-stable) date 29/08/2016 23:52:40*
%MOMM*%
G01*
G04 APERTURE LIST*
%ADD10C,0.100000*%
%ADD11C,0.050000*%
G04 APERTURE END LIST*
D10*
D11*
X138928000Y-86096000D02*
X138928000Y-103896000D01*
X156728000Y-86096000D02*
X156728000Y-103896000D01*
X138928000Y-86096000D02*
X156728000Y-86096000D01*
X138928000Y-103896000D02*
X156728000Y-103896000D01*
X132066000Y-85360000D02*
X136666000Y-85360000D01*
X132066000Y-87360000D02*
X136666000Y-87360000D01*
X132066000Y-85360000D02*
X132066000Y-87360000D01*
X136666000Y-85360000D02*
X136666000Y-87360000D01*
X127240000Y-100346000D02*
X131840000Y-100346000D01*
X127240000Y-102346000D02*
X131840000Y-102346000D01*
X127240000Y-100346000D02*
X127240000Y-102346000D01*
X131840000Y-100346000D02*
X131840000Y-102346000D01*
X127240000Y-103648000D02*
X131840000Y-103648000D01*
X127240000Y-105648000D02*
X131840000Y-105648000D01*
X127240000Y-103648000D02*
X127240000Y-105648000D01*
X131840000Y-103648000D02*
X131840000Y-105648000D01*
X127240000Y-106950000D02*
X131840000Y-106950000D01*
X127240000Y-108950000D02*
X131840000Y-108950000D01*
X127240000Y-106950000D02*
X127240000Y-108950000D01*
X131840000Y-106950000D02*
X131840000Y-108950000D01*
X184887200Y-78943200D02*
G75*
G03X184887200Y-78943200I-1550000J0D01*
G01*
X111938400Y-121310400D02*
G75*
G03X111938400Y-121310400I-1550000J0D01*
G01*
M02*
