G04 #@! TF.FileFunction,Other,User*
%FSLAX46Y46*%
G04 Gerber Fmt 4.6, Leading zero omitted, Abs format (unit mm)*
G04 Created by KiCad (PCBNEW 4.0.2-stable) date 25/08/2016 11:49:55*
%MOMM*%
G01*
G04 APERTURE LIST*
%ADD10C,0.100000*%
%ADD11C,0.050000*%
G04 APERTURE END LIST*
D10*
D11*
X138928000Y-86096000D02*
X138928000Y-103896000D01*
X156728000Y-86096000D02*
X156728000Y-103896000D01*
X138928000Y-86096000D02*
X156728000Y-86096000D01*
X138928000Y-103896000D02*
X156728000Y-103896000D01*
X132066000Y-85360000D02*
X136666000Y-85360000D01*
X132066000Y-87360000D02*
X136666000Y-87360000D01*
X132066000Y-85360000D02*
X132066000Y-87360000D01*
X136666000Y-85360000D02*
X136666000Y-87360000D01*
X127113000Y-100346000D02*
X131713000Y-100346000D01*
X127113000Y-102346000D02*
X131713000Y-102346000D01*
X127113000Y-100346000D02*
X127113000Y-102346000D01*
X131713000Y-100346000D02*
X131713000Y-102346000D01*
X127113000Y-102505000D02*
X131713000Y-102505000D01*
X127113000Y-104505000D02*
X131713000Y-104505000D01*
X127113000Y-102505000D02*
X127113000Y-104505000D01*
X131713000Y-102505000D02*
X131713000Y-104505000D01*
X127240000Y-106696000D02*
X131840000Y-106696000D01*
X127240000Y-108696000D02*
X131840000Y-108696000D01*
X127240000Y-106696000D02*
X127240000Y-108696000D01*
X131840000Y-106696000D02*
X131840000Y-108696000D01*
X179858000Y-79451200D02*
G75*
G03X179858000Y-79451200I-1550000J0D01*
G01*
X113411600Y-118414800D02*
G75*
G03X113411600Y-118414800I-1550000J0D01*
G01*
M02*
