G04 #@! TF.FileFunction,Other,Fab,Top*
%FSLAX46Y46*%
G04 Gerber Fmt 4.6, Leading zero omitted, Abs format (unit mm)*
G04 Created by KiCad (PCBNEW 4.0.2-stable) date 25/08/2016 11:49:55*
%MOMM*%
G01*
G04 APERTURE LIST*
%ADD10C,0.100000*%
%ADD11C,0.200000*%
%ADD12C,0.150000*%
G04 APERTURE END LIST*
D10*
D11*
X142137000Y-117990000D02*
X140867000Y-116720000D01*
X140867000Y-116720000D02*
X140867000Y-114790000D01*
X140867000Y-114790000D02*
X152617000Y-114790000D01*
X152617000Y-114790000D02*
X152617000Y-117990000D01*
X152617000Y-117990000D02*
X142137000Y-117990000D01*
X130453000Y-83319000D02*
X129183000Y-82049000D01*
X129183000Y-82049000D02*
X129183000Y-80119000D01*
X129183000Y-80119000D02*
X138433000Y-80119000D01*
X138433000Y-80119000D02*
X138433000Y-83319000D01*
X138433000Y-83319000D02*
X130453000Y-83319000D01*
X131294000Y-117214000D02*
X132564000Y-118484000D01*
X132564000Y-118484000D02*
X132564000Y-120414000D01*
X132564000Y-120414000D02*
X128314000Y-120414000D01*
X128314000Y-120414000D02*
X128314000Y-117214000D01*
X128314000Y-117214000D02*
X131294000Y-117214000D01*
X123849000Y-83192000D02*
X122579000Y-81922000D01*
X122579000Y-81922000D02*
X122579000Y-79992000D01*
X122579000Y-79992000D02*
X126829000Y-79992000D01*
X126829000Y-79992000D02*
X126829000Y-83192000D01*
X126829000Y-83192000D02*
X123849000Y-83192000D01*
X177426000Y-91162000D02*
X176156000Y-92432000D01*
X176156000Y-92432000D02*
X174226000Y-92432000D01*
X174226000Y-92432000D02*
X174226000Y-86932000D01*
X174226000Y-86932000D02*
X177426000Y-86932000D01*
X177426000Y-86932000D02*
X177426000Y-91162000D01*
X177426000Y-99290000D02*
X176156000Y-100560000D01*
X176156000Y-100560000D02*
X174226000Y-100560000D01*
X174226000Y-100560000D02*
X174226000Y-95060000D01*
X174226000Y-95060000D02*
X177426000Y-95060000D01*
X177426000Y-95060000D02*
X177426000Y-99290000D01*
X122150000Y-117214000D02*
X123420000Y-118484000D01*
X123420000Y-118484000D02*
X123420000Y-120414000D01*
X123420000Y-120414000D02*
X119170000Y-120414000D01*
X119170000Y-120414000D02*
X119170000Y-117214000D01*
X119170000Y-117214000D02*
X122150000Y-117214000D01*
D12*
X143980095Y-113042381D02*
X144551524Y-113042381D01*
X144265809Y-114042381D02*
X144265809Y-113042381D01*
X145265810Y-113994762D02*
X145170572Y-114042381D01*
X144980095Y-114042381D01*
X144884857Y-113994762D01*
X144837238Y-113899524D01*
X144837238Y-113518571D01*
X144884857Y-113423333D01*
X144980095Y-113375714D01*
X145170572Y-113375714D01*
X145265810Y-113423333D01*
X145313429Y-113518571D01*
X145313429Y-113613810D01*
X144837238Y-113709048D01*
X146170572Y-113994762D02*
X146075334Y-114042381D01*
X145884857Y-114042381D01*
X145789619Y-113994762D01*
X145742000Y-113947143D01*
X145694381Y-113851905D01*
X145694381Y-113566190D01*
X145742000Y-113470952D01*
X145789619Y-113423333D01*
X145884857Y-113375714D01*
X146075334Y-113375714D01*
X146170572Y-113423333D01*
X146742000Y-114042381D02*
X146646762Y-113994762D01*
X146599143Y-113899524D01*
X146599143Y-113042381D01*
X147551525Y-114042381D02*
X147551525Y-113518571D01*
X147503906Y-113423333D01*
X147408668Y-113375714D01*
X147218191Y-113375714D01*
X147122953Y-113423333D01*
X147551525Y-113994762D02*
X147456287Y-114042381D01*
X147218191Y-114042381D01*
X147122953Y-113994762D01*
X147075334Y-113899524D01*
X147075334Y-113804286D01*
X147122953Y-113709048D01*
X147218191Y-113661429D01*
X147456287Y-113661429D01*
X147551525Y-113613810D01*
X148456287Y-114042381D02*
X148456287Y-113042381D01*
X148456287Y-113994762D02*
X148361049Y-114042381D01*
X148170572Y-114042381D01*
X148075334Y-113994762D01*
X148027715Y-113947143D01*
X147980096Y-113851905D01*
X147980096Y-113566190D01*
X148027715Y-113470952D01*
X148075334Y-113423333D01*
X148170572Y-113375714D01*
X148361049Y-113375714D01*
X148456287Y-113423333D01*
X149075334Y-114042381D02*
X148980096Y-113994762D01*
X148932477Y-113947143D01*
X148884858Y-113851905D01*
X148884858Y-113566190D01*
X148932477Y-113470952D01*
X148980096Y-113423333D01*
X149075334Y-113375714D01*
X149218192Y-113375714D01*
X149313430Y-113423333D01*
X149361049Y-113470952D01*
X149408668Y-113566190D01*
X149408668Y-113851905D01*
X149361049Y-113947143D01*
X149313430Y-113994762D01*
X149218192Y-114042381D01*
X149075334Y-114042381D01*
X120942095Y-78958667D02*
X121418286Y-78958667D01*
X120846857Y-79244381D02*
X121180190Y-78244381D01*
X121513524Y-79244381D01*
X121846857Y-79244381D02*
X121846857Y-78244381D01*
X122418286Y-79244381D01*
X122418286Y-78244381D01*
X122846857Y-78958667D02*
X123323048Y-78958667D01*
X122751619Y-79244381D02*
X123084952Y-78244381D01*
X123418286Y-79244381D01*
X124227810Y-79244381D02*
X123751619Y-79244381D01*
X123751619Y-78244381D01*
X124751619Y-78244381D02*
X124942096Y-78244381D01*
X125037334Y-78292000D01*
X125132572Y-78387238D01*
X125180191Y-78577714D01*
X125180191Y-78911048D01*
X125132572Y-79101524D01*
X125037334Y-79196762D01*
X124942096Y-79244381D01*
X124751619Y-79244381D01*
X124656381Y-79196762D01*
X124561143Y-79101524D01*
X124513524Y-78911048D01*
X124513524Y-78577714D01*
X124561143Y-78387238D01*
X124656381Y-78292000D01*
X124751619Y-78244381D01*
X126132572Y-78292000D02*
X126037334Y-78244381D01*
X125894477Y-78244381D01*
X125751619Y-78292000D01*
X125656381Y-78387238D01*
X125608762Y-78482476D01*
X125561143Y-78672952D01*
X125561143Y-78815810D01*
X125608762Y-79006286D01*
X125656381Y-79101524D01*
X125751619Y-79196762D01*
X125894477Y-79244381D01*
X125989715Y-79244381D01*
X126132572Y-79196762D01*
X126180191Y-79149143D01*
X126180191Y-78815810D01*
X125989715Y-78815810D01*
X126370667Y-79339619D02*
X127132572Y-79339619D01*
X127370667Y-79244381D02*
X127370667Y-78244381D01*
X127846857Y-79244381D02*
X127846857Y-78244381D01*
X128418286Y-79244381D01*
X128418286Y-78244381D01*
X156212190Y-101658971D02*
X155878856Y-101658971D01*
X155878856Y-102182781D02*
X155878856Y-101182781D01*
X156355047Y-101182781D01*
X156735999Y-102182781D02*
X156735999Y-101516114D01*
X156735999Y-101182781D02*
X156688380Y-101230400D01*
X156735999Y-101278019D01*
X156783618Y-101230400D01*
X156735999Y-101182781D01*
X156735999Y-101278019D01*
X157640761Y-102182781D02*
X157640761Y-101182781D01*
X157640761Y-102135162D02*
X157545523Y-102182781D01*
X157355046Y-102182781D01*
X157259808Y-102135162D01*
X157212189Y-102087543D01*
X157164570Y-101992305D01*
X157164570Y-101706590D01*
X157212189Y-101611352D01*
X157259808Y-101563733D01*
X157355046Y-101516114D01*
X157545523Y-101516114D01*
X157640761Y-101563733D01*
X158545523Y-101516114D02*
X158545523Y-102182781D01*
X158116951Y-101516114D02*
X158116951Y-102039924D01*
X158164570Y-102135162D01*
X158259808Y-102182781D01*
X158402666Y-102182781D01*
X158497904Y-102135162D01*
X158545523Y-102087543D01*
X159450285Y-102135162D02*
X159355047Y-102182781D01*
X159164570Y-102182781D01*
X159069332Y-102135162D01*
X159021713Y-102087543D01*
X158974094Y-101992305D01*
X158974094Y-101706590D01*
X159021713Y-101611352D01*
X159069332Y-101563733D01*
X159164570Y-101516114D01*
X159355047Y-101516114D01*
X159450285Y-101563733D01*
X159878856Y-102182781D02*
X159878856Y-101516114D01*
X159878856Y-101182781D02*
X159831237Y-101230400D01*
X159878856Y-101278019D01*
X159926475Y-101230400D01*
X159878856Y-101182781D01*
X159878856Y-101278019D01*
X160783618Y-102182781D02*
X160783618Y-101658971D01*
X160735999Y-101563733D01*
X160640761Y-101516114D01*
X160450284Y-101516114D01*
X160355046Y-101563733D01*
X160783618Y-102135162D02*
X160688380Y-102182781D01*
X160450284Y-102182781D01*
X160355046Y-102135162D01*
X160307427Y-102039924D01*
X160307427Y-101944686D01*
X160355046Y-101849448D01*
X160450284Y-101801829D01*
X160688380Y-101801829D01*
X160783618Y-101754210D01*
X161402665Y-102182781D02*
X161307427Y-102135162D01*
X161259808Y-102039924D01*
X161259808Y-101182781D01*
X161545523Y-102278019D02*
X162307428Y-102278019D01*
X163069333Y-102182781D02*
X162497904Y-102182781D01*
X162783618Y-102182781D02*
X162783618Y-101182781D01*
X162688380Y-101325638D01*
X162593142Y-101420876D01*
X162497904Y-101468495D01*
X163497904Y-102182781D02*
X163497904Y-101516114D01*
X163497904Y-101611352D02*
X163545523Y-101563733D01*
X163640761Y-101516114D01*
X163783619Y-101516114D01*
X163878857Y-101563733D01*
X163926476Y-101658971D01*
X163926476Y-102182781D01*
X163926476Y-101658971D02*
X163974095Y-101563733D01*
X164069333Y-101516114D01*
X164212190Y-101516114D01*
X164307428Y-101563733D01*
X164355047Y-101658971D01*
X164355047Y-102182781D01*
X164831237Y-102182781D02*
X164831237Y-101516114D01*
X164831237Y-101611352D02*
X164878856Y-101563733D01*
X164974094Y-101516114D01*
X165116952Y-101516114D01*
X165212190Y-101563733D01*
X165259809Y-101658971D01*
X165259809Y-102182781D01*
X165259809Y-101658971D02*
X165307428Y-101563733D01*
X165402666Y-101516114D01*
X165545523Y-101516114D01*
X165640761Y-101563733D01*
X165688380Y-101658971D01*
X165688380Y-102182781D01*
X165926475Y-102278019D02*
X166688380Y-102278019D01*
X166926475Y-102182781D02*
X166926475Y-101182781D01*
X167164570Y-101182781D01*
X167307428Y-101230400D01*
X167402666Y-101325638D01*
X167450285Y-101420876D01*
X167497904Y-101611352D01*
X167497904Y-101754210D01*
X167450285Y-101944686D01*
X167402666Y-102039924D01*
X167307428Y-102135162D01*
X167164570Y-102182781D01*
X166926475Y-102182781D01*
X167926475Y-102182781D02*
X167926475Y-101516114D01*
X167926475Y-101182781D02*
X167878856Y-101230400D01*
X167926475Y-101278019D01*
X167974094Y-101230400D01*
X167926475Y-101182781D01*
X167926475Y-101278019D01*
X168831237Y-102182781D02*
X168831237Y-101658971D01*
X168783618Y-101563733D01*
X168688380Y-101516114D01*
X168497903Y-101516114D01*
X168402665Y-101563733D01*
X168831237Y-102135162D02*
X168735999Y-102182781D01*
X168497903Y-102182781D01*
X168402665Y-102135162D01*
X168355046Y-102039924D01*
X168355046Y-101944686D01*
X168402665Y-101849448D01*
X168497903Y-101801829D01*
X168735999Y-101801829D01*
X168831237Y-101754210D01*
X169069332Y-102278019D02*
X169831237Y-102278019D01*
X170021713Y-101278019D02*
X170069332Y-101230400D01*
X170164570Y-101182781D01*
X170402666Y-101182781D01*
X170497904Y-101230400D01*
X170545523Y-101278019D01*
X170593142Y-101373257D01*
X170593142Y-101468495D01*
X170545523Y-101611352D01*
X169974094Y-102182781D01*
X170593142Y-102182781D01*
X171021713Y-102087543D02*
X171069332Y-102135162D01*
X171021713Y-102182781D01*
X170974094Y-102135162D01*
X171021713Y-102087543D01*
X171021713Y-102182781D01*
X171974094Y-101182781D02*
X171497903Y-101182781D01*
X171450284Y-101658971D01*
X171497903Y-101611352D01*
X171593141Y-101563733D01*
X171831237Y-101563733D01*
X171926475Y-101611352D01*
X171974094Y-101658971D01*
X172021713Y-101754210D01*
X172021713Y-101992305D01*
X171974094Y-102087543D01*
X171926475Y-102135162D01*
X171831237Y-102182781D01*
X171593141Y-102182781D01*
X171497903Y-102135162D01*
X171450284Y-102087543D01*
X172878856Y-101516114D02*
X172878856Y-102182781D01*
X172640760Y-101135162D02*
X172402665Y-101849448D01*
X173021713Y-101849448D01*
X173402665Y-102182781D02*
X173402665Y-101516114D01*
X173402665Y-101611352D02*
X173450284Y-101563733D01*
X173545522Y-101516114D01*
X173688380Y-101516114D01*
X173783618Y-101563733D01*
X173831237Y-101658971D01*
X173831237Y-102182781D01*
X173831237Y-101658971D02*
X173878856Y-101563733D01*
X173974094Y-101516114D01*
X174116951Y-101516114D01*
X174212189Y-101563733D01*
X174259808Y-101658971D01*
X174259808Y-102182781D01*
X174735998Y-102182781D02*
X174735998Y-101516114D01*
X174735998Y-101611352D02*
X174783617Y-101563733D01*
X174878855Y-101516114D01*
X175021713Y-101516114D01*
X175116951Y-101563733D01*
X175164570Y-101658971D01*
X175164570Y-102182781D01*
X175164570Y-101658971D02*
X175212189Y-101563733D01*
X175307427Y-101516114D01*
X175450284Y-101516114D01*
X175545522Y-101563733D01*
X175593141Y-101658971D01*
X175593141Y-102182781D01*
X175831236Y-102278019D02*
X176593141Y-102278019D01*
X177021712Y-101182781D02*
X177212189Y-101182781D01*
X177307427Y-101230400D01*
X177402665Y-101325638D01*
X177450284Y-101516114D01*
X177450284Y-101849448D01*
X177402665Y-102039924D01*
X177307427Y-102135162D01*
X177212189Y-102182781D01*
X177021712Y-102182781D01*
X176926474Y-102135162D01*
X176831236Y-102039924D01*
X176783617Y-101849448D01*
X176783617Y-101516114D01*
X176831236Y-101325638D01*
X176926474Y-101230400D01*
X177021712Y-101182781D01*
X178307427Y-101516114D02*
X178307427Y-102182781D01*
X177878855Y-101516114D02*
X177878855Y-102039924D01*
X177926474Y-102135162D01*
X178021712Y-102182781D01*
X178164570Y-102182781D01*
X178259808Y-102135162D01*
X178307427Y-102087543D01*
X178640760Y-101516114D02*
X179021712Y-101516114D01*
X178783617Y-101182781D02*
X178783617Y-102039924D01*
X178831236Y-102135162D01*
X178926474Y-102182781D01*
X179021712Y-102182781D01*
X179735999Y-102135162D02*
X179640761Y-102182781D01*
X179450284Y-102182781D01*
X179355046Y-102135162D01*
X179307427Y-102039924D01*
X179307427Y-101658971D01*
X179355046Y-101563733D01*
X179450284Y-101516114D01*
X179640761Y-101516114D01*
X179735999Y-101563733D01*
X179783618Y-101658971D01*
X179783618Y-101754210D01*
X179307427Y-101849448D01*
X180212189Y-102182781D02*
X180212189Y-101516114D01*
X180212189Y-101706590D02*
X180259808Y-101611352D01*
X180307427Y-101563733D01*
X180402665Y-101516114D01*
X180497904Y-101516114D01*
X180593142Y-102278019D02*
X181355047Y-102278019D01*
X182164571Y-102087543D02*
X182116952Y-102135162D01*
X181974095Y-102182781D01*
X181878857Y-102182781D01*
X181735999Y-102135162D01*
X181640761Y-102039924D01*
X181593142Y-101944686D01*
X181545523Y-101754210D01*
X181545523Y-101611352D01*
X181593142Y-101420876D01*
X181640761Y-101325638D01*
X181735999Y-101230400D01*
X181878857Y-101182781D01*
X181974095Y-101182781D01*
X182116952Y-101230400D01*
X182164571Y-101278019D01*
X182735999Y-102182781D02*
X182640761Y-102135162D01*
X182593142Y-102087543D01*
X182545523Y-101992305D01*
X182545523Y-101706590D01*
X182593142Y-101611352D01*
X182640761Y-101563733D01*
X182735999Y-101516114D01*
X182878857Y-101516114D01*
X182974095Y-101563733D01*
X183021714Y-101611352D01*
X183069333Y-101706590D01*
X183069333Y-101992305D01*
X183021714Y-102087543D01*
X182974095Y-102135162D01*
X182878857Y-102182781D01*
X182735999Y-102182781D01*
X183497904Y-101516114D02*
X183497904Y-102516114D01*
X183497904Y-101563733D02*
X183593142Y-101516114D01*
X183783619Y-101516114D01*
X183878857Y-101563733D01*
X183926476Y-101611352D01*
X183974095Y-101706590D01*
X183974095Y-101992305D01*
X183926476Y-102087543D01*
X183878857Y-102135162D01*
X183783619Y-102182781D01*
X183593142Y-102182781D01*
X183497904Y-102135162D01*
X184402666Y-101516114D02*
X184402666Y-102516114D01*
X184402666Y-101563733D02*
X184497904Y-101516114D01*
X184688381Y-101516114D01*
X184783619Y-101563733D01*
X184831238Y-101611352D01*
X184878857Y-101706590D01*
X184878857Y-101992305D01*
X184831238Y-102087543D01*
X184783619Y-102135162D01*
X184688381Y-102182781D01*
X184497904Y-102182781D01*
X184402666Y-102135162D01*
X185688381Y-102135162D02*
X185593143Y-102182781D01*
X185402666Y-102182781D01*
X185307428Y-102135162D01*
X185259809Y-102039924D01*
X185259809Y-101658971D01*
X185307428Y-101563733D01*
X185402666Y-101516114D01*
X185593143Y-101516114D01*
X185688381Y-101563733D01*
X185736000Y-101658971D01*
X185736000Y-101754210D01*
X185259809Y-101849448D01*
X186164571Y-102182781D02*
X186164571Y-101516114D01*
X186164571Y-101706590D02*
X186212190Y-101611352D01*
X186259809Y-101563733D01*
X186355047Y-101516114D01*
X186450286Y-101516114D01*
X187116953Y-101658971D02*
X187259810Y-101706590D01*
X187307429Y-101754210D01*
X187355048Y-101849448D01*
X187355048Y-101992305D01*
X187307429Y-102087543D01*
X187259810Y-102135162D01*
X187164572Y-102182781D01*
X186783619Y-102182781D01*
X186783619Y-101182781D01*
X187116953Y-101182781D01*
X187212191Y-101230400D01*
X187259810Y-101278019D01*
X187307429Y-101373257D01*
X187307429Y-101468495D01*
X187259810Y-101563733D01*
X187212191Y-101611352D01*
X187116953Y-101658971D01*
X186783619Y-101658971D01*
X187926476Y-102182781D02*
X187831238Y-102135162D01*
X187783619Y-102087543D01*
X187736000Y-101992305D01*
X187736000Y-101706590D01*
X187783619Y-101611352D01*
X187831238Y-101563733D01*
X187926476Y-101516114D01*
X188069334Y-101516114D01*
X188164572Y-101563733D01*
X188212191Y-101611352D01*
X188259810Y-101706590D01*
X188259810Y-101992305D01*
X188212191Y-102087543D01*
X188164572Y-102135162D01*
X188069334Y-102182781D01*
X187926476Y-102182781D01*
X188545524Y-101516114D02*
X188926476Y-101516114D01*
X188688381Y-101182781D02*
X188688381Y-102039924D01*
X188736000Y-102135162D01*
X188831238Y-102182781D01*
X188926476Y-102182781D01*
X189116953Y-101516114D02*
X189497905Y-101516114D01*
X189259810Y-101182781D02*
X189259810Y-102039924D01*
X189307429Y-102135162D01*
X189402667Y-102182781D01*
X189497905Y-102182781D01*
X189974096Y-102182781D02*
X189878858Y-102135162D01*
X189831239Y-102087543D01*
X189783620Y-101992305D01*
X189783620Y-101706590D01*
X189831239Y-101611352D01*
X189878858Y-101563733D01*
X189974096Y-101516114D01*
X190116954Y-101516114D01*
X190212192Y-101563733D01*
X190259811Y-101611352D01*
X190307430Y-101706590D01*
X190307430Y-101992305D01*
X190259811Y-102087543D01*
X190212192Y-102135162D01*
X190116954Y-102182781D01*
X189974096Y-102182781D01*
X190736001Y-102182781D02*
X190736001Y-101516114D01*
X190736001Y-101611352D02*
X190783620Y-101563733D01*
X190878858Y-101516114D01*
X191021716Y-101516114D01*
X191116954Y-101563733D01*
X191164573Y-101658971D01*
X191164573Y-102182781D01*
X191164573Y-101658971D02*
X191212192Y-101563733D01*
X191307430Y-101516114D01*
X191450287Y-101516114D01*
X191545525Y-101563733D01*
X191593144Y-101658971D01*
X191593144Y-102182781D01*
M02*
