G04 #@! TF.FileFunction,Soldermask,Top*
%FSLAX46Y46*%
G04 Gerber Fmt 4.6, Leading zero omitted, Abs format (unit mm)*
G04 Created by KiCad (PCBNEW 4.0.2-stable) date 29/08/2016 23:52:40*
%MOMM*%
G01*
G04 APERTURE LIST*
%ADD10C,0.100000*%
%ADD11C,1.901140*%
%ADD12R,1.900000X0.680000*%
%ADD13R,0.680000X1.900000*%
%ADD14R,2.000200X1.598880*%
%ADD15R,2.203400X2.000200*%
%ADD16R,1.900000X1.650000*%
%ADD17C,2.899360*%
%ADD18R,1.797000X1.797000*%
%ADD19C,1.797000*%
%ADD20R,1.799540X3.399740*%
%ADD21R,2.398980X2.398980*%
%ADD22R,2.432000X4.057600*%
%ADD23R,2.432000X1.416000*%
%ADD24R,1.200000X1.200000*%
%ADD25O,1.200000X1.200000*%
%ADD26R,2.127200X2.127200*%
%ADD27O,2.127200X2.127200*%
%ADD28C,2.540000*%
G04 APERTURE END LIST*
D10*
D11*
X135001000Y-107469940D03*
X135001000Y-102588060D03*
X135001000Y-96166940D03*
X135001000Y-91285060D03*
D12*
X139928000Y-88996000D03*
X139928000Y-89496000D03*
X139928000Y-89996000D03*
X139928000Y-90496000D03*
X139928000Y-90996000D03*
X139928000Y-91496000D03*
X139928000Y-91996000D03*
X139928000Y-92496000D03*
X139928000Y-92996000D03*
X139928000Y-93496000D03*
X139928000Y-93996000D03*
X139928000Y-94496000D03*
X139928000Y-94996000D03*
X139928000Y-95496000D03*
X139928000Y-95996000D03*
X139928000Y-96496000D03*
X139928000Y-96996000D03*
X139928000Y-97496000D03*
X139928000Y-97996000D03*
X139928000Y-98496000D03*
X139928000Y-98996000D03*
X139928000Y-99496000D03*
X139928000Y-99996000D03*
X139928000Y-100496000D03*
X139928000Y-100996000D03*
D13*
X141828000Y-102896000D03*
X142328000Y-102896000D03*
X142828000Y-102896000D03*
X143328000Y-102896000D03*
X143828000Y-102896000D03*
X144328000Y-102896000D03*
X144828000Y-102896000D03*
X145328000Y-102896000D03*
X145828000Y-102896000D03*
X146328000Y-102896000D03*
X146828000Y-102896000D03*
X147328000Y-102896000D03*
X147828000Y-102896000D03*
X148328000Y-102896000D03*
X148828000Y-102896000D03*
X149328000Y-102896000D03*
X149828000Y-102896000D03*
X150328000Y-102896000D03*
X150828000Y-102896000D03*
X151328000Y-102896000D03*
X151828000Y-102896000D03*
X152328000Y-102896000D03*
X152828000Y-102896000D03*
X153328000Y-102896000D03*
X153828000Y-102896000D03*
D12*
X155728000Y-100996000D03*
X155728000Y-100496000D03*
X155728000Y-99996000D03*
X155728000Y-99496000D03*
X155728000Y-98996000D03*
X155728000Y-98496000D03*
X155728000Y-97996000D03*
X155728000Y-97496000D03*
X155728000Y-96996000D03*
X155728000Y-96496000D03*
X155728000Y-95996000D03*
X155728000Y-95496000D03*
X155728000Y-94996000D03*
X155728000Y-94496000D03*
X155728000Y-93996000D03*
X155728000Y-93496000D03*
X155728000Y-92996000D03*
X155728000Y-92496000D03*
X155728000Y-91996000D03*
X155728000Y-91496000D03*
X155728000Y-90996000D03*
X155728000Y-90496000D03*
X155728000Y-89996000D03*
X155728000Y-89496000D03*
X155728000Y-88996000D03*
D13*
X153828000Y-87096000D03*
X153328000Y-87096000D03*
X152828000Y-87096000D03*
X152328000Y-87096000D03*
X151828000Y-87096000D03*
X151328000Y-87096000D03*
X150828000Y-87096000D03*
X150328000Y-87096000D03*
X149828000Y-87096000D03*
X149328000Y-87096000D03*
X148828000Y-87096000D03*
X148328000Y-87096000D03*
X147828000Y-87096000D03*
X147328000Y-87096000D03*
X146828000Y-87096000D03*
X146328000Y-87096000D03*
X145828000Y-87096000D03*
X145328000Y-87096000D03*
X144828000Y-87096000D03*
X144328000Y-87096000D03*
X143828000Y-87096000D03*
X143328000Y-87096000D03*
X142828000Y-87096000D03*
X142328000Y-87096000D03*
X141828000Y-87096000D03*
D14*
X141201140Y-81788000D03*
X144802860Y-81788000D03*
D15*
X142367000Y-122364500D03*
X142367000Y-125158500D03*
X144716500Y-122364500D03*
X144716500Y-125158500D03*
X146939000Y-122364500D03*
X146939000Y-125158500D03*
X149161500Y-122364500D03*
X149161500Y-125158500D03*
X151384000Y-122364500D03*
X151384000Y-125158500D03*
X120015000Y-107061000D03*
X120015000Y-104267000D03*
X120015000Y-98933000D03*
X120015000Y-101727000D03*
X120015000Y-90551000D03*
X120015000Y-93345000D03*
D16*
X133116000Y-86360000D03*
X135616000Y-86360000D03*
X128290000Y-101346000D03*
X130790000Y-101346000D03*
X128290000Y-104648000D03*
X130790000Y-104648000D03*
X128290000Y-107950000D03*
X130790000Y-107950000D03*
D15*
X149479000Y-77597000D03*
X149479000Y-80391000D03*
X152019000Y-77597000D03*
X152019000Y-80391000D03*
X154559000Y-77597000D03*
X154559000Y-80391000D03*
X157099000Y-77597000D03*
X157099000Y-80391000D03*
X159639000Y-77597000D03*
X159639000Y-80391000D03*
X162179000Y-77597000D03*
X162179000Y-80391000D03*
X164719000Y-77597000D03*
X164719000Y-80391000D03*
X167259000Y-77597000D03*
X167259000Y-80391000D03*
D14*
X162283140Y-126492000D03*
X165884860Y-126492000D03*
X175536860Y-106680000D03*
X171935140Y-106680000D03*
D17*
X178866800Y-124846080D03*
X176364900Y-112351820D03*
X178864260Y-117348000D03*
X178866800Y-109849920D03*
X176364900Y-122344180D03*
X188861700Y-112346740D03*
X188861700Y-122349260D03*
D18*
X159512000Y-109728000D03*
D19*
X156972000Y-109728000D03*
X154432000Y-109728000D03*
X151892000Y-109728000D03*
X149352000Y-109728000D03*
X146812000Y-109728000D03*
X144272000Y-109728000D03*
X141732000Y-109728000D03*
X139192000Y-109728000D03*
D20*
X168656000Y-108651040D03*
X168656000Y-113852960D03*
D21*
X168656000Y-106250740D03*
X168656000Y-116253260D03*
D10*
G36*
X167939060Y-120278550D02*
X167939060Y-124577450D01*
X164038940Y-123477630D01*
X164038940Y-121378370D01*
X167939060Y-120278550D01*
X167939060Y-120278550D01*
G37*
G36*
X159212940Y-124577450D02*
X159212940Y-120278550D01*
X163113060Y-121378370D01*
X163113060Y-123477630D01*
X159212940Y-124577450D01*
X159212940Y-124577450D01*
G37*
D21*
X169077640Y-122428000D03*
X158074360Y-122428000D03*
D20*
X163068000Y-113852960D03*
X163068000Y-108651040D03*
D21*
X163068000Y-116253260D03*
X163068000Y-106250740D03*
D20*
X184404000Y-91379040D03*
X184404000Y-96580960D03*
D21*
X184404000Y-88978740D03*
X184404000Y-98981260D03*
D20*
X128016000Y-95818960D03*
X128016000Y-90617040D03*
D21*
X128016000Y-98219260D03*
X128016000Y-88216740D03*
D20*
X124460000Y-90744040D03*
X124460000Y-95945960D03*
D21*
X124460000Y-88343740D03*
X124460000Y-98346260D03*
D22*
X109626400Y-92151200D03*
D23*
X116230400Y-92151200D03*
X116230400Y-89865200D03*
X116230400Y-94437200D03*
D22*
X109601000Y-103124000D03*
D23*
X116205000Y-103124000D03*
X116205000Y-100838000D03*
X116205000Y-105410000D03*
D24*
X142367000Y-116840000D03*
D25*
X143617000Y-116840000D03*
X144867000Y-116840000D03*
X146117000Y-116840000D03*
X147367000Y-116840000D03*
X148617000Y-116840000D03*
X149867000Y-116840000D03*
X151117000Y-116840000D03*
D26*
X166624000Y-84836000D03*
D27*
X164084000Y-84836000D03*
X166624000Y-87376000D03*
X164084000Y-87376000D03*
X166624000Y-89916000D03*
X164084000Y-89916000D03*
X166624000Y-92456000D03*
X164084000Y-92456000D03*
X166624000Y-94996000D03*
X164084000Y-94996000D03*
X166624000Y-97536000D03*
X164084000Y-97536000D03*
X166624000Y-100076000D03*
X164084000Y-100076000D03*
X166624000Y-102616000D03*
X164084000Y-102616000D03*
D24*
X130683000Y-82169000D03*
D25*
X131933000Y-82169000D03*
X133183000Y-82169000D03*
X134433000Y-82169000D03*
X135683000Y-82169000D03*
X136933000Y-82169000D03*
D24*
X131064000Y-118364000D03*
D25*
X129814000Y-118364000D03*
D24*
X124079000Y-82042000D03*
D25*
X125329000Y-82042000D03*
D24*
X176276000Y-90932000D03*
D25*
X176276000Y-89682000D03*
X176276000Y-88432000D03*
D24*
X176276000Y-99060000D03*
D25*
X176276000Y-97810000D03*
X176276000Y-96560000D03*
D24*
X121920000Y-118364000D03*
D25*
X120670000Y-118364000D03*
D28*
X183337200Y-78943200D03*
X110388400Y-121310400D03*
M02*
