G04 #@! TF.FileFunction,Other,Fab,Top*
%FSLAX46Y46*%
G04 Gerber Fmt 4.6, Leading zero omitted, Abs format (unit mm)*
G04 Created by KiCad (PCBNEW 4.0.2-stable) date 02/09/2016 20:31:52*
%MOMM*%
G01*
G04 APERTURE LIST*
%ADD10C,0.100000*%
%ADD11C,0.200000*%
%ADD12C,0.150000*%
G04 APERTURE END LIST*
D10*
D11*
X142137000Y-117990000D02*
X140867000Y-116720000D01*
X140867000Y-116720000D02*
X140867000Y-114790000D01*
X140867000Y-114790000D02*
X152617000Y-114790000D01*
X152617000Y-114790000D02*
X152617000Y-117990000D01*
X152617000Y-117990000D02*
X142137000Y-117990000D01*
X130453000Y-83319000D02*
X129183000Y-82049000D01*
X129183000Y-82049000D02*
X129183000Y-80119000D01*
X129183000Y-80119000D02*
X138433000Y-80119000D01*
X138433000Y-80119000D02*
X138433000Y-83319000D01*
X138433000Y-83319000D02*
X130453000Y-83319000D01*
X131294000Y-117214000D02*
X132564000Y-118484000D01*
X132564000Y-118484000D02*
X132564000Y-120414000D01*
X132564000Y-120414000D02*
X128314000Y-120414000D01*
X128314000Y-120414000D02*
X128314000Y-117214000D01*
X128314000Y-117214000D02*
X131294000Y-117214000D01*
X123849000Y-83192000D02*
X122579000Y-81922000D01*
X122579000Y-81922000D02*
X122579000Y-79992000D01*
X122579000Y-79992000D02*
X126829000Y-79992000D01*
X126829000Y-79992000D02*
X126829000Y-83192000D01*
X126829000Y-83192000D02*
X123849000Y-83192000D01*
X177426000Y-91162000D02*
X176156000Y-92432000D01*
X176156000Y-92432000D02*
X174226000Y-92432000D01*
X174226000Y-92432000D02*
X174226000Y-86932000D01*
X174226000Y-86932000D02*
X177426000Y-86932000D01*
X177426000Y-86932000D02*
X177426000Y-91162000D01*
X177426000Y-99290000D02*
X176156000Y-100560000D01*
X176156000Y-100560000D02*
X174226000Y-100560000D01*
X174226000Y-100560000D02*
X174226000Y-95060000D01*
X174226000Y-95060000D02*
X177426000Y-95060000D01*
X177426000Y-95060000D02*
X177426000Y-99290000D01*
X122150000Y-117214000D02*
X123420000Y-118484000D01*
X123420000Y-118484000D02*
X123420000Y-120414000D01*
X123420000Y-120414000D02*
X119170000Y-120414000D01*
X119170000Y-120414000D02*
X119170000Y-117214000D01*
X119170000Y-117214000D02*
X122150000Y-117214000D01*
D12*
X143980095Y-113042381D02*
X144551524Y-113042381D01*
X144265809Y-114042381D02*
X144265809Y-113042381D01*
X145265810Y-113994762D02*
X145170572Y-114042381D01*
X144980095Y-114042381D01*
X144884857Y-113994762D01*
X144837238Y-113899524D01*
X144837238Y-113518571D01*
X144884857Y-113423333D01*
X144980095Y-113375714D01*
X145170572Y-113375714D01*
X145265810Y-113423333D01*
X145313429Y-113518571D01*
X145313429Y-113613810D01*
X144837238Y-113709048D01*
X146170572Y-113994762D02*
X146075334Y-114042381D01*
X145884857Y-114042381D01*
X145789619Y-113994762D01*
X145742000Y-113947143D01*
X145694381Y-113851905D01*
X145694381Y-113566190D01*
X145742000Y-113470952D01*
X145789619Y-113423333D01*
X145884857Y-113375714D01*
X146075334Y-113375714D01*
X146170572Y-113423333D01*
X146742000Y-114042381D02*
X146646762Y-113994762D01*
X146599143Y-113899524D01*
X146599143Y-113042381D01*
X147551525Y-114042381D02*
X147551525Y-113518571D01*
X147503906Y-113423333D01*
X147408668Y-113375714D01*
X147218191Y-113375714D01*
X147122953Y-113423333D01*
X147551525Y-113994762D02*
X147456287Y-114042381D01*
X147218191Y-114042381D01*
X147122953Y-113994762D01*
X147075334Y-113899524D01*
X147075334Y-113804286D01*
X147122953Y-113709048D01*
X147218191Y-113661429D01*
X147456287Y-113661429D01*
X147551525Y-113613810D01*
X148456287Y-114042381D02*
X148456287Y-113042381D01*
X148456287Y-113994762D02*
X148361049Y-114042381D01*
X148170572Y-114042381D01*
X148075334Y-113994762D01*
X148027715Y-113947143D01*
X147980096Y-113851905D01*
X147980096Y-113566190D01*
X148027715Y-113470952D01*
X148075334Y-113423333D01*
X148170572Y-113375714D01*
X148361049Y-113375714D01*
X148456287Y-113423333D01*
X149075334Y-114042381D02*
X148980096Y-113994762D01*
X148932477Y-113947143D01*
X148884858Y-113851905D01*
X148884858Y-113566190D01*
X148932477Y-113470952D01*
X148980096Y-113423333D01*
X149075334Y-113375714D01*
X149218192Y-113375714D01*
X149313430Y-113423333D01*
X149361049Y-113470952D01*
X149408668Y-113566190D01*
X149408668Y-113851905D01*
X149361049Y-113947143D01*
X149313430Y-113994762D01*
X149218192Y-114042381D01*
X149075334Y-114042381D01*
M02*
