G04 #@! TF.FileFunction,Copper,L2,Bot,Signal*
%FSLAX46Y46*%
G04 Gerber Fmt 4.6, Leading zero omitted, Abs format (unit mm)*
G04 Created by KiCad (PCBNEW 4.0.2-stable) date 25/08/2016 11:49:55*
%MOMM*%
G01*
G04 APERTURE LIST*
%ADD10C,0.100000*%
%ADD11C,0.300000*%
%ADD12C,1.501140*%
%ADD13C,2.499360*%
%ADD14R,1.397000X1.397000*%
%ADD15C,1.397000*%
%ADD16R,1.998980X1.998980*%
%ADD17R,0.800000X0.800000*%
%ADD18O,0.800000X0.800000*%
%ADD19R,1.727200X1.727200*%
%ADD20O,1.727200X1.727200*%
%ADD21C,1.000000*%
%ADD22C,0.600000*%
%ADD23C,0.508000*%
%ADD24C,0.254000*%
%ADD25C,0.250000*%
G04 APERTURE END LIST*
D10*
D11*
X132166571Y-124088000D02*
X131452285Y-124088000D01*
X132309428Y-124516571D02*
X131809428Y-123016571D01*
X131309428Y-124516571D01*
X130380857Y-123016571D02*
X130380857Y-124088000D01*
X130452285Y-124302286D01*
X130595142Y-124445143D01*
X130809428Y-124516571D01*
X130952285Y-124516571D01*
X129880857Y-123016571D02*
X129023714Y-123016571D01*
X129452285Y-124516571D02*
X129452285Y-123016571D01*
X127380857Y-124516571D02*
X127380857Y-123016571D01*
X127023714Y-123016571D01*
X126809429Y-123088000D01*
X126666571Y-123230857D01*
X126595143Y-123373714D01*
X126523714Y-123659429D01*
X126523714Y-123873714D01*
X126595143Y-124159429D01*
X126666571Y-124302286D01*
X126809429Y-124445143D01*
X127023714Y-124516571D01*
X127380857Y-124516571D01*
X125023714Y-124516571D02*
X125523714Y-123802286D01*
X125880857Y-124516571D02*
X125880857Y-123016571D01*
X125309429Y-123016571D01*
X125166571Y-123088000D01*
X125095143Y-123159429D01*
X125023714Y-123302286D01*
X125023714Y-123516571D01*
X125095143Y-123659429D01*
X125166571Y-123730857D01*
X125309429Y-123802286D01*
X125880857Y-123802286D01*
X124380857Y-123016571D02*
X124380857Y-124230857D01*
X124309429Y-124373714D01*
X124238000Y-124445143D01*
X124095143Y-124516571D01*
X123809429Y-124516571D01*
X123666571Y-124445143D01*
X123595143Y-124373714D01*
X123523714Y-124230857D01*
X123523714Y-123016571D01*
X122809428Y-124516571D02*
X122809428Y-123016571D01*
X122309428Y-124088000D01*
X121809428Y-123016571D01*
X121809428Y-124516571D01*
X121166571Y-124445143D02*
X120952285Y-124516571D01*
X120595142Y-124516571D01*
X120452285Y-124445143D01*
X120380856Y-124373714D01*
X120309428Y-124230857D01*
X120309428Y-124088000D01*
X120380856Y-123945143D01*
X120452285Y-123873714D01*
X120595142Y-123802286D01*
X120880856Y-123730857D01*
X121023714Y-123659429D01*
X121095142Y-123588000D01*
X121166571Y-123445143D01*
X121166571Y-123302286D01*
X121095142Y-123159429D01*
X121023714Y-123088000D01*
X120880856Y-123016571D01*
X120523714Y-123016571D01*
X120309428Y-123088000D01*
X128523714Y-125416571D02*
X128023714Y-126916571D01*
X127523714Y-125416571D01*
X126738000Y-125416571D02*
X126595143Y-125416571D01*
X126452286Y-125488000D01*
X126380857Y-125559429D01*
X126309428Y-125702286D01*
X126238000Y-125988000D01*
X126238000Y-126345143D01*
X126309428Y-126630857D01*
X126380857Y-126773714D01*
X126452286Y-126845143D01*
X126595143Y-126916571D01*
X126738000Y-126916571D01*
X126880857Y-126845143D01*
X126952286Y-126773714D01*
X127023714Y-126630857D01*
X127095143Y-126345143D01*
X127095143Y-125988000D01*
X127023714Y-125702286D01*
X126952286Y-125559429D01*
X126880857Y-125488000D01*
X126738000Y-125416571D01*
X125595143Y-126773714D02*
X125523715Y-126845143D01*
X125595143Y-126916571D01*
X125666572Y-126845143D01*
X125595143Y-126773714D01*
X125595143Y-126916571D01*
X124595143Y-125416571D02*
X124452286Y-125416571D01*
X124309429Y-125488000D01*
X124238000Y-125559429D01*
X124166571Y-125702286D01*
X124095143Y-125988000D01*
X124095143Y-126345143D01*
X124166571Y-126630857D01*
X124238000Y-126773714D01*
X124309429Y-126845143D01*
X124452286Y-126916571D01*
X124595143Y-126916571D01*
X124738000Y-126845143D01*
X124809429Y-126773714D01*
X124880857Y-126630857D01*
X124952286Y-126345143D01*
X124952286Y-125988000D01*
X124880857Y-125702286D01*
X124809429Y-125559429D01*
X124738000Y-125488000D01*
X124595143Y-125416571D01*
X132380856Y-129316571D02*
X133237999Y-129316571D01*
X132809427Y-129316571D02*
X132809427Y-127816571D01*
X132952284Y-128030857D01*
X133095142Y-128173714D01*
X133237999Y-128245143D01*
X131452285Y-127816571D02*
X131309428Y-127816571D01*
X131166571Y-127888000D01*
X131095142Y-127959429D01*
X131023713Y-128102286D01*
X130952285Y-128388000D01*
X130952285Y-128745143D01*
X131023713Y-129030857D01*
X131095142Y-129173714D01*
X131166571Y-129245143D01*
X131309428Y-129316571D01*
X131452285Y-129316571D01*
X131595142Y-129245143D01*
X131666571Y-129173714D01*
X131737999Y-129030857D01*
X131809428Y-128745143D01*
X131809428Y-128388000D01*
X131737999Y-128102286D01*
X131666571Y-127959429D01*
X131595142Y-127888000D01*
X131452285Y-127816571D01*
X129238000Y-127745143D02*
X130523714Y-129673714D01*
X128452285Y-127816571D02*
X128309428Y-127816571D01*
X128166571Y-127888000D01*
X128095142Y-127959429D01*
X128023713Y-128102286D01*
X127952285Y-128388000D01*
X127952285Y-128745143D01*
X128023713Y-129030857D01*
X128095142Y-129173714D01*
X128166571Y-129245143D01*
X128309428Y-129316571D01*
X128452285Y-129316571D01*
X128595142Y-129245143D01*
X128666571Y-129173714D01*
X128737999Y-129030857D01*
X128809428Y-128745143D01*
X128809428Y-128388000D01*
X128737999Y-128102286D01*
X128666571Y-127959429D01*
X128595142Y-127888000D01*
X128452285Y-127816571D01*
X127095142Y-128459429D02*
X127238000Y-128388000D01*
X127309428Y-128316571D01*
X127380857Y-128173714D01*
X127380857Y-128102286D01*
X127309428Y-127959429D01*
X127238000Y-127888000D01*
X127095142Y-127816571D01*
X126809428Y-127816571D01*
X126666571Y-127888000D01*
X126595142Y-127959429D01*
X126523714Y-128102286D01*
X126523714Y-128173714D01*
X126595142Y-128316571D01*
X126666571Y-128388000D01*
X126809428Y-128459429D01*
X127095142Y-128459429D01*
X127238000Y-128530857D01*
X127309428Y-128602286D01*
X127380857Y-128745143D01*
X127380857Y-129030857D01*
X127309428Y-129173714D01*
X127238000Y-129245143D01*
X127095142Y-129316571D01*
X126809428Y-129316571D01*
X126666571Y-129245143D01*
X126595142Y-129173714D01*
X126523714Y-129030857D01*
X126523714Y-128745143D01*
X126595142Y-128602286D01*
X126666571Y-128530857D01*
X126809428Y-128459429D01*
X124809429Y-127745143D02*
X126095143Y-129673714D01*
X124380857Y-127959429D02*
X124309428Y-127888000D01*
X124166571Y-127816571D01*
X123809428Y-127816571D01*
X123666571Y-127888000D01*
X123595142Y-127959429D01*
X123523714Y-128102286D01*
X123523714Y-128245143D01*
X123595142Y-128459429D01*
X124452285Y-129316571D01*
X123523714Y-129316571D01*
X122595143Y-127816571D02*
X122452286Y-127816571D01*
X122309429Y-127888000D01*
X122238000Y-127959429D01*
X122166571Y-128102286D01*
X122095143Y-128388000D01*
X122095143Y-128745143D01*
X122166571Y-129030857D01*
X122238000Y-129173714D01*
X122309429Y-129245143D01*
X122452286Y-129316571D01*
X122595143Y-129316571D01*
X122738000Y-129245143D01*
X122809429Y-129173714D01*
X122880857Y-129030857D01*
X122952286Y-128745143D01*
X122952286Y-128388000D01*
X122880857Y-128102286D01*
X122809429Y-127959429D01*
X122738000Y-127888000D01*
X122595143Y-127816571D01*
X120666572Y-129316571D02*
X121523715Y-129316571D01*
X121095143Y-129316571D02*
X121095143Y-127816571D01*
X121238000Y-128030857D01*
X121380858Y-128173714D01*
X121523715Y-128245143D01*
X119380858Y-127816571D02*
X119666572Y-127816571D01*
X119809429Y-127888000D01*
X119880858Y-127959429D01*
X120023715Y-128173714D01*
X120095144Y-128459429D01*
X120095144Y-129030857D01*
X120023715Y-129173714D01*
X119952287Y-129245143D01*
X119809429Y-129316571D01*
X119523715Y-129316571D01*
X119380858Y-129245143D01*
X119309429Y-129173714D01*
X119238001Y-129030857D01*
X119238001Y-128673714D01*
X119309429Y-128530857D01*
X119380858Y-128459429D01*
X119523715Y-128388000D01*
X119809429Y-128388000D01*
X119952287Y-128459429D01*
X120023715Y-128530857D01*
X120095144Y-128673714D01*
D12*
X135001000Y-107469940D03*
X135001000Y-102588060D03*
X135001000Y-96166940D03*
X135001000Y-91285060D03*
D13*
X178866800Y-124846080D03*
X176364900Y-112351820D03*
X178864260Y-117348000D03*
X178866800Y-109849920D03*
X176364900Y-122344180D03*
X188861700Y-112346740D03*
X188861700Y-122349260D03*
D14*
X159512000Y-109728000D03*
D15*
X156972000Y-109728000D03*
X154432000Y-109728000D03*
X151892000Y-109728000D03*
X149352000Y-109728000D03*
X146812000Y-109728000D03*
X144272000Y-109728000D03*
X141732000Y-109728000D03*
X139192000Y-109728000D03*
D16*
X168656000Y-106250740D03*
X168656000Y-116253260D03*
X169077640Y-122428000D03*
X158074360Y-122428000D03*
X163068000Y-116253260D03*
X163068000Y-106250740D03*
X184404000Y-88978740D03*
X184404000Y-98981260D03*
X128016000Y-98219260D03*
X128016000Y-88216740D03*
X124460000Y-88343740D03*
X124460000Y-98346260D03*
D17*
X142367000Y-116840000D03*
D18*
X143617000Y-116840000D03*
X144867000Y-116840000D03*
X146117000Y-116840000D03*
X147367000Y-116840000D03*
X148617000Y-116840000D03*
X149867000Y-116840000D03*
X151117000Y-116840000D03*
D19*
X166624000Y-84836000D03*
D20*
X164084000Y-84836000D03*
X166624000Y-87376000D03*
X164084000Y-87376000D03*
X166624000Y-89916000D03*
X164084000Y-89916000D03*
X166624000Y-92456000D03*
X164084000Y-92456000D03*
X166624000Y-94996000D03*
X164084000Y-94996000D03*
X166624000Y-97536000D03*
X164084000Y-97536000D03*
X166624000Y-100076000D03*
X164084000Y-100076000D03*
X166624000Y-102616000D03*
X164084000Y-102616000D03*
D17*
X130683000Y-82169000D03*
D18*
X131933000Y-82169000D03*
X133183000Y-82169000D03*
X134433000Y-82169000D03*
X135683000Y-82169000D03*
X136933000Y-82169000D03*
D17*
X131064000Y-118364000D03*
D18*
X129814000Y-118364000D03*
D17*
X124079000Y-82042000D03*
D18*
X125329000Y-82042000D03*
D17*
X176276000Y-90932000D03*
D18*
X176276000Y-89682000D03*
X176276000Y-88432000D03*
D17*
X176276000Y-99060000D03*
D18*
X176276000Y-97810000D03*
X176276000Y-96560000D03*
D17*
X121920000Y-118364000D03*
D18*
X120670000Y-118364000D03*
D21*
X173736000Y-103530400D03*
D22*
X120396000Y-95504000D03*
X157480000Y-99060000D03*
X151485600Y-106934000D03*
X158191200Y-107035600D03*
X158394400Y-104292400D03*
X150774400Y-107797600D03*
X158242000Y-98399600D03*
X158445200Y-105664000D03*
X161975800Y-88646000D03*
X158369000Y-88265000D03*
X158292800Y-89509600D03*
X160680400Y-91287600D03*
X157632400Y-90373200D03*
X138582400Y-89052400D03*
X131572000Y-86868000D03*
X134112000Y-100076000D03*
X138176000Y-92964000D03*
X134620000Y-87884000D03*
X138176000Y-90424000D03*
X136144000Y-101092000D03*
X171805600Y-85852000D03*
X130175000Y-94615000D03*
X157276800Y-95656400D03*
X138049000Y-96012000D03*
D23*
X142367000Y-116840000D02*
X142367000Y-114935000D01*
X142367000Y-114935000D02*
X141732000Y-114300000D01*
D24*
X158089600Y-106934000D02*
X151485600Y-106934000D01*
X158191200Y-107035600D02*
X158089600Y-106934000D01*
D23*
X141732000Y-114300000D02*
X141732000Y-109728000D01*
X146117000Y-116840000D02*
X146117000Y-115637000D01*
X146117000Y-115637000D02*
X144272000Y-113792000D01*
D24*
X144272000Y-105867200D02*
X144272000Y-109728000D01*
X145389600Y-104749600D02*
X144272000Y-105867200D01*
X157937200Y-104749600D02*
X145389600Y-104749600D01*
X158394400Y-104292400D02*
X157937200Y-104749600D01*
D23*
X144272000Y-113792000D02*
X144272000Y-109728000D01*
D24*
X159054800Y-107797600D02*
X150774400Y-107797600D01*
X159867600Y-106984800D02*
X159054800Y-107797600D01*
X159867600Y-100025200D02*
X159867600Y-106984800D01*
X158242000Y-98399600D02*
X159867600Y-100025200D01*
D23*
X146812000Y-109728000D02*
X146812000Y-114300000D01*
X147367000Y-114855000D02*
X147367000Y-116840000D01*
X146812000Y-114300000D02*
X147367000Y-114855000D01*
D24*
X149352000Y-106934000D02*
X149352000Y-109728000D01*
X150571200Y-105714800D02*
X149352000Y-106934000D01*
X158394400Y-105714800D02*
X150571200Y-105714800D01*
X158445200Y-105664000D02*
X158394400Y-105714800D01*
D23*
X149352000Y-112776000D02*
X149352000Y-109728000D01*
X148617000Y-116840000D02*
X148617000Y-113511000D01*
X148617000Y-113511000D02*
X149352000Y-112776000D01*
X151892000Y-112776000D02*
X151892000Y-109728000D01*
X149867000Y-116840000D02*
X149867000Y-114801000D01*
X149867000Y-114801000D02*
X151892000Y-112776000D01*
X176276000Y-89682000D02*
X173044800Y-89682000D01*
X170738800Y-87376000D02*
X166624000Y-87376000D01*
X173044800Y-89682000D02*
X170738800Y-87376000D01*
D24*
X160375600Y-88823800D02*
X159791400Y-88239600D01*
X159791400Y-88239600D02*
X158445200Y-88239600D01*
X161975800Y-88646000D02*
X161798000Y-88823800D01*
X161798000Y-88823800D02*
X161721800Y-88823800D01*
X161721800Y-88823800D02*
X160375600Y-88823800D01*
X158394400Y-88239600D02*
X158445200Y-88239600D01*
X158369000Y-88265000D02*
X158394400Y-88239600D01*
X166624000Y-97536000D02*
X166471600Y-97536000D01*
X166471600Y-97536000D02*
X165201600Y-96266000D01*
X165201600Y-96266000D02*
X162915600Y-96266000D01*
X162915600Y-96266000D02*
X161798000Y-95148400D01*
X161798000Y-95148400D02*
X161798000Y-90627200D01*
X161798000Y-90627200D02*
X160680400Y-89509600D01*
X160680400Y-89509600D02*
X158292800Y-89509600D01*
X158546800Y-91287600D02*
X160680400Y-91287600D01*
X157632400Y-90373200D02*
X158546800Y-91287600D01*
D23*
X166624000Y-102616000D02*
X170180000Y-102616000D01*
X174752000Y-98044000D02*
X176042000Y-98044000D01*
X173228000Y-99568000D02*
X174752000Y-98044000D01*
X170180000Y-102616000D02*
X173228000Y-99568000D01*
X176042000Y-98044000D02*
X176276000Y-97810000D01*
D24*
X138582400Y-89052400D02*
X138023600Y-89052400D01*
X131978400Y-83007200D02*
X131978400Y-82214400D01*
X132994400Y-84023200D02*
X131978400Y-83007200D01*
X138023600Y-89052400D02*
X132994400Y-84023200D01*
X131978400Y-82214400D02*
X131933000Y-82169000D01*
X138582400Y-89052400D02*
X138531600Y-89052400D01*
X131572000Y-86868000D02*
X131572000Y-97536000D01*
X131572000Y-97536000D02*
X134112000Y-100076000D01*
X126238000Y-82042000D02*
X125329000Y-82042000D01*
X128524000Y-84328000D02*
X126238000Y-82042000D01*
X131064000Y-84328000D02*
X128524000Y-84328000D01*
X133096000Y-86360000D02*
X131064000Y-84328000D01*
X133096000Y-87884000D02*
X133096000Y-86360000D01*
X134112000Y-88900000D02*
X133096000Y-87884000D01*
X134620000Y-88900000D02*
X134112000Y-88900000D01*
X137160000Y-91440000D02*
X134620000Y-88900000D01*
X137160000Y-91948000D02*
X137160000Y-91440000D01*
X138176000Y-92964000D02*
X137160000Y-91948000D01*
D23*
X176276000Y-99060000D02*
X183817260Y-99060000D01*
X183817260Y-99060000D02*
X184404000Y-98473260D01*
D24*
X136652000Y-89916000D02*
X137160000Y-90424000D01*
X136652000Y-88900000D02*
X136652000Y-89916000D01*
X135636000Y-87884000D02*
X136652000Y-88900000D01*
X134620000Y-87884000D02*
X135636000Y-87884000D01*
X138176000Y-90424000D02*
X137160000Y-90424000D01*
D23*
X124460000Y-96520000D02*
X125476000Y-95504000D01*
X125476000Y-95504000D02*
X128524000Y-95504000D01*
X128524000Y-95504000D02*
X130556000Y-97536000D01*
X130556000Y-97536000D02*
X130556000Y-98044000D01*
X130556000Y-98044000D02*
X133604000Y-101092000D01*
X133604000Y-101092000D02*
X136144000Y-101092000D01*
X124460000Y-98346260D02*
X124460000Y-96520000D01*
X182473600Y-88978740D02*
X182140860Y-88978740D01*
X180187600Y-90932000D02*
X178816000Y-90932000D01*
X182140860Y-88978740D02*
X180187600Y-90932000D01*
X176276000Y-90932000D02*
X178816000Y-90932000D01*
X184404000Y-88978740D02*
X182473600Y-88978740D01*
X164084000Y-84836000D02*
X164084000Y-83718400D01*
X168960800Y-83007200D02*
X171805600Y-85852000D01*
X164795200Y-83007200D02*
X168960800Y-83007200D01*
X164084000Y-83718400D02*
X164795200Y-83007200D01*
X164084000Y-84836000D02*
X159715200Y-84836000D01*
X130683000Y-80238600D02*
X130683000Y-82169000D01*
X132537200Y-78384400D02*
X130683000Y-80238600D01*
X153263600Y-78384400D02*
X132537200Y-78384400D01*
X159715200Y-84836000D02*
X153263600Y-78384400D01*
X131064000Y-118364000D02*
X136956800Y-118364000D01*
X162435540Y-112471200D02*
X165178740Y-109728000D01*
X161645600Y-112471200D02*
X162435540Y-112471200D01*
X154736800Y-119380000D02*
X161645600Y-112471200D01*
X137972800Y-119380000D02*
X154736800Y-119380000D01*
X136956800Y-118364000D02*
X137972800Y-119380000D01*
X159512000Y-109728000D02*
X165178740Y-109728000D01*
X165178740Y-109728000D02*
X168656000Y-106250740D01*
X128016000Y-98219260D02*
X128016000Y-99060000D01*
X128016000Y-99060000D02*
X129032000Y-100076000D01*
X131064000Y-114808000D02*
X131064000Y-118364000D01*
X129032000Y-112776000D02*
X131064000Y-114808000D01*
X129032000Y-100076000D02*
X129032000Y-112776000D01*
D25*
X124460000Y-88343740D02*
X124460000Y-92837000D01*
X126238000Y-94615000D02*
X130175000Y-94615000D01*
X124460000Y-92837000D02*
X126238000Y-94615000D01*
D24*
X161137600Y-104320340D02*
X163068000Y-106250740D01*
X161137600Y-98755200D02*
X161137600Y-104320340D01*
X159105600Y-96723200D02*
X161137600Y-98755200D01*
X158343600Y-96723200D02*
X159105600Y-96723200D01*
X157276800Y-95656400D02*
X158343600Y-96723200D01*
D25*
X135001000Y-92964000D02*
X135001000Y-91285060D01*
X138049000Y-96012000D02*
X135001000Y-92964000D01*
D24*
G36*
X108285932Y-76789932D02*
X107688113Y-77684631D01*
X107478187Y-78740000D01*
X107688113Y-79795369D01*
X108285932Y-80690068D01*
X109180631Y-81287887D01*
X110236000Y-81497813D01*
X111291369Y-81287887D01*
X112186068Y-80690068D01*
X112783887Y-79795369D01*
X112993813Y-78740000D01*
X112783887Y-77684631D01*
X112186068Y-76789932D01*
X111605487Y-76402000D01*
X187765479Y-76402000D01*
X187279932Y-76726432D01*
X186682113Y-77621131D01*
X186472187Y-78676500D01*
X186682113Y-79731869D01*
X187279932Y-80626568D01*
X188174631Y-81224387D01*
X189230000Y-81434313D01*
X190285369Y-81224387D01*
X191180068Y-80626568D01*
X191777887Y-79731869D01*
X191987813Y-78676500D01*
X191777887Y-77621131D01*
X191180068Y-76726432D01*
X190694521Y-76402000D01*
X192330000Y-76402000D01*
X192330000Y-130354000D01*
X134308713Y-130354000D01*
X134308713Y-121703000D01*
X118167287Y-121703000D01*
X118167287Y-130354000D01*
X107390000Y-130354000D01*
X107390000Y-127000000D01*
X107478187Y-127000000D01*
X107688113Y-128055369D01*
X108285932Y-128950068D01*
X109180631Y-129547887D01*
X110236000Y-129757813D01*
X111291369Y-129547887D01*
X112186068Y-128950068D01*
X112783887Y-128055369D01*
X112993813Y-127000000D01*
X112783887Y-125944631D01*
X112186068Y-125049932D01*
X111291369Y-124452113D01*
X110236000Y-124242187D01*
X109180631Y-124452113D01*
X108285932Y-125049932D01*
X107688113Y-125944631D01*
X107478187Y-127000000D01*
X107390000Y-127000000D01*
X107390000Y-121428510D01*
X156427430Y-121428510D01*
X156427430Y-123427490D01*
X156471708Y-123662807D01*
X156610780Y-123878931D01*
X156822980Y-124023921D01*
X157074870Y-124074930D01*
X159073850Y-124074930D01*
X159309167Y-124030652D01*
X159525291Y-123891580D01*
X159670281Y-123679380D01*
X159721290Y-123427490D01*
X159721290Y-121428510D01*
X167430710Y-121428510D01*
X167430710Y-123427490D01*
X167474988Y-123662807D01*
X167614060Y-123878931D01*
X167826260Y-124023921D01*
X168078150Y-124074930D01*
X170077130Y-124074930D01*
X170312447Y-124030652D01*
X170528571Y-123891580D01*
X170673561Y-123679380D01*
X170724570Y-123427490D01*
X170724570Y-122717421D01*
X174479894Y-122717421D01*
X174766214Y-123410371D01*
X175295921Y-123941002D01*
X175988369Y-124228532D01*
X176738141Y-124229186D01*
X177153524Y-124057554D01*
X176982448Y-124469549D01*
X176981794Y-125219321D01*
X177268114Y-125912271D01*
X177797821Y-126442902D01*
X178490269Y-126730432D01*
X179240041Y-126731086D01*
X179932991Y-126444766D01*
X180463622Y-125915059D01*
X180751152Y-125222611D01*
X180751806Y-124472839D01*
X180465486Y-123779889D01*
X179935779Y-123249258D01*
X179243331Y-122961728D01*
X178493559Y-122961074D01*
X178078176Y-123132706D01*
X178248508Y-122722501D01*
X186976694Y-122722501D01*
X187263014Y-123415451D01*
X187792721Y-123946082D01*
X188485169Y-124233612D01*
X189234941Y-124234266D01*
X189927891Y-123947946D01*
X190458522Y-123418239D01*
X190746052Y-122725791D01*
X190746706Y-121976019D01*
X190460386Y-121283069D01*
X189930679Y-120752438D01*
X189238231Y-120464908D01*
X188488459Y-120464254D01*
X187795509Y-120750574D01*
X187264878Y-121280281D01*
X186977348Y-121972729D01*
X186976694Y-122722501D01*
X178248508Y-122722501D01*
X178249252Y-122720711D01*
X178249906Y-121970939D01*
X177963586Y-121277989D01*
X177433879Y-120747358D01*
X176741431Y-120459828D01*
X175991659Y-120459174D01*
X175298709Y-120745494D01*
X174768078Y-121275201D01*
X174480548Y-121967649D01*
X174479894Y-122717421D01*
X170724570Y-122717421D01*
X170724570Y-121428510D01*
X170680292Y-121193193D01*
X170541220Y-120977069D01*
X170329020Y-120832079D01*
X170077130Y-120781070D01*
X168078150Y-120781070D01*
X167842833Y-120825348D01*
X167626709Y-120964420D01*
X167481719Y-121176620D01*
X167430710Y-121428510D01*
X159721290Y-121428510D01*
X159677012Y-121193193D01*
X159537940Y-120977069D01*
X159325740Y-120832079D01*
X159073850Y-120781070D01*
X157074870Y-120781070D01*
X156839553Y-120825348D01*
X156623429Y-120964420D01*
X156478439Y-121176620D01*
X156427430Y-121428510D01*
X107390000Y-121428510D01*
X107390000Y-118364000D01*
X119614723Y-118364000D01*
X119693508Y-118760077D01*
X119917867Y-119095856D01*
X120253646Y-119320215D01*
X120649723Y-119399000D01*
X120690277Y-119399000D01*
X121086354Y-119320215D01*
X121141406Y-119283431D01*
X121160302Y-119302327D01*
X121393691Y-119399000D01*
X121634250Y-119399000D01*
X121793000Y-119240250D01*
X121793000Y-118491000D01*
X122047000Y-118491000D01*
X122047000Y-119240250D01*
X122205750Y-119399000D01*
X122446309Y-119399000D01*
X122679698Y-119302327D01*
X122858327Y-119123699D01*
X122955000Y-118890310D01*
X122955000Y-118649750D01*
X122796250Y-118491000D01*
X122047000Y-118491000D01*
X121793000Y-118491000D01*
X121773000Y-118491000D01*
X121773000Y-118237000D01*
X121793000Y-118237000D01*
X121793000Y-117487750D01*
X122047000Y-117487750D01*
X122047000Y-118237000D01*
X122796250Y-118237000D01*
X122955000Y-118078250D01*
X122955000Y-117837690D01*
X122858327Y-117604301D01*
X122679698Y-117425673D01*
X122446309Y-117329000D01*
X122205750Y-117329000D01*
X122047000Y-117487750D01*
X121793000Y-117487750D01*
X121634250Y-117329000D01*
X121393691Y-117329000D01*
X121160302Y-117425673D01*
X121141406Y-117444569D01*
X121086354Y-117407785D01*
X120690277Y-117329000D01*
X120649723Y-117329000D01*
X120253646Y-117407785D01*
X119917867Y-117632144D01*
X119693508Y-117967923D01*
X119614723Y-118364000D01*
X107390000Y-118364000D01*
X107390000Y-87344250D01*
X122813070Y-87344250D01*
X122813070Y-89343230D01*
X122857348Y-89578547D01*
X122996420Y-89794671D01*
X123208620Y-89939661D01*
X123460510Y-89990670D01*
X123700000Y-89990670D01*
X123700000Y-92837000D01*
X123757852Y-93127839D01*
X123922599Y-93374401D01*
X125215095Y-94666897D01*
X125135794Y-94682671D01*
X124959949Y-94800167D01*
X124847382Y-94875382D01*
X123831382Y-95891382D01*
X123638671Y-96179794D01*
X123571000Y-96520000D01*
X123571000Y-96699330D01*
X123460510Y-96699330D01*
X123225193Y-96743608D01*
X123009069Y-96882680D01*
X122864079Y-97094880D01*
X122813070Y-97346770D01*
X122813070Y-99345750D01*
X122857348Y-99581067D01*
X122996420Y-99797191D01*
X123208620Y-99942181D01*
X123460510Y-99993190D01*
X125459490Y-99993190D01*
X125694807Y-99948912D01*
X125910931Y-99809840D01*
X126055921Y-99597640D01*
X126106930Y-99345750D01*
X126106930Y-97346770D01*
X126062652Y-97111453D01*
X125923580Y-96895329D01*
X125711380Y-96750339D01*
X125524701Y-96712535D01*
X125844236Y-96393000D01*
X128155764Y-96393000D01*
X128335094Y-96572330D01*
X127016510Y-96572330D01*
X126781193Y-96616608D01*
X126565069Y-96755680D01*
X126420079Y-96967880D01*
X126369070Y-97219770D01*
X126369070Y-99218750D01*
X126413348Y-99454067D01*
X126552420Y-99670191D01*
X126764620Y-99815181D01*
X127016510Y-99866190D01*
X127564954Y-99866190D01*
X128143000Y-100444236D01*
X128143000Y-112776000D01*
X128210671Y-113116206D01*
X128373703Y-113360200D01*
X128403382Y-113404618D01*
X130175000Y-115176236D01*
X130175000Y-117396774D01*
X129834277Y-117329000D01*
X129793723Y-117329000D01*
X129397646Y-117407785D01*
X129061867Y-117632144D01*
X128837508Y-117967923D01*
X128758723Y-118364000D01*
X128837508Y-118760077D01*
X129061867Y-119095856D01*
X129397646Y-119320215D01*
X129793723Y-119399000D01*
X129834277Y-119399000D01*
X130230354Y-119320215D01*
X130292489Y-119278698D01*
X130412110Y-119360431D01*
X130664000Y-119411440D01*
X131464000Y-119411440D01*
X131699317Y-119367162D01*
X131876730Y-119253000D01*
X136588564Y-119253000D01*
X137344182Y-120008618D01*
X137632594Y-120201329D01*
X137972800Y-120269000D01*
X154736800Y-120269000D01*
X155077006Y-120201329D01*
X155365418Y-120008618D01*
X156692947Y-118681089D01*
X177710777Y-118681089D01*
X177839985Y-118973859D01*
X178540143Y-119242071D01*
X179289644Y-119221928D01*
X179888535Y-118973859D01*
X180017743Y-118681089D01*
X178864260Y-117527605D01*
X177710777Y-118681089D01*
X156692947Y-118681089D01*
X160120266Y-115253770D01*
X161421070Y-115253770D01*
X161421070Y-117252750D01*
X161465348Y-117488067D01*
X161604420Y-117704191D01*
X161816620Y-117849181D01*
X162068510Y-117900190D01*
X164067490Y-117900190D01*
X164302807Y-117855912D01*
X164518931Y-117716840D01*
X164663921Y-117504640D01*
X164714930Y-117252750D01*
X164714930Y-115253770D01*
X167009070Y-115253770D01*
X167009070Y-117252750D01*
X167053348Y-117488067D01*
X167192420Y-117704191D01*
X167404620Y-117849181D01*
X167656510Y-117900190D01*
X169655490Y-117900190D01*
X169890807Y-117855912D01*
X170106931Y-117716840D01*
X170251921Y-117504640D01*
X170302930Y-117252750D01*
X170302930Y-117023883D01*
X176970189Y-117023883D01*
X176990332Y-117773384D01*
X177238401Y-118372275D01*
X177531171Y-118501483D01*
X178684655Y-117348000D01*
X179043865Y-117348000D01*
X180197349Y-118501483D01*
X180490119Y-118372275D01*
X180758331Y-117672117D01*
X180738188Y-116922616D01*
X180490119Y-116323725D01*
X180197349Y-116194517D01*
X179043865Y-117348000D01*
X178684655Y-117348000D01*
X177531171Y-116194517D01*
X177238401Y-116323725D01*
X176970189Y-117023883D01*
X170302930Y-117023883D01*
X170302930Y-116014911D01*
X177710777Y-116014911D01*
X178864260Y-117168395D01*
X180017743Y-116014911D01*
X179888535Y-115722141D01*
X179188377Y-115453929D01*
X178438876Y-115474072D01*
X177839985Y-115722141D01*
X177710777Y-116014911D01*
X170302930Y-116014911D01*
X170302930Y-115253770D01*
X170258652Y-115018453D01*
X170119580Y-114802329D01*
X169907380Y-114657339D01*
X169655490Y-114606330D01*
X167656510Y-114606330D01*
X167421193Y-114650608D01*
X167205069Y-114789680D01*
X167060079Y-115001880D01*
X167009070Y-115253770D01*
X164714930Y-115253770D01*
X164670652Y-115018453D01*
X164531580Y-114802329D01*
X164319380Y-114657339D01*
X164067490Y-114606330D01*
X162068510Y-114606330D01*
X161833193Y-114650608D01*
X161617069Y-114789680D01*
X161472079Y-115001880D01*
X161421070Y-115253770D01*
X160120266Y-115253770D01*
X162013836Y-113360200D01*
X162435540Y-113360200D01*
X162775746Y-113292529D01*
X163064158Y-113099818D01*
X163438915Y-112725061D01*
X174479894Y-112725061D01*
X174766214Y-113418011D01*
X175295921Y-113948642D01*
X175988369Y-114236172D01*
X176738141Y-114236826D01*
X177431091Y-113950506D01*
X177961722Y-113420799D01*
X178249252Y-112728351D01*
X178249259Y-112719981D01*
X186976694Y-112719981D01*
X187263014Y-113412931D01*
X187792721Y-113943562D01*
X188485169Y-114231092D01*
X189234941Y-114231746D01*
X189927891Y-113945426D01*
X190458522Y-113415719D01*
X190746052Y-112723271D01*
X190746706Y-111973499D01*
X190460386Y-111280549D01*
X189930679Y-110749918D01*
X189238231Y-110462388D01*
X188488459Y-110461734D01*
X187795509Y-110748054D01*
X187264878Y-111277761D01*
X186977348Y-111970209D01*
X186976694Y-112719981D01*
X178249259Y-112719981D01*
X178249906Y-111978579D01*
X178078274Y-111563196D01*
X178490269Y-111734272D01*
X179240041Y-111734926D01*
X179932991Y-111448606D01*
X180463622Y-110918899D01*
X180751152Y-110226451D01*
X180751806Y-109476679D01*
X180465486Y-108783729D01*
X179935779Y-108253098D01*
X179243331Y-107965568D01*
X178493559Y-107964914D01*
X177800609Y-108251234D01*
X177269978Y-108780941D01*
X176982448Y-109473389D01*
X176981794Y-110223161D01*
X177153426Y-110638544D01*
X176741431Y-110467468D01*
X175991659Y-110466814D01*
X175298709Y-110753134D01*
X174768078Y-111282841D01*
X174480548Y-111975289D01*
X174479894Y-112725061D01*
X163438915Y-112725061D01*
X168266306Y-107897670D01*
X169655490Y-107897670D01*
X169890807Y-107853392D01*
X170106931Y-107714320D01*
X170251921Y-107502120D01*
X170302930Y-107250230D01*
X170302930Y-105251250D01*
X170258652Y-105015933D01*
X170119580Y-104799809D01*
X169907380Y-104654819D01*
X169655490Y-104603810D01*
X167656510Y-104603810D01*
X167421193Y-104648088D01*
X167205069Y-104787160D01*
X167060079Y-104999360D01*
X167009070Y-105251250D01*
X167009070Y-106640434D01*
X164810504Y-108839000D01*
X160822095Y-108839000D01*
X160813662Y-108794183D01*
X160674590Y-108578059D01*
X160462390Y-108433069D01*
X160210500Y-108382060D01*
X159525303Y-108382060D01*
X159593615Y-108336415D01*
X160406416Y-107523615D01*
X160537653Y-107327204D01*
X160571596Y-107276405D01*
X160629600Y-106984800D01*
X160629600Y-104889970D01*
X161421070Y-105681440D01*
X161421070Y-107250230D01*
X161465348Y-107485547D01*
X161604420Y-107701671D01*
X161816620Y-107846661D01*
X162068510Y-107897670D01*
X164067490Y-107897670D01*
X164302807Y-107853392D01*
X164518931Y-107714320D01*
X164663921Y-107502120D01*
X164714930Y-107250230D01*
X164714930Y-105251250D01*
X164670652Y-105015933D01*
X164531580Y-104799809D01*
X164319380Y-104654819D01*
X164067490Y-104603810D01*
X162498700Y-104603810D01*
X161899600Y-104004710D01*
X161899600Y-98755200D01*
X161841596Y-98463595D01*
X161676415Y-98216385D01*
X159644415Y-96184385D01*
X159566940Y-96132618D01*
X159397205Y-96019204D01*
X159105600Y-95961200D01*
X158659230Y-95961200D01*
X158211925Y-95513895D01*
X158211962Y-95471233D01*
X158069917Y-95127457D01*
X157807127Y-94864208D01*
X157463599Y-94721562D01*
X157091633Y-94721238D01*
X156747857Y-94863283D01*
X156484608Y-95126073D01*
X156341962Y-95469601D01*
X156341638Y-95841567D01*
X156483683Y-96185343D01*
X156746473Y-96448592D01*
X157090001Y-96591238D01*
X157134046Y-96591276D01*
X157804785Y-97262015D01*
X158051995Y-97427196D01*
X158240025Y-97464598D01*
X158056833Y-97464438D01*
X157713057Y-97606483D01*
X157449808Y-97869273D01*
X157307162Y-98212801D01*
X157306838Y-98584767D01*
X157448883Y-98928543D01*
X157711673Y-99191792D01*
X158055201Y-99334438D01*
X158099246Y-99334476D01*
X159105600Y-100340831D01*
X159105600Y-103681397D01*
X158924727Y-103500208D01*
X158581199Y-103357562D01*
X158209233Y-103357238D01*
X157865457Y-103499283D01*
X157602208Y-103762073D01*
X157508561Y-103987600D01*
X145389600Y-103987600D01*
X145097995Y-104045604D01*
X144850785Y-104210785D01*
X143733185Y-105328385D01*
X143568004Y-105575595D01*
X143510000Y-105867200D01*
X143510000Y-108604461D01*
X143142173Y-108971647D01*
X143001906Y-109309446D01*
X142863146Y-108973620D01*
X142488353Y-108598173D01*
X141998413Y-108394732D01*
X141467914Y-108394269D01*
X140977620Y-108596854D01*
X140602173Y-108971647D01*
X140461906Y-109309446D01*
X140323146Y-108973620D01*
X139948353Y-108598173D01*
X139458413Y-108394732D01*
X138927914Y-108394269D01*
X138437620Y-108596854D01*
X138062173Y-108971647D01*
X137858732Y-109461587D01*
X137858269Y-109992086D01*
X138060854Y-110482380D01*
X138435647Y-110857827D01*
X138925587Y-111061268D01*
X139456086Y-111061731D01*
X139946380Y-110859146D01*
X140321827Y-110484353D01*
X140462094Y-110146554D01*
X140600854Y-110482380D01*
X140843000Y-110724949D01*
X140843000Y-114300000D01*
X140910671Y-114640206D01*
X141022788Y-114808000D01*
X141103382Y-114928618D01*
X141478000Y-115303236D01*
X141478000Y-116030879D01*
X141370569Y-116188110D01*
X141319560Y-116440000D01*
X141319560Y-117240000D01*
X141363838Y-117475317D01*
X141502910Y-117691441D01*
X141715110Y-117836431D01*
X141967000Y-117887440D01*
X142767000Y-117887440D01*
X143002317Y-117843162D01*
X143155865Y-117744357D01*
X143330875Y-117834679D01*
X143490000Y-117708443D01*
X143490000Y-116967000D01*
X143744000Y-116967000D01*
X143744000Y-117708443D01*
X143903125Y-117834679D01*
X144242000Y-117659786D01*
X144580875Y-117834679D01*
X144740000Y-117708443D01*
X144740000Y-116967000D01*
X143744000Y-116967000D01*
X143490000Y-116967000D01*
X143470000Y-116967000D01*
X143470000Y-116713000D01*
X143490000Y-116713000D01*
X143490000Y-115971557D01*
X143744000Y-115971557D01*
X143744000Y-116713000D01*
X144740000Y-116713000D01*
X144740000Y-115971557D01*
X144580875Y-115845321D01*
X144242000Y-116020214D01*
X143903125Y-115845321D01*
X143744000Y-115971557D01*
X143490000Y-115971557D01*
X143330875Y-115845321D01*
X143256000Y-115883964D01*
X143256000Y-114935000D01*
X143227094Y-114789680D01*
X143188330Y-114594795D01*
X142995618Y-114306382D01*
X142621000Y-113931764D01*
X142621000Y-110724760D01*
X142861827Y-110484353D01*
X143002094Y-110146554D01*
X143140854Y-110482380D01*
X143383000Y-110724949D01*
X143383000Y-113792000D01*
X143450671Y-114132206D01*
X143643382Y-114420618D01*
X145105704Y-115882940D01*
X144994000Y-115971557D01*
X144994000Y-116713000D01*
X145014000Y-116713000D01*
X145014000Y-116967000D01*
X144994000Y-116967000D01*
X144994000Y-117708443D01*
X145153125Y-117834679D01*
X145494519Y-117658486D01*
X145700646Y-117796215D01*
X146096723Y-117875000D01*
X146137277Y-117875000D01*
X146533354Y-117796215D01*
X146742000Y-117656803D01*
X146950646Y-117796215D01*
X147346723Y-117875000D01*
X147387277Y-117875000D01*
X147783354Y-117796215D01*
X147992000Y-117656803D01*
X148200646Y-117796215D01*
X148596723Y-117875000D01*
X148637277Y-117875000D01*
X149033354Y-117796215D01*
X149242000Y-117656803D01*
X149450646Y-117796215D01*
X149846723Y-117875000D01*
X149887277Y-117875000D01*
X150283354Y-117796215D01*
X150492000Y-117656803D01*
X150700646Y-117796215D01*
X151096723Y-117875000D01*
X151137277Y-117875000D01*
X151533354Y-117796215D01*
X151869133Y-117571856D01*
X152093492Y-117236077D01*
X152172277Y-116840000D01*
X152093492Y-116443923D01*
X151869133Y-116108144D01*
X151533354Y-115883785D01*
X151137277Y-115805000D01*
X151096723Y-115805000D01*
X150756000Y-115872774D01*
X150756000Y-115169236D01*
X152520618Y-113404618D01*
X152713329Y-113116206D01*
X152781000Y-112776000D01*
X152781000Y-110724760D01*
X153021827Y-110484353D01*
X153162094Y-110146554D01*
X153300854Y-110482380D01*
X153675647Y-110857827D01*
X154165587Y-111061268D01*
X154696086Y-111061731D01*
X155186380Y-110859146D01*
X155561827Y-110484353D01*
X155702094Y-110146554D01*
X155840854Y-110482380D01*
X156215647Y-110857827D01*
X156705587Y-111061268D01*
X157236086Y-111061731D01*
X157726380Y-110859146D01*
X158101827Y-110484353D01*
X158166060Y-110329663D01*
X158166060Y-110426500D01*
X158210338Y-110661817D01*
X158349410Y-110877941D01*
X158561610Y-111022931D01*
X158813500Y-111073940D01*
X160210500Y-111073940D01*
X160445817Y-111029662D01*
X160661941Y-110890590D01*
X160806931Y-110678390D01*
X160819363Y-110617000D01*
X163032504Y-110617000D01*
X162067304Y-111582200D01*
X161645600Y-111582200D01*
X161305395Y-111649870D01*
X161016982Y-111842582D01*
X154368564Y-118491000D01*
X138341036Y-118491000D01*
X137585418Y-117735382D01*
X137474590Y-117661329D01*
X137297006Y-117542671D01*
X136956800Y-117475000D01*
X131953000Y-117475000D01*
X131953000Y-114808000D01*
X131885329Y-114467794D01*
X131692618Y-114179382D01*
X129921000Y-112407764D01*
X129921000Y-107744338D01*
X133615190Y-107744338D01*
X133825686Y-108253777D01*
X134215113Y-108643884D01*
X134724184Y-108855269D01*
X135275398Y-108855750D01*
X135784837Y-108645254D01*
X136174944Y-108255827D01*
X136386329Y-107746756D01*
X136386810Y-107195542D01*
X136176314Y-106686103D01*
X135786887Y-106295996D01*
X135277816Y-106084611D01*
X134726602Y-106084130D01*
X134217163Y-106294626D01*
X133827056Y-106684053D01*
X133615671Y-107193124D01*
X133615190Y-107744338D01*
X129921000Y-107744338D01*
X129921000Y-100076000D01*
X129853329Y-99735794D01*
X129660618Y-99447382D01*
X129624038Y-99410802D01*
X129662930Y-99218750D01*
X129662930Y-97900166D01*
X129667000Y-97904236D01*
X129667000Y-98044000D01*
X129734671Y-98384206D01*
X129868682Y-98584767D01*
X129927382Y-98672618D01*
X132975382Y-101720618D01*
X133263794Y-101913329D01*
X133604000Y-101981000D01*
X133752800Y-101981000D01*
X133615671Y-102311244D01*
X133615190Y-102862458D01*
X133825686Y-103371897D01*
X134215113Y-103762004D01*
X134724184Y-103973389D01*
X135275398Y-103973870D01*
X135784837Y-103763374D01*
X136174944Y-103373947D01*
X136386329Y-102864876D01*
X136386810Y-102313662D01*
X136268409Y-102027109D01*
X136329167Y-102027162D01*
X136672943Y-101885117D01*
X136936192Y-101622327D01*
X137078838Y-101278799D01*
X137079162Y-100906833D01*
X136937117Y-100563057D01*
X136674327Y-100299808D01*
X136330799Y-100157162D01*
X135958833Y-100156838D01*
X135847112Y-100203000D01*
X135046890Y-100203000D01*
X135047162Y-99890833D01*
X134905117Y-99547057D01*
X134642327Y-99283808D01*
X134298799Y-99141162D01*
X134254754Y-99141124D01*
X132334000Y-97220370D01*
X132334000Y-96441338D01*
X133615190Y-96441338D01*
X133825686Y-96950777D01*
X134215113Y-97340884D01*
X134724184Y-97552269D01*
X135275398Y-97552750D01*
X135784837Y-97342254D01*
X136174944Y-96952827D01*
X136386329Y-96443756D01*
X136386810Y-95892542D01*
X136176314Y-95383103D01*
X135786887Y-94992996D01*
X135277816Y-94781611D01*
X134726602Y-94781130D01*
X134217163Y-94991626D01*
X133827056Y-95381053D01*
X133615671Y-95890124D01*
X133615190Y-96441338D01*
X132334000Y-96441338D01*
X132334000Y-87884000D01*
X132392004Y-88175605D01*
X132553567Y-88417400D01*
X132557185Y-88422815D01*
X133573185Y-89438815D01*
X133820395Y-89603996D01*
X134112000Y-89662000D01*
X134304370Y-89662000D01*
X134595705Y-89953335D01*
X134217163Y-90109746D01*
X133827056Y-90499173D01*
X133615671Y-91008244D01*
X133615190Y-91559458D01*
X133825686Y-92068897D01*
X134215113Y-92459004D01*
X134241000Y-92469753D01*
X134241000Y-92964000D01*
X134298852Y-93254839D01*
X134463599Y-93501401D01*
X137113878Y-96151680D01*
X137113838Y-96197167D01*
X137255883Y-96540943D01*
X137518673Y-96804192D01*
X137862201Y-96946838D01*
X138234167Y-96947162D01*
X138577943Y-96805117D01*
X138841192Y-96542327D01*
X138983838Y-96198799D01*
X138984162Y-95826833D01*
X138842117Y-95483057D01*
X138579327Y-95219808D01*
X138235799Y-95077162D01*
X138188923Y-95077121D01*
X135761000Y-92649198D01*
X135761000Y-92470223D01*
X135784837Y-92460374D01*
X136174944Y-92070947D01*
X136332905Y-91690536D01*
X136398000Y-91755631D01*
X136398000Y-91948000D01*
X136456004Y-92239605D01*
X136496091Y-92299599D01*
X136621185Y-92486815D01*
X137240875Y-93106505D01*
X137240838Y-93149167D01*
X137382883Y-93492943D01*
X137645673Y-93756192D01*
X137989201Y-93898838D01*
X138361167Y-93899162D01*
X138704943Y-93757117D01*
X138968192Y-93494327D01*
X139110838Y-93150799D01*
X139111162Y-92778833D01*
X138969117Y-92435057D01*
X138706327Y-92171808D01*
X138362799Y-92029162D01*
X138318754Y-92029124D01*
X137922000Y-91632370D01*
X137922000Y-91440000D01*
X137898352Y-91321114D01*
X137989201Y-91358838D01*
X138361167Y-91359162D01*
X138704943Y-91217117D01*
X138968192Y-90954327D01*
X139110838Y-90610799D01*
X139111162Y-90238833D01*
X138972373Y-89902938D01*
X139111343Y-89845517D01*
X139374592Y-89582727D01*
X139517238Y-89239199D01*
X139517562Y-88867233D01*
X139375517Y-88523457D01*
X139112727Y-88260208D01*
X138769199Y-88117562D01*
X138397233Y-88117238D01*
X138233656Y-88184826D01*
X133244609Y-83195779D01*
X133599354Y-83125215D01*
X133808000Y-82985803D01*
X134016646Y-83125215D01*
X134412723Y-83204000D01*
X134453277Y-83204000D01*
X134849354Y-83125215D01*
X135058000Y-82985803D01*
X135266646Y-83125215D01*
X135662723Y-83204000D01*
X135703277Y-83204000D01*
X136099354Y-83125215D01*
X136308000Y-82985803D01*
X136516646Y-83125215D01*
X136912723Y-83204000D01*
X136953277Y-83204000D01*
X137349354Y-83125215D01*
X137685133Y-82900856D01*
X137909492Y-82565077D01*
X137988277Y-82169000D01*
X137909492Y-81772923D01*
X137685133Y-81437144D01*
X137349354Y-81212785D01*
X136953277Y-81134000D01*
X136912723Y-81134000D01*
X136516646Y-81212785D01*
X136308000Y-81352197D01*
X136099354Y-81212785D01*
X135703277Y-81134000D01*
X135662723Y-81134000D01*
X135266646Y-81212785D01*
X135058000Y-81352197D01*
X134849354Y-81212785D01*
X134453277Y-81134000D01*
X134412723Y-81134000D01*
X134016646Y-81212785D01*
X133808000Y-81352197D01*
X133599354Y-81212785D01*
X133203277Y-81134000D01*
X133162723Y-81134000D01*
X132766646Y-81212785D01*
X132558000Y-81352197D01*
X132349354Y-81212785D01*
X131953277Y-81134000D01*
X131912723Y-81134000D01*
X131572000Y-81201774D01*
X131572000Y-80606836D01*
X132905436Y-79273400D01*
X152895364Y-79273400D01*
X159086582Y-85464618D01*
X159374994Y-85657329D01*
X159715200Y-85725000D01*
X162880933Y-85725000D01*
X162994971Y-85895670D01*
X163309752Y-86106000D01*
X162994971Y-86316330D01*
X162670115Y-86802511D01*
X162556041Y-87376000D01*
X162670115Y-87949489D01*
X162994971Y-88435670D01*
X163309752Y-88646000D01*
X162994971Y-88856330D01*
X162670115Y-89342511D01*
X162556041Y-89916000D01*
X162670115Y-90489489D01*
X162994971Y-90975670D01*
X163309752Y-91186000D01*
X162994971Y-91396330D01*
X162670115Y-91882511D01*
X162560000Y-92436097D01*
X162560000Y-90627200D01*
X162501996Y-90335595D01*
X162336815Y-90088385D01*
X161829303Y-89580873D01*
X162160967Y-89581162D01*
X162504743Y-89439117D01*
X162767992Y-89176327D01*
X162910638Y-88832799D01*
X162910962Y-88460833D01*
X162768917Y-88117057D01*
X162506127Y-87853808D01*
X162162599Y-87711162D01*
X161790633Y-87710838D01*
X161446857Y-87852883D01*
X161237575Y-88061800D01*
X160691231Y-88061800D01*
X160330215Y-87700785D01*
X160269463Y-87660192D01*
X160083005Y-87535604D01*
X159791400Y-87477600D01*
X158904111Y-87477600D01*
X158899327Y-87472808D01*
X158555799Y-87330162D01*
X158183833Y-87329838D01*
X157840057Y-87471883D01*
X157576808Y-87734673D01*
X157434162Y-88078201D01*
X157433838Y-88450167D01*
X157575883Y-88793943D01*
X157630976Y-88849132D01*
X157500608Y-88979273D01*
X157357962Y-89322801D01*
X157357829Y-89474979D01*
X157103457Y-89580083D01*
X156840208Y-89842873D01*
X156697562Y-90186401D01*
X156697238Y-90558367D01*
X156839283Y-90902143D01*
X157102073Y-91165392D01*
X157445601Y-91308038D01*
X157489646Y-91308076D01*
X158007985Y-91826415D01*
X158255195Y-91991596D01*
X158546800Y-92049600D01*
X160119934Y-92049600D01*
X160150073Y-92079792D01*
X160493601Y-92222438D01*
X160865567Y-92222762D01*
X161036000Y-92152341D01*
X161036000Y-95148400D01*
X161094004Y-95440005D01*
X161180523Y-95569489D01*
X161259185Y-95687215D01*
X162376785Y-96804815D01*
X162623995Y-96969996D01*
X162666927Y-96978536D01*
X162556041Y-97536000D01*
X162670115Y-98109489D01*
X162994971Y-98595670D01*
X163309752Y-98806000D01*
X162994971Y-99016330D01*
X162670115Y-99502511D01*
X162556041Y-100076000D01*
X162670115Y-100649489D01*
X162994971Y-101135670D01*
X163309752Y-101346000D01*
X162994971Y-101556330D01*
X162670115Y-102042511D01*
X162556041Y-102616000D01*
X162670115Y-103189489D01*
X162994971Y-103675670D01*
X163481152Y-104000526D01*
X164054641Y-104114600D01*
X164113359Y-104114600D01*
X164686848Y-104000526D01*
X165173029Y-103675670D01*
X165354000Y-103404828D01*
X165534971Y-103675670D01*
X166021152Y-104000526D01*
X166594641Y-104114600D01*
X166653359Y-104114600D01*
X167226848Y-104000526D01*
X167516388Y-103807061D01*
X172338758Y-103807061D01*
X172550990Y-104320703D01*
X172943630Y-104714029D01*
X173456900Y-104927157D01*
X174012661Y-104927642D01*
X174526303Y-104715410D01*
X174848274Y-104394000D01*
X183322587Y-104394000D01*
X183532513Y-105449369D01*
X184130332Y-106344068D01*
X185025031Y-106941887D01*
X186080400Y-107151813D01*
X187135769Y-106941887D01*
X188030468Y-106344068D01*
X188628287Y-105449369D01*
X188838213Y-104394000D01*
X188628287Y-103338631D01*
X188030468Y-102443932D01*
X187135769Y-101846113D01*
X186080400Y-101636187D01*
X185025031Y-101846113D01*
X184130332Y-102443932D01*
X183532513Y-103338631D01*
X183322587Y-104394000D01*
X174848274Y-104394000D01*
X174919629Y-104322770D01*
X175132757Y-103809500D01*
X175133242Y-103253739D01*
X174921010Y-102740097D01*
X174528370Y-102346771D01*
X174015100Y-102133643D01*
X173459339Y-102133158D01*
X172945697Y-102345390D01*
X172552371Y-102738030D01*
X172339243Y-103251300D01*
X172338758Y-103807061D01*
X167516388Y-103807061D01*
X167713029Y-103675670D01*
X167827067Y-103505000D01*
X170180000Y-103505000D01*
X170520206Y-103437329D01*
X170808618Y-103244618D01*
X175120236Y-98933000D01*
X175228560Y-98933000D01*
X175228560Y-99460000D01*
X175272838Y-99695317D01*
X175411910Y-99911441D01*
X175624110Y-100056431D01*
X175876000Y-100107440D01*
X176676000Y-100107440D01*
X176911317Y-100063162D01*
X177088730Y-99949000D01*
X182757070Y-99949000D01*
X182757070Y-99980750D01*
X182801348Y-100216067D01*
X182940420Y-100432191D01*
X183152620Y-100577181D01*
X183404510Y-100628190D01*
X185403490Y-100628190D01*
X185638807Y-100583912D01*
X185854931Y-100444840D01*
X185999921Y-100232640D01*
X186050930Y-99980750D01*
X186050930Y-97981770D01*
X186006652Y-97746453D01*
X185867580Y-97530329D01*
X185655380Y-97385339D01*
X185403490Y-97334330D01*
X183404510Y-97334330D01*
X183169193Y-97378608D01*
X182953069Y-97517680D01*
X182808079Y-97729880D01*
X182757070Y-97981770D01*
X182757070Y-98171000D01*
X177243226Y-98171000D01*
X177311000Y-97830277D01*
X177311000Y-97789723D01*
X177232215Y-97393646D01*
X177094486Y-97187519D01*
X177270679Y-96846125D01*
X177144443Y-96687000D01*
X176403000Y-96687000D01*
X176403000Y-96707000D01*
X176149000Y-96707000D01*
X176149000Y-96687000D01*
X175407557Y-96687000D01*
X175281321Y-96846125D01*
X175440731Y-97155000D01*
X174752000Y-97155000D01*
X174411794Y-97222671D01*
X174123382Y-97415382D01*
X169811764Y-101727000D01*
X167827067Y-101727000D01*
X167713029Y-101556330D01*
X167398248Y-101346000D01*
X167713029Y-101135670D01*
X168037885Y-100649489D01*
X168151959Y-100076000D01*
X168037885Y-99502511D01*
X167713029Y-99016330D01*
X167398248Y-98806000D01*
X167713029Y-98595670D01*
X168037885Y-98109489D01*
X168151959Y-97536000D01*
X168037885Y-96962511D01*
X167713029Y-96476330D01*
X167410034Y-96273875D01*
X175281321Y-96273875D01*
X175407557Y-96433000D01*
X176149000Y-96433000D01*
X176149000Y-95693002D01*
X176403000Y-95693002D01*
X176403000Y-96433000D01*
X177144443Y-96433000D01*
X177270679Y-96273875D01*
X177085468Y-95915008D01*
X176777023Y-95654335D01*
X176562123Y-95565334D01*
X176403000Y-95693002D01*
X176149000Y-95693002D01*
X175989877Y-95565334D01*
X175774977Y-95654335D01*
X175466532Y-95915008D01*
X175281321Y-96273875D01*
X167410034Y-96273875D01*
X167398248Y-96266000D01*
X167713029Y-96055670D01*
X168037885Y-95569489D01*
X168151959Y-94996000D01*
X168037885Y-94422511D01*
X167713029Y-93936330D01*
X167398248Y-93726000D01*
X167713029Y-93515670D01*
X168037885Y-93029489D01*
X168151959Y-92456000D01*
X168037885Y-91882511D01*
X167713029Y-91396330D01*
X167398248Y-91186000D01*
X167713029Y-90975670D01*
X168037885Y-90489489D01*
X168151959Y-89916000D01*
X168037885Y-89342511D01*
X167713029Y-88856330D01*
X167398248Y-88646000D01*
X167713029Y-88435670D01*
X167827067Y-88265000D01*
X170370564Y-88265000D01*
X172416182Y-90310618D01*
X172704594Y-90503329D01*
X173044800Y-90571000D01*
X175228560Y-90571000D01*
X175228560Y-91332000D01*
X175272838Y-91567317D01*
X175411910Y-91783441D01*
X175624110Y-91928431D01*
X175876000Y-91979440D01*
X176676000Y-91979440D01*
X176911317Y-91935162D01*
X177088730Y-91821000D01*
X180187600Y-91821000D01*
X180527806Y-91753329D01*
X180816218Y-91560618D01*
X182509096Y-89867740D01*
X182757070Y-89867740D01*
X182757070Y-89978230D01*
X182801348Y-90213547D01*
X182940420Y-90429671D01*
X183152620Y-90574661D01*
X183404510Y-90625670D01*
X185403490Y-90625670D01*
X185638807Y-90581392D01*
X185854931Y-90442320D01*
X185999921Y-90230120D01*
X186050930Y-89978230D01*
X186050930Y-87979250D01*
X186006652Y-87743933D01*
X185867580Y-87527809D01*
X185655380Y-87382819D01*
X185403490Y-87331810D01*
X183404510Y-87331810D01*
X183169193Y-87376088D01*
X182953069Y-87515160D01*
X182808079Y-87727360D01*
X182757070Y-87979250D01*
X182757070Y-88089740D01*
X182140860Y-88089740D01*
X181800654Y-88157411D01*
X181601622Y-88290400D01*
X181512242Y-88350122D01*
X179819364Y-90043000D01*
X177243226Y-90043000D01*
X177311000Y-89702277D01*
X177311000Y-89661723D01*
X177232215Y-89265646D01*
X177094486Y-89059519D01*
X177270679Y-88718125D01*
X177144443Y-88559000D01*
X176403000Y-88559000D01*
X176403000Y-88579000D01*
X176149000Y-88579000D01*
X176149000Y-88559000D01*
X175407557Y-88559000D01*
X175281321Y-88718125D01*
X175319964Y-88793000D01*
X173413036Y-88793000D01*
X172765911Y-88145875D01*
X175281321Y-88145875D01*
X175407557Y-88305000D01*
X176149000Y-88305000D01*
X176149000Y-87565002D01*
X176403000Y-87565002D01*
X176403000Y-88305000D01*
X177144443Y-88305000D01*
X177270679Y-88145875D01*
X177085468Y-87787008D01*
X176777023Y-87526335D01*
X176562123Y-87437334D01*
X176403000Y-87565002D01*
X176149000Y-87565002D01*
X175989877Y-87437334D01*
X175774977Y-87526335D01*
X175466532Y-87787008D01*
X175281321Y-88145875D01*
X172765911Y-88145875D01*
X171367418Y-86747382D01*
X171357867Y-86741000D01*
X171079006Y-86554671D01*
X170738800Y-86487000D01*
X167827067Y-86487000D01*
X167713029Y-86316330D01*
X167691977Y-86302263D01*
X167847298Y-86237927D01*
X168025927Y-86059299D01*
X168122600Y-85825910D01*
X168122600Y-85121750D01*
X167963850Y-84963000D01*
X166751000Y-84963000D01*
X166751000Y-84983000D01*
X166497000Y-84983000D01*
X166497000Y-84963000D01*
X166477000Y-84963000D01*
X166477000Y-84709000D01*
X166497000Y-84709000D01*
X166497000Y-84689000D01*
X166751000Y-84689000D01*
X166751000Y-84709000D01*
X167963850Y-84709000D01*
X168122600Y-84550250D01*
X168122600Y-83896200D01*
X168592564Y-83896200D01*
X170966838Y-86270474D01*
X171012483Y-86380943D01*
X171275273Y-86644192D01*
X171618801Y-86786838D01*
X171990767Y-86787162D01*
X172334543Y-86645117D01*
X172597792Y-86382327D01*
X172740438Y-86038799D01*
X172740762Y-85666833D01*
X172598717Y-85323057D01*
X172335927Y-85059808D01*
X172224287Y-85013451D01*
X169589418Y-82378582D01*
X169522104Y-82333604D01*
X169301006Y-82185871D01*
X168960800Y-82118200D01*
X164795200Y-82118200D01*
X164454994Y-82185871D01*
X164233896Y-82333604D01*
X164166582Y-82378582D01*
X163455382Y-83089782D01*
X163262671Y-83378194D01*
X163212371Y-83631068D01*
X162994971Y-83776330D01*
X162880933Y-83947000D01*
X160083436Y-83947000D01*
X153892218Y-77755782D01*
X153785733Y-77684631D01*
X153603806Y-77563071D01*
X153263600Y-77495400D01*
X132537200Y-77495400D01*
X132196994Y-77563071D01*
X132015067Y-77684631D01*
X131908582Y-77755782D01*
X130054382Y-79609982D01*
X129861671Y-79898394D01*
X129794000Y-80238600D01*
X129794000Y-81359879D01*
X129686569Y-81517110D01*
X129635560Y-81769000D01*
X129635560Y-82569000D01*
X129679838Y-82804317D01*
X129818910Y-83020441D01*
X130031110Y-83165431D01*
X130283000Y-83216440D01*
X131083000Y-83216440D01*
X131251706Y-83184696D01*
X131274404Y-83298805D01*
X131376415Y-83451474D01*
X131439585Y-83546015D01*
X134868248Y-86974678D01*
X134806799Y-86949162D01*
X134434833Y-86948838D01*
X134091057Y-87090883D01*
X133858000Y-87323534D01*
X133858000Y-86360000D01*
X133799996Y-86068395D01*
X133634815Y-85821185D01*
X131602815Y-83789185D01*
X131496878Y-83718400D01*
X131355605Y-83624004D01*
X131064000Y-83566000D01*
X128839631Y-83566000D01*
X126776815Y-81503185D01*
X126673741Y-81434313D01*
X126529605Y-81338004D01*
X126238000Y-81280000D01*
X126036019Y-81280000D01*
X125745354Y-81085785D01*
X125349277Y-81007000D01*
X125308723Y-81007000D01*
X124912646Y-81085785D01*
X124857594Y-81122569D01*
X124838698Y-81103673D01*
X124605309Y-81007000D01*
X124364750Y-81007000D01*
X124206000Y-81165750D01*
X124206000Y-81915000D01*
X124226000Y-81915000D01*
X124226000Y-82169000D01*
X124206000Y-82169000D01*
X124206000Y-82918250D01*
X124364750Y-83077000D01*
X124605309Y-83077000D01*
X124838698Y-82980327D01*
X124857594Y-82961431D01*
X124912646Y-82998215D01*
X125308723Y-83077000D01*
X125349277Y-83077000D01*
X125745354Y-82998215D01*
X125967891Y-82849521D01*
X127985184Y-84866815D01*
X128232395Y-85031996D01*
X128524000Y-85090000D01*
X130748370Y-85090000D01*
X131591386Y-85933016D01*
X131386833Y-85932838D01*
X131043057Y-86074883D01*
X130779808Y-86337673D01*
X130637162Y-86681201D01*
X130636838Y-87053167D01*
X130778883Y-87396943D01*
X130810000Y-87428114D01*
X130810000Y-93927664D01*
X130705327Y-93822808D01*
X130361799Y-93680162D01*
X129989833Y-93679838D01*
X129646057Y-93821883D01*
X129612882Y-93855000D01*
X126552802Y-93855000D01*
X125220000Y-92522198D01*
X125220000Y-89990670D01*
X125459490Y-89990670D01*
X125694807Y-89946392D01*
X125910931Y-89807320D01*
X126055921Y-89595120D01*
X126106930Y-89343230D01*
X126106930Y-87344250D01*
X126083034Y-87217250D01*
X126369070Y-87217250D01*
X126369070Y-89216230D01*
X126413348Y-89451547D01*
X126552420Y-89667671D01*
X126764620Y-89812661D01*
X127016510Y-89863670D01*
X129015490Y-89863670D01*
X129250807Y-89819392D01*
X129466931Y-89680320D01*
X129611921Y-89468120D01*
X129662930Y-89216230D01*
X129662930Y-87217250D01*
X129618652Y-86981933D01*
X129479580Y-86765809D01*
X129267380Y-86620819D01*
X129015490Y-86569810D01*
X127016510Y-86569810D01*
X126781193Y-86614088D01*
X126565069Y-86753160D01*
X126420079Y-86965360D01*
X126369070Y-87217250D01*
X126083034Y-87217250D01*
X126062652Y-87108933D01*
X125923580Y-86892809D01*
X125711380Y-86747819D01*
X125459490Y-86696810D01*
X123460510Y-86696810D01*
X123225193Y-86741088D01*
X123009069Y-86880160D01*
X122864079Y-87092360D01*
X122813070Y-87344250D01*
X107390000Y-87344250D01*
X107390000Y-82327750D01*
X123044000Y-82327750D01*
X123044000Y-82568310D01*
X123140673Y-82801699D01*
X123319302Y-82980327D01*
X123552691Y-83077000D01*
X123793250Y-83077000D01*
X123952000Y-82918250D01*
X123952000Y-82169000D01*
X123202750Y-82169000D01*
X123044000Y-82327750D01*
X107390000Y-82327750D01*
X107390000Y-81515690D01*
X123044000Y-81515690D01*
X123044000Y-81756250D01*
X123202750Y-81915000D01*
X123952000Y-81915000D01*
X123952000Y-81165750D01*
X123793250Y-81007000D01*
X123552691Y-81007000D01*
X123319302Y-81103673D01*
X123140673Y-81282301D01*
X123044000Y-81515690D01*
X107390000Y-81515690D01*
X107390000Y-76402000D01*
X108866513Y-76402000D01*
X108285932Y-76789932D01*
X108285932Y-76789932D01*
G37*
X108285932Y-76789932D02*
X107688113Y-77684631D01*
X107478187Y-78740000D01*
X107688113Y-79795369D01*
X108285932Y-80690068D01*
X109180631Y-81287887D01*
X110236000Y-81497813D01*
X111291369Y-81287887D01*
X112186068Y-80690068D01*
X112783887Y-79795369D01*
X112993813Y-78740000D01*
X112783887Y-77684631D01*
X112186068Y-76789932D01*
X111605487Y-76402000D01*
X187765479Y-76402000D01*
X187279932Y-76726432D01*
X186682113Y-77621131D01*
X186472187Y-78676500D01*
X186682113Y-79731869D01*
X187279932Y-80626568D01*
X188174631Y-81224387D01*
X189230000Y-81434313D01*
X190285369Y-81224387D01*
X191180068Y-80626568D01*
X191777887Y-79731869D01*
X191987813Y-78676500D01*
X191777887Y-77621131D01*
X191180068Y-76726432D01*
X190694521Y-76402000D01*
X192330000Y-76402000D01*
X192330000Y-130354000D01*
X134308713Y-130354000D01*
X134308713Y-121703000D01*
X118167287Y-121703000D01*
X118167287Y-130354000D01*
X107390000Y-130354000D01*
X107390000Y-127000000D01*
X107478187Y-127000000D01*
X107688113Y-128055369D01*
X108285932Y-128950068D01*
X109180631Y-129547887D01*
X110236000Y-129757813D01*
X111291369Y-129547887D01*
X112186068Y-128950068D01*
X112783887Y-128055369D01*
X112993813Y-127000000D01*
X112783887Y-125944631D01*
X112186068Y-125049932D01*
X111291369Y-124452113D01*
X110236000Y-124242187D01*
X109180631Y-124452113D01*
X108285932Y-125049932D01*
X107688113Y-125944631D01*
X107478187Y-127000000D01*
X107390000Y-127000000D01*
X107390000Y-121428510D01*
X156427430Y-121428510D01*
X156427430Y-123427490D01*
X156471708Y-123662807D01*
X156610780Y-123878931D01*
X156822980Y-124023921D01*
X157074870Y-124074930D01*
X159073850Y-124074930D01*
X159309167Y-124030652D01*
X159525291Y-123891580D01*
X159670281Y-123679380D01*
X159721290Y-123427490D01*
X159721290Y-121428510D01*
X167430710Y-121428510D01*
X167430710Y-123427490D01*
X167474988Y-123662807D01*
X167614060Y-123878931D01*
X167826260Y-124023921D01*
X168078150Y-124074930D01*
X170077130Y-124074930D01*
X170312447Y-124030652D01*
X170528571Y-123891580D01*
X170673561Y-123679380D01*
X170724570Y-123427490D01*
X170724570Y-122717421D01*
X174479894Y-122717421D01*
X174766214Y-123410371D01*
X175295921Y-123941002D01*
X175988369Y-124228532D01*
X176738141Y-124229186D01*
X177153524Y-124057554D01*
X176982448Y-124469549D01*
X176981794Y-125219321D01*
X177268114Y-125912271D01*
X177797821Y-126442902D01*
X178490269Y-126730432D01*
X179240041Y-126731086D01*
X179932991Y-126444766D01*
X180463622Y-125915059D01*
X180751152Y-125222611D01*
X180751806Y-124472839D01*
X180465486Y-123779889D01*
X179935779Y-123249258D01*
X179243331Y-122961728D01*
X178493559Y-122961074D01*
X178078176Y-123132706D01*
X178248508Y-122722501D01*
X186976694Y-122722501D01*
X187263014Y-123415451D01*
X187792721Y-123946082D01*
X188485169Y-124233612D01*
X189234941Y-124234266D01*
X189927891Y-123947946D01*
X190458522Y-123418239D01*
X190746052Y-122725791D01*
X190746706Y-121976019D01*
X190460386Y-121283069D01*
X189930679Y-120752438D01*
X189238231Y-120464908D01*
X188488459Y-120464254D01*
X187795509Y-120750574D01*
X187264878Y-121280281D01*
X186977348Y-121972729D01*
X186976694Y-122722501D01*
X178248508Y-122722501D01*
X178249252Y-122720711D01*
X178249906Y-121970939D01*
X177963586Y-121277989D01*
X177433879Y-120747358D01*
X176741431Y-120459828D01*
X175991659Y-120459174D01*
X175298709Y-120745494D01*
X174768078Y-121275201D01*
X174480548Y-121967649D01*
X174479894Y-122717421D01*
X170724570Y-122717421D01*
X170724570Y-121428510D01*
X170680292Y-121193193D01*
X170541220Y-120977069D01*
X170329020Y-120832079D01*
X170077130Y-120781070D01*
X168078150Y-120781070D01*
X167842833Y-120825348D01*
X167626709Y-120964420D01*
X167481719Y-121176620D01*
X167430710Y-121428510D01*
X159721290Y-121428510D01*
X159677012Y-121193193D01*
X159537940Y-120977069D01*
X159325740Y-120832079D01*
X159073850Y-120781070D01*
X157074870Y-120781070D01*
X156839553Y-120825348D01*
X156623429Y-120964420D01*
X156478439Y-121176620D01*
X156427430Y-121428510D01*
X107390000Y-121428510D01*
X107390000Y-118364000D01*
X119614723Y-118364000D01*
X119693508Y-118760077D01*
X119917867Y-119095856D01*
X120253646Y-119320215D01*
X120649723Y-119399000D01*
X120690277Y-119399000D01*
X121086354Y-119320215D01*
X121141406Y-119283431D01*
X121160302Y-119302327D01*
X121393691Y-119399000D01*
X121634250Y-119399000D01*
X121793000Y-119240250D01*
X121793000Y-118491000D01*
X122047000Y-118491000D01*
X122047000Y-119240250D01*
X122205750Y-119399000D01*
X122446309Y-119399000D01*
X122679698Y-119302327D01*
X122858327Y-119123699D01*
X122955000Y-118890310D01*
X122955000Y-118649750D01*
X122796250Y-118491000D01*
X122047000Y-118491000D01*
X121793000Y-118491000D01*
X121773000Y-118491000D01*
X121773000Y-118237000D01*
X121793000Y-118237000D01*
X121793000Y-117487750D01*
X122047000Y-117487750D01*
X122047000Y-118237000D01*
X122796250Y-118237000D01*
X122955000Y-118078250D01*
X122955000Y-117837690D01*
X122858327Y-117604301D01*
X122679698Y-117425673D01*
X122446309Y-117329000D01*
X122205750Y-117329000D01*
X122047000Y-117487750D01*
X121793000Y-117487750D01*
X121634250Y-117329000D01*
X121393691Y-117329000D01*
X121160302Y-117425673D01*
X121141406Y-117444569D01*
X121086354Y-117407785D01*
X120690277Y-117329000D01*
X120649723Y-117329000D01*
X120253646Y-117407785D01*
X119917867Y-117632144D01*
X119693508Y-117967923D01*
X119614723Y-118364000D01*
X107390000Y-118364000D01*
X107390000Y-87344250D01*
X122813070Y-87344250D01*
X122813070Y-89343230D01*
X122857348Y-89578547D01*
X122996420Y-89794671D01*
X123208620Y-89939661D01*
X123460510Y-89990670D01*
X123700000Y-89990670D01*
X123700000Y-92837000D01*
X123757852Y-93127839D01*
X123922599Y-93374401D01*
X125215095Y-94666897D01*
X125135794Y-94682671D01*
X124959949Y-94800167D01*
X124847382Y-94875382D01*
X123831382Y-95891382D01*
X123638671Y-96179794D01*
X123571000Y-96520000D01*
X123571000Y-96699330D01*
X123460510Y-96699330D01*
X123225193Y-96743608D01*
X123009069Y-96882680D01*
X122864079Y-97094880D01*
X122813070Y-97346770D01*
X122813070Y-99345750D01*
X122857348Y-99581067D01*
X122996420Y-99797191D01*
X123208620Y-99942181D01*
X123460510Y-99993190D01*
X125459490Y-99993190D01*
X125694807Y-99948912D01*
X125910931Y-99809840D01*
X126055921Y-99597640D01*
X126106930Y-99345750D01*
X126106930Y-97346770D01*
X126062652Y-97111453D01*
X125923580Y-96895329D01*
X125711380Y-96750339D01*
X125524701Y-96712535D01*
X125844236Y-96393000D01*
X128155764Y-96393000D01*
X128335094Y-96572330D01*
X127016510Y-96572330D01*
X126781193Y-96616608D01*
X126565069Y-96755680D01*
X126420079Y-96967880D01*
X126369070Y-97219770D01*
X126369070Y-99218750D01*
X126413348Y-99454067D01*
X126552420Y-99670191D01*
X126764620Y-99815181D01*
X127016510Y-99866190D01*
X127564954Y-99866190D01*
X128143000Y-100444236D01*
X128143000Y-112776000D01*
X128210671Y-113116206D01*
X128373703Y-113360200D01*
X128403382Y-113404618D01*
X130175000Y-115176236D01*
X130175000Y-117396774D01*
X129834277Y-117329000D01*
X129793723Y-117329000D01*
X129397646Y-117407785D01*
X129061867Y-117632144D01*
X128837508Y-117967923D01*
X128758723Y-118364000D01*
X128837508Y-118760077D01*
X129061867Y-119095856D01*
X129397646Y-119320215D01*
X129793723Y-119399000D01*
X129834277Y-119399000D01*
X130230354Y-119320215D01*
X130292489Y-119278698D01*
X130412110Y-119360431D01*
X130664000Y-119411440D01*
X131464000Y-119411440D01*
X131699317Y-119367162D01*
X131876730Y-119253000D01*
X136588564Y-119253000D01*
X137344182Y-120008618D01*
X137632594Y-120201329D01*
X137972800Y-120269000D01*
X154736800Y-120269000D01*
X155077006Y-120201329D01*
X155365418Y-120008618D01*
X156692947Y-118681089D01*
X177710777Y-118681089D01*
X177839985Y-118973859D01*
X178540143Y-119242071D01*
X179289644Y-119221928D01*
X179888535Y-118973859D01*
X180017743Y-118681089D01*
X178864260Y-117527605D01*
X177710777Y-118681089D01*
X156692947Y-118681089D01*
X160120266Y-115253770D01*
X161421070Y-115253770D01*
X161421070Y-117252750D01*
X161465348Y-117488067D01*
X161604420Y-117704191D01*
X161816620Y-117849181D01*
X162068510Y-117900190D01*
X164067490Y-117900190D01*
X164302807Y-117855912D01*
X164518931Y-117716840D01*
X164663921Y-117504640D01*
X164714930Y-117252750D01*
X164714930Y-115253770D01*
X167009070Y-115253770D01*
X167009070Y-117252750D01*
X167053348Y-117488067D01*
X167192420Y-117704191D01*
X167404620Y-117849181D01*
X167656510Y-117900190D01*
X169655490Y-117900190D01*
X169890807Y-117855912D01*
X170106931Y-117716840D01*
X170251921Y-117504640D01*
X170302930Y-117252750D01*
X170302930Y-117023883D01*
X176970189Y-117023883D01*
X176990332Y-117773384D01*
X177238401Y-118372275D01*
X177531171Y-118501483D01*
X178684655Y-117348000D01*
X179043865Y-117348000D01*
X180197349Y-118501483D01*
X180490119Y-118372275D01*
X180758331Y-117672117D01*
X180738188Y-116922616D01*
X180490119Y-116323725D01*
X180197349Y-116194517D01*
X179043865Y-117348000D01*
X178684655Y-117348000D01*
X177531171Y-116194517D01*
X177238401Y-116323725D01*
X176970189Y-117023883D01*
X170302930Y-117023883D01*
X170302930Y-116014911D01*
X177710777Y-116014911D01*
X178864260Y-117168395D01*
X180017743Y-116014911D01*
X179888535Y-115722141D01*
X179188377Y-115453929D01*
X178438876Y-115474072D01*
X177839985Y-115722141D01*
X177710777Y-116014911D01*
X170302930Y-116014911D01*
X170302930Y-115253770D01*
X170258652Y-115018453D01*
X170119580Y-114802329D01*
X169907380Y-114657339D01*
X169655490Y-114606330D01*
X167656510Y-114606330D01*
X167421193Y-114650608D01*
X167205069Y-114789680D01*
X167060079Y-115001880D01*
X167009070Y-115253770D01*
X164714930Y-115253770D01*
X164670652Y-115018453D01*
X164531580Y-114802329D01*
X164319380Y-114657339D01*
X164067490Y-114606330D01*
X162068510Y-114606330D01*
X161833193Y-114650608D01*
X161617069Y-114789680D01*
X161472079Y-115001880D01*
X161421070Y-115253770D01*
X160120266Y-115253770D01*
X162013836Y-113360200D01*
X162435540Y-113360200D01*
X162775746Y-113292529D01*
X163064158Y-113099818D01*
X163438915Y-112725061D01*
X174479894Y-112725061D01*
X174766214Y-113418011D01*
X175295921Y-113948642D01*
X175988369Y-114236172D01*
X176738141Y-114236826D01*
X177431091Y-113950506D01*
X177961722Y-113420799D01*
X178249252Y-112728351D01*
X178249259Y-112719981D01*
X186976694Y-112719981D01*
X187263014Y-113412931D01*
X187792721Y-113943562D01*
X188485169Y-114231092D01*
X189234941Y-114231746D01*
X189927891Y-113945426D01*
X190458522Y-113415719D01*
X190746052Y-112723271D01*
X190746706Y-111973499D01*
X190460386Y-111280549D01*
X189930679Y-110749918D01*
X189238231Y-110462388D01*
X188488459Y-110461734D01*
X187795509Y-110748054D01*
X187264878Y-111277761D01*
X186977348Y-111970209D01*
X186976694Y-112719981D01*
X178249259Y-112719981D01*
X178249906Y-111978579D01*
X178078274Y-111563196D01*
X178490269Y-111734272D01*
X179240041Y-111734926D01*
X179932991Y-111448606D01*
X180463622Y-110918899D01*
X180751152Y-110226451D01*
X180751806Y-109476679D01*
X180465486Y-108783729D01*
X179935779Y-108253098D01*
X179243331Y-107965568D01*
X178493559Y-107964914D01*
X177800609Y-108251234D01*
X177269978Y-108780941D01*
X176982448Y-109473389D01*
X176981794Y-110223161D01*
X177153426Y-110638544D01*
X176741431Y-110467468D01*
X175991659Y-110466814D01*
X175298709Y-110753134D01*
X174768078Y-111282841D01*
X174480548Y-111975289D01*
X174479894Y-112725061D01*
X163438915Y-112725061D01*
X168266306Y-107897670D01*
X169655490Y-107897670D01*
X169890807Y-107853392D01*
X170106931Y-107714320D01*
X170251921Y-107502120D01*
X170302930Y-107250230D01*
X170302930Y-105251250D01*
X170258652Y-105015933D01*
X170119580Y-104799809D01*
X169907380Y-104654819D01*
X169655490Y-104603810D01*
X167656510Y-104603810D01*
X167421193Y-104648088D01*
X167205069Y-104787160D01*
X167060079Y-104999360D01*
X167009070Y-105251250D01*
X167009070Y-106640434D01*
X164810504Y-108839000D01*
X160822095Y-108839000D01*
X160813662Y-108794183D01*
X160674590Y-108578059D01*
X160462390Y-108433069D01*
X160210500Y-108382060D01*
X159525303Y-108382060D01*
X159593615Y-108336415D01*
X160406416Y-107523615D01*
X160537653Y-107327204D01*
X160571596Y-107276405D01*
X160629600Y-106984800D01*
X160629600Y-104889970D01*
X161421070Y-105681440D01*
X161421070Y-107250230D01*
X161465348Y-107485547D01*
X161604420Y-107701671D01*
X161816620Y-107846661D01*
X162068510Y-107897670D01*
X164067490Y-107897670D01*
X164302807Y-107853392D01*
X164518931Y-107714320D01*
X164663921Y-107502120D01*
X164714930Y-107250230D01*
X164714930Y-105251250D01*
X164670652Y-105015933D01*
X164531580Y-104799809D01*
X164319380Y-104654819D01*
X164067490Y-104603810D01*
X162498700Y-104603810D01*
X161899600Y-104004710D01*
X161899600Y-98755200D01*
X161841596Y-98463595D01*
X161676415Y-98216385D01*
X159644415Y-96184385D01*
X159566940Y-96132618D01*
X159397205Y-96019204D01*
X159105600Y-95961200D01*
X158659230Y-95961200D01*
X158211925Y-95513895D01*
X158211962Y-95471233D01*
X158069917Y-95127457D01*
X157807127Y-94864208D01*
X157463599Y-94721562D01*
X157091633Y-94721238D01*
X156747857Y-94863283D01*
X156484608Y-95126073D01*
X156341962Y-95469601D01*
X156341638Y-95841567D01*
X156483683Y-96185343D01*
X156746473Y-96448592D01*
X157090001Y-96591238D01*
X157134046Y-96591276D01*
X157804785Y-97262015D01*
X158051995Y-97427196D01*
X158240025Y-97464598D01*
X158056833Y-97464438D01*
X157713057Y-97606483D01*
X157449808Y-97869273D01*
X157307162Y-98212801D01*
X157306838Y-98584767D01*
X157448883Y-98928543D01*
X157711673Y-99191792D01*
X158055201Y-99334438D01*
X158099246Y-99334476D01*
X159105600Y-100340831D01*
X159105600Y-103681397D01*
X158924727Y-103500208D01*
X158581199Y-103357562D01*
X158209233Y-103357238D01*
X157865457Y-103499283D01*
X157602208Y-103762073D01*
X157508561Y-103987600D01*
X145389600Y-103987600D01*
X145097995Y-104045604D01*
X144850785Y-104210785D01*
X143733185Y-105328385D01*
X143568004Y-105575595D01*
X143510000Y-105867200D01*
X143510000Y-108604461D01*
X143142173Y-108971647D01*
X143001906Y-109309446D01*
X142863146Y-108973620D01*
X142488353Y-108598173D01*
X141998413Y-108394732D01*
X141467914Y-108394269D01*
X140977620Y-108596854D01*
X140602173Y-108971647D01*
X140461906Y-109309446D01*
X140323146Y-108973620D01*
X139948353Y-108598173D01*
X139458413Y-108394732D01*
X138927914Y-108394269D01*
X138437620Y-108596854D01*
X138062173Y-108971647D01*
X137858732Y-109461587D01*
X137858269Y-109992086D01*
X138060854Y-110482380D01*
X138435647Y-110857827D01*
X138925587Y-111061268D01*
X139456086Y-111061731D01*
X139946380Y-110859146D01*
X140321827Y-110484353D01*
X140462094Y-110146554D01*
X140600854Y-110482380D01*
X140843000Y-110724949D01*
X140843000Y-114300000D01*
X140910671Y-114640206D01*
X141022788Y-114808000D01*
X141103382Y-114928618D01*
X141478000Y-115303236D01*
X141478000Y-116030879D01*
X141370569Y-116188110D01*
X141319560Y-116440000D01*
X141319560Y-117240000D01*
X141363838Y-117475317D01*
X141502910Y-117691441D01*
X141715110Y-117836431D01*
X141967000Y-117887440D01*
X142767000Y-117887440D01*
X143002317Y-117843162D01*
X143155865Y-117744357D01*
X143330875Y-117834679D01*
X143490000Y-117708443D01*
X143490000Y-116967000D01*
X143744000Y-116967000D01*
X143744000Y-117708443D01*
X143903125Y-117834679D01*
X144242000Y-117659786D01*
X144580875Y-117834679D01*
X144740000Y-117708443D01*
X144740000Y-116967000D01*
X143744000Y-116967000D01*
X143490000Y-116967000D01*
X143470000Y-116967000D01*
X143470000Y-116713000D01*
X143490000Y-116713000D01*
X143490000Y-115971557D01*
X143744000Y-115971557D01*
X143744000Y-116713000D01*
X144740000Y-116713000D01*
X144740000Y-115971557D01*
X144580875Y-115845321D01*
X144242000Y-116020214D01*
X143903125Y-115845321D01*
X143744000Y-115971557D01*
X143490000Y-115971557D01*
X143330875Y-115845321D01*
X143256000Y-115883964D01*
X143256000Y-114935000D01*
X143227094Y-114789680D01*
X143188330Y-114594795D01*
X142995618Y-114306382D01*
X142621000Y-113931764D01*
X142621000Y-110724760D01*
X142861827Y-110484353D01*
X143002094Y-110146554D01*
X143140854Y-110482380D01*
X143383000Y-110724949D01*
X143383000Y-113792000D01*
X143450671Y-114132206D01*
X143643382Y-114420618D01*
X145105704Y-115882940D01*
X144994000Y-115971557D01*
X144994000Y-116713000D01*
X145014000Y-116713000D01*
X145014000Y-116967000D01*
X144994000Y-116967000D01*
X144994000Y-117708443D01*
X145153125Y-117834679D01*
X145494519Y-117658486D01*
X145700646Y-117796215D01*
X146096723Y-117875000D01*
X146137277Y-117875000D01*
X146533354Y-117796215D01*
X146742000Y-117656803D01*
X146950646Y-117796215D01*
X147346723Y-117875000D01*
X147387277Y-117875000D01*
X147783354Y-117796215D01*
X147992000Y-117656803D01*
X148200646Y-117796215D01*
X148596723Y-117875000D01*
X148637277Y-117875000D01*
X149033354Y-117796215D01*
X149242000Y-117656803D01*
X149450646Y-117796215D01*
X149846723Y-117875000D01*
X149887277Y-117875000D01*
X150283354Y-117796215D01*
X150492000Y-117656803D01*
X150700646Y-117796215D01*
X151096723Y-117875000D01*
X151137277Y-117875000D01*
X151533354Y-117796215D01*
X151869133Y-117571856D01*
X152093492Y-117236077D01*
X152172277Y-116840000D01*
X152093492Y-116443923D01*
X151869133Y-116108144D01*
X151533354Y-115883785D01*
X151137277Y-115805000D01*
X151096723Y-115805000D01*
X150756000Y-115872774D01*
X150756000Y-115169236D01*
X152520618Y-113404618D01*
X152713329Y-113116206D01*
X152781000Y-112776000D01*
X152781000Y-110724760D01*
X153021827Y-110484353D01*
X153162094Y-110146554D01*
X153300854Y-110482380D01*
X153675647Y-110857827D01*
X154165587Y-111061268D01*
X154696086Y-111061731D01*
X155186380Y-110859146D01*
X155561827Y-110484353D01*
X155702094Y-110146554D01*
X155840854Y-110482380D01*
X156215647Y-110857827D01*
X156705587Y-111061268D01*
X157236086Y-111061731D01*
X157726380Y-110859146D01*
X158101827Y-110484353D01*
X158166060Y-110329663D01*
X158166060Y-110426500D01*
X158210338Y-110661817D01*
X158349410Y-110877941D01*
X158561610Y-111022931D01*
X158813500Y-111073940D01*
X160210500Y-111073940D01*
X160445817Y-111029662D01*
X160661941Y-110890590D01*
X160806931Y-110678390D01*
X160819363Y-110617000D01*
X163032504Y-110617000D01*
X162067304Y-111582200D01*
X161645600Y-111582200D01*
X161305395Y-111649870D01*
X161016982Y-111842582D01*
X154368564Y-118491000D01*
X138341036Y-118491000D01*
X137585418Y-117735382D01*
X137474590Y-117661329D01*
X137297006Y-117542671D01*
X136956800Y-117475000D01*
X131953000Y-117475000D01*
X131953000Y-114808000D01*
X131885329Y-114467794D01*
X131692618Y-114179382D01*
X129921000Y-112407764D01*
X129921000Y-107744338D01*
X133615190Y-107744338D01*
X133825686Y-108253777D01*
X134215113Y-108643884D01*
X134724184Y-108855269D01*
X135275398Y-108855750D01*
X135784837Y-108645254D01*
X136174944Y-108255827D01*
X136386329Y-107746756D01*
X136386810Y-107195542D01*
X136176314Y-106686103D01*
X135786887Y-106295996D01*
X135277816Y-106084611D01*
X134726602Y-106084130D01*
X134217163Y-106294626D01*
X133827056Y-106684053D01*
X133615671Y-107193124D01*
X133615190Y-107744338D01*
X129921000Y-107744338D01*
X129921000Y-100076000D01*
X129853329Y-99735794D01*
X129660618Y-99447382D01*
X129624038Y-99410802D01*
X129662930Y-99218750D01*
X129662930Y-97900166D01*
X129667000Y-97904236D01*
X129667000Y-98044000D01*
X129734671Y-98384206D01*
X129868682Y-98584767D01*
X129927382Y-98672618D01*
X132975382Y-101720618D01*
X133263794Y-101913329D01*
X133604000Y-101981000D01*
X133752800Y-101981000D01*
X133615671Y-102311244D01*
X133615190Y-102862458D01*
X133825686Y-103371897D01*
X134215113Y-103762004D01*
X134724184Y-103973389D01*
X135275398Y-103973870D01*
X135784837Y-103763374D01*
X136174944Y-103373947D01*
X136386329Y-102864876D01*
X136386810Y-102313662D01*
X136268409Y-102027109D01*
X136329167Y-102027162D01*
X136672943Y-101885117D01*
X136936192Y-101622327D01*
X137078838Y-101278799D01*
X137079162Y-100906833D01*
X136937117Y-100563057D01*
X136674327Y-100299808D01*
X136330799Y-100157162D01*
X135958833Y-100156838D01*
X135847112Y-100203000D01*
X135046890Y-100203000D01*
X135047162Y-99890833D01*
X134905117Y-99547057D01*
X134642327Y-99283808D01*
X134298799Y-99141162D01*
X134254754Y-99141124D01*
X132334000Y-97220370D01*
X132334000Y-96441338D01*
X133615190Y-96441338D01*
X133825686Y-96950777D01*
X134215113Y-97340884D01*
X134724184Y-97552269D01*
X135275398Y-97552750D01*
X135784837Y-97342254D01*
X136174944Y-96952827D01*
X136386329Y-96443756D01*
X136386810Y-95892542D01*
X136176314Y-95383103D01*
X135786887Y-94992996D01*
X135277816Y-94781611D01*
X134726602Y-94781130D01*
X134217163Y-94991626D01*
X133827056Y-95381053D01*
X133615671Y-95890124D01*
X133615190Y-96441338D01*
X132334000Y-96441338D01*
X132334000Y-87884000D01*
X132392004Y-88175605D01*
X132553567Y-88417400D01*
X132557185Y-88422815D01*
X133573185Y-89438815D01*
X133820395Y-89603996D01*
X134112000Y-89662000D01*
X134304370Y-89662000D01*
X134595705Y-89953335D01*
X134217163Y-90109746D01*
X133827056Y-90499173D01*
X133615671Y-91008244D01*
X133615190Y-91559458D01*
X133825686Y-92068897D01*
X134215113Y-92459004D01*
X134241000Y-92469753D01*
X134241000Y-92964000D01*
X134298852Y-93254839D01*
X134463599Y-93501401D01*
X137113878Y-96151680D01*
X137113838Y-96197167D01*
X137255883Y-96540943D01*
X137518673Y-96804192D01*
X137862201Y-96946838D01*
X138234167Y-96947162D01*
X138577943Y-96805117D01*
X138841192Y-96542327D01*
X138983838Y-96198799D01*
X138984162Y-95826833D01*
X138842117Y-95483057D01*
X138579327Y-95219808D01*
X138235799Y-95077162D01*
X138188923Y-95077121D01*
X135761000Y-92649198D01*
X135761000Y-92470223D01*
X135784837Y-92460374D01*
X136174944Y-92070947D01*
X136332905Y-91690536D01*
X136398000Y-91755631D01*
X136398000Y-91948000D01*
X136456004Y-92239605D01*
X136496091Y-92299599D01*
X136621185Y-92486815D01*
X137240875Y-93106505D01*
X137240838Y-93149167D01*
X137382883Y-93492943D01*
X137645673Y-93756192D01*
X137989201Y-93898838D01*
X138361167Y-93899162D01*
X138704943Y-93757117D01*
X138968192Y-93494327D01*
X139110838Y-93150799D01*
X139111162Y-92778833D01*
X138969117Y-92435057D01*
X138706327Y-92171808D01*
X138362799Y-92029162D01*
X138318754Y-92029124D01*
X137922000Y-91632370D01*
X137922000Y-91440000D01*
X137898352Y-91321114D01*
X137989201Y-91358838D01*
X138361167Y-91359162D01*
X138704943Y-91217117D01*
X138968192Y-90954327D01*
X139110838Y-90610799D01*
X139111162Y-90238833D01*
X138972373Y-89902938D01*
X139111343Y-89845517D01*
X139374592Y-89582727D01*
X139517238Y-89239199D01*
X139517562Y-88867233D01*
X139375517Y-88523457D01*
X139112727Y-88260208D01*
X138769199Y-88117562D01*
X138397233Y-88117238D01*
X138233656Y-88184826D01*
X133244609Y-83195779D01*
X133599354Y-83125215D01*
X133808000Y-82985803D01*
X134016646Y-83125215D01*
X134412723Y-83204000D01*
X134453277Y-83204000D01*
X134849354Y-83125215D01*
X135058000Y-82985803D01*
X135266646Y-83125215D01*
X135662723Y-83204000D01*
X135703277Y-83204000D01*
X136099354Y-83125215D01*
X136308000Y-82985803D01*
X136516646Y-83125215D01*
X136912723Y-83204000D01*
X136953277Y-83204000D01*
X137349354Y-83125215D01*
X137685133Y-82900856D01*
X137909492Y-82565077D01*
X137988277Y-82169000D01*
X137909492Y-81772923D01*
X137685133Y-81437144D01*
X137349354Y-81212785D01*
X136953277Y-81134000D01*
X136912723Y-81134000D01*
X136516646Y-81212785D01*
X136308000Y-81352197D01*
X136099354Y-81212785D01*
X135703277Y-81134000D01*
X135662723Y-81134000D01*
X135266646Y-81212785D01*
X135058000Y-81352197D01*
X134849354Y-81212785D01*
X134453277Y-81134000D01*
X134412723Y-81134000D01*
X134016646Y-81212785D01*
X133808000Y-81352197D01*
X133599354Y-81212785D01*
X133203277Y-81134000D01*
X133162723Y-81134000D01*
X132766646Y-81212785D01*
X132558000Y-81352197D01*
X132349354Y-81212785D01*
X131953277Y-81134000D01*
X131912723Y-81134000D01*
X131572000Y-81201774D01*
X131572000Y-80606836D01*
X132905436Y-79273400D01*
X152895364Y-79273400D01*
X159086582Y-85464618D01*
X159374994Y-85657329D01*
X159715200Y-85725000D01*
X162880933Y-85725000D01*
X162994971Y-85895670D01*
X163309752Y-86106000D01*
X162994971Y-86316330D01*
X162670115Y-86802511D01*
X162556041Y-87376000D01*
X162670115Y-87949489D01*
X162994971Y-88435670D01*
X163309752Y-88646000D01*
X162994971Y-88856330D01*
X162670115Y-89342511D01*
X162556041Y-89916000D01*
X162670115Y-90489489D01*
X162994971Y-90975670D01*
X163309752Y-91186000D01*
X162994971Y-91396330D01*
X162670115Y-91882511D01*
X162560000Y-92436097D01*
X162560000Y-90627200D01*
X162501996Y-90335595D01*
X162336815Y-90088385D01*
X161829303Y-89580873D01*
X162160967Y-89581162D01*
X162504743Y-89439117D01*
X162767992Y-89176327D01*
X162910638Y-88832799D01*
X162910962Y-88460833D01*
X162768917Y-88117057D01*
X162506127Y-87853808D01*
X162162599Y-87711162D01*
X161790633Y-87710838D01*
X161446857Y-87852883D01*
X161237575Y-88061800D01*
X160691231Y-88061800D01*
X160330215Y-87700785D01*
X160269463Y-87660192D01*
X160083005Y-87535604D01*
X159791400Y-87477600D01*
X158904111Y-87477600D01*
X158899327Y-87472808D01*
X158555799Y-87330162D01*
X158183833Y-87329838D01*
X157840057Y-87471883D01*
X157576808Y-87734673D01*
X157434162Y-88078201D01*
X157433838Y-88450167D01*
X157575883Y-88793943D01*
X157630976Y-88849132D01*
X157500608Y-88979273D01*
X157357962Y-89322801D01*
X157357829Y-89474979D01*
X157103457Y-89580083D01*
X156840208Y-89842873D01*
X156697562Y-90186401D01*
X156697238Y-90558367D01*
X156839283Y-90902143D01*
X157102073Y-91165392D01*
X157445601Y-91308038D01*
X157489646Y-91308076D01*
X158007985Y-91826415D01*
X158255195Y-91991596D01*
X158546800Y-92049600D01*
X160119934Y-92049600D01*
X160150073Y-92079792D01*
X160493601Y-92222438D01*
X160865567Y-92222762D01*
X161036000Y-92152341D01*
X161036000Y-95148400D01*
X161094004Y-95440005D01*
X161180523Y-95569489D01*
X161259185Y-95687215D01*
X162376785Y-96804815D01*
X162623995Y-96969996D01*
X162666927Y-96978536D01*
X162556041Y-97536000D01*
X162670115Y-98109489D01*
X162994971Y-98595670D01*
X163309752Y-98806000D01*
X162994971Y-99016330D01*
X162670115Y-99502511D01*
X162556041Y-100076000D01*
X162670115Y-100649489D01*
X162994971Y-101135670D01*
X163309752Y-101346000D01*
X162994971Y-101556330D01*
X162670115Y-102042511D01*
X162556041Y-102616000D01*
X162670115Y-103189489D01*
X162994971Y-103675670D01*
X163481152Y-104000526D01*
X164054641Y-104114600D01*
X164113359Y-104114600D01*
X164686848Y-104000526D01*
X165173029Y-103675670D01*
X165354000Y-103404828D01*
X165534971Y-103675670D01*
X166021152Y-104000526D01*
X166594641Y-104114600D01*
X166653359Y-104114600D01*
X167226848Y-104000526D01*
X167516388Y-103807061D01*
X172338758Y-103807061D01*
X172550990Y-104320703D01*
X172943630Y-104714029D01*
X173456900Y-104927157D01*
X174012661Y-104927642D01*
X174526303Y-104715410D01*
X174848274Y-104394000D01*
X183322587Y-104394000D01*
X183532513Y-105449369D01*
X184130332Y-106344068D01*
X185025031Y-106941887D01*
X186080400Y-107151813D01*
X187135769Y-106941887D01*
X188030468Y-106344068D01*
X188628287Y-105449369D01*
X188838213Y-104394000D01*
X188628287Y-103338631D01*
X188030468Y-102443932D01*
X187135769Y-101846113D01*
X186080400Y-101636187D01*
X185025031Y-101846113D01*
X184130332Y-102443932D01*
X183532513Y-103338631D01*
X183322587Y-104394000D01*
X174848274Y-104394000D01*
X174919629Y-104322770D01*
X175132757Y-103809500D01*
X175133242Y-103253739D01*
X174921010Y-102740097D01*
X174528370Y-102346771D01*
X174015100Y-102133643D01*
X173459339Y-102133158D01*
X172945697Y-102345390D01*
X172552371Y-102738030D01*
X172339243Y-103251300D01*
X172338758Y-103807061D01*
X167516388Y-103807061D01*
X167713029Y-103675670D01*
X167827067Y-103505000D01*
X170180000Y-103505000D01*
X170520206Y-103437329D01*
X170808618Y-103244618D01*
X175120236Y-98933000D01*
X175228560Y-98933000D01*
X175228560Y-99460000D01*
X175272838Y-99695317D01*
X175411910Y-99911441D01*
X175624110Y-100056431D01*
X175876000Y-100107440D01*
X176676000Y-100107440D01*
X176911317Y-100063162D01*
X177088730Y-99949000D01*
X182757070Y-99949000D01*
X182757070Y-99980750D01*
X182801348Y-100216067D01*
X182940420Y-100432191D01*
X183152620Y-100577181D01*
X183404510Y-100628190D01*
X185403490Y-100628190D01*
X185638807Y-100583912D01*
X185854931Y-100444840D01*
X185999921Y-100232640D01*
X186050930Y-99980750D01*
X186050930Y-97981770D01*
X186006652Y-97746453D01*
X185867580Y-97530329D01*
X185655380Y-97385339D01*
X185403490Y-97334330D01*
X183404510Y-97334330D01*
X183169193Y-97378608D01*
X182953069Y-97517680D01*
X182808079Y-97729880D01*
X182757070Y-97981770D01*
X182757070Y-98171000D01*
X177243226Y-98171000D01*
X177311000Y-97830277D01*
X177311000Y-97789723D01*
X177232215Y-97393646D01*
X177094486Y-97187519D01*
X177270679Y-96846125D01*
X177144443Y-96687000D01*
X176403000Y-96687000D01*
X176403000Y-96707000D01*
X176149000Y-96707000D01*
X176149000Y-96687000D01*
X175407557Y-96687000D01*
X175281321Y-96846125D01*
X175440731Y-97155000D01*
X174752000Y-97155000D01*
X174411794Y-97222671D01*
X174123382Y-97415382D01*
X169811764Y-101727000D01*
X167827067Y-101727000D01*
X167713029Y-101556330D01*
X167398248Y-101346000D01*
X167713029Y-101135670D01*
X168037885Y-100649489D01*
X168151959Y-100076000D01*
X168037885Y-99502511D01*
X167713029Y-99016330D01*
X167398248Y-98806000D01*
X167713029Y-98595670D01*
X168037885Y-98109489D01*
X168151959Y-97536000D01*
X168037885Y-96962511D01*
X167713029Y-96476330D01*
X167410034Y-96273875D01*
X175281321Y-96273875D01*
X175407557Y-96433000D01*
X176149000Y-96433000D01*
X176149000Y-95693002D01*
X176403000Y-95693002D01*
X176403000Y-96433000D01*
X177144443Y-96433000D01*
X177270679Y-96273875D01*
X177085468Y-95915008D01*
X176777023Y-95654335D01*
X176562123Y-95565334D01*
X176403000Y-95693002D01*
X176149000Y-95693002D01*
X175989877Y-95565334D01*
X175774977Y-95654335D01*
X175466532Y-95915008D01*
X175281321Y-96273875D01*
X167410034Y-96273875D01*
X167398248Y-96266000D01*
X167713029Y-96055670D01*
X168037885Y-95569489D01*
X168151959Y-94996000D01*
X168037885Y-94422511D01*
X167713029Y-93936330D01*
X167398248Y-93726000D01*
X167713029Y-93515670D01*
X168037885Y-93029489D01*
X168151959Y-92456000D01*
X168037885Y-91882511D01*
X167713029Y-91396330D01*
X167398248Y-91186000D01*
X167713029Y-90975670D01*
X168037885Y-90489489D01*
X168151959Y-89916000D01*
X168037885Y-89342511D01*
X167713029Y-88856330D01*
X167398248Y-88646000D01*
X167713029Y-88435670D01*
X167827067Y-88265000D01*
X170370564Y-88265000D01*
X172416182Y-90310618D01*
X172704594Y-90503329D01*
X173044800Y-90571000D01*
X175228560Y-90571000D01*
X175228560Y-91332000D01*
X175272838Y-91567317D01*
X175411910Y-91783441D01*
X175624110Y-91928431D01*
X175876000Y-91979440D01*
X176676000Y-91979440D01*
X176911317Y-91935162D01*
X177088730Y-91821000D01*
X180187600Y-91821000D01*
X180527806Y-91753329D01*
X180816218Y-91560618D01*
X182509096Y-89867740D01*
X182757070Y-89867740D01*
X182757070Y-89978230D01*
X182801348Y-90213547D01*
X182940420Y-90429671D01*
X183152620Y-90574661D01*
X183404510Y-90625670D01*
X185403490Y-90625670D01*
X185638807Y-90581392D01*
X185854931Y-90442320D01*
X185999921Y-90230120D01*
X186050930Y-89978230D01*
X186050930Y-87979250D01*
X186006652Y-87743933D01*
X185867580Y-87527809D01*
X185655380Y-87382819D01*
X185403490Y-87331810D01*
X183404510Y-87331810D01*
X183169193Y-87376088D01*
X182953069Y-87515160D01*
X182808079Y-87727360D01*
X182757070Y-87979250D01*
X182757070Y-88089740D01*
X182140860Y-88089740D01*
X181800654Y-88157411D01*
X181601622Y-88290400D01*
X181512242Y-88350122D01*
X179819364Y-90043000D01*
X177243226Y-90043000D01*
X177311000Y-89702277D01*
X177311000Y-89661723D01*
X177232215Y-89265646D01*
X177094486Y-89059519D01*
X177270679Y-88718125D01*
X177144443Y-88559000D01*
X176403000Y-88559000D01*
X176403000Y-88579000D01*
X176149000Y-88579000D01*
X176149000Y-88559000D01*
X175407557Y-88559000D01*
X175281321Y-88718125D01*
X175319964Y-88793000D01*
X173413036Y-88793000D01*
X172765911Y-88145875D01*
X175281321Y-88145875D01*
X175407557Y-88305000D01*
X176149000Y-88305000D01*
X176149000Y-87565002D01*
X176403000Y-87565002D01*
X176403000Y-88305000D01*
X177144443Y-88305000D01*
X177270679Y-88145875D01*
X177085468Y-87787008D01*
X176777023Y-87526335D01*
X176562123Y-87437334D01*
X176403000Y-87565002D01*
X176149000Y-87565002D01*
X175989877Y-87437334D01*
X175774977Y-87526335D01*
X175466532Y-87787008D01*
X175281321Y-88145875D01*
X172765911Y-88145875D01*
X171367418Y-86747382D01*
X171357867Y-86741000D01*
X171079006Y-86554671D01*
X170738800Y-86487000D01*
X167827067Y-86487000D01*
X167713029Y-86316330D01*
X167691977Y-86302263D01*
X167847298Y-86237927D01*
X168025927Y-86059299D01*
X168122600Y-85825910D01*
X168122600Y-85121750D01*
X167963850Y-84963000D01*
X166751000Y-84963000D01*
X166751000Y-84983000D01*
X166497000Y-84983000D01*
X166497000Y-84963000D01*
X166477000Y-84963000D01*
X166477000Y-84709000D01*
X166497000Y-84709000D01*
X166497000Y-84689000D01*
X166751000Y-84689000D01*
X166751000Y-84709000D01*
X167963850Y-84709000D01*
X168122600Y-84550250D01*
X168122600Y-83896200D01*
X168592564Y-83896200D01*
X170966838Y-86270474D01*
X171012483Y-86380943D01*
X171275273Y-86644192D01*
X171618801Y-86786838D01*
X171990767Y-86787162D01*
X172334543Y-86645117D01*
X172597792Y-86382327D01*
X172740438Y-86038799D01*
X172740762Y-85666833D01*
X172598717Y-85323057D01*
X172335927Y-85059808D01*
X172224287Y-85013451D01*
X169589418Y-82378582D01*
X169522104Y-82333604D01*
X169301006Y-82185871D01*
X168960800Y-82118200D01*
X164795200Y-82118200D01*
X164454994Y-82185871D01*
X164233896Y-82333604D01*
X164166582Y-82378582D01*
X163455382Y-83089782D01*
X163262671Y-83378194D01*
X163212371Y-83631068D01*
X162994971Y-83776330D01*
X162880933Y-83947000D01*
X160083436Y-83947000D01*
X153892218Y-77755782D01*
X153785733Y-77684631D01*
X153603806Y-77563071D01*
X153263600Y-77495400D01*
X132537200Y-77495400D01*
X132196994Y-77563071D01*
X132015067Y-77684631D01*
X131908582Y-77755782D01*
X130054382Y-79609982D01*
X129861671Y-79898394D01*
X129794000Y-80238600D01*
X129794000Y-81359879D01*
X129686569Y-81517110D01*
X129635560Y-81769000D01*
X129635560Y-82569000D01*
X129679838Y-82804317D01*
X129818910Y-83020441D01*
X130031110Y-83165431D01*
X130283000Y-83216440D01*
X131083000Y-83216440D01*
X131251706Y-83184696D01*
X131274404Y-83298805D01*
X131376415Y-83451474D01*
X131439585Y-83546015D01*
X134868248Y-86974678D01*
X134806799Y-86949162D01*
X134434833Y-86948838D01*
X134091057Y-87090883D01*
X133858000Y-87323534D01*
X133858000Y-86360000D01*
X133799996Y-86068395D01*
X133634815Y-85821185D01*
X131602815Y-83789185D01*
X131496878Y-83718400D01*
X131355605Y-83624004D01*
X131064000Y-83566000D01*
X128839631Y-83566000D01*
X126776815Y-81503185D01*
X126673741Y-81434313D01*
X126529605Y-81338004D01*
X126238000Y-81280000D01*
X126036019Y-81280000D01*
X125745354Y-81085785D01*
X125349277Y-81007000D01*
X125308723Y-81007000D01*
X124912646Y-81085785D01*
X124857594Y-81122569D01*
X124838698Y-81103673D01*
X124605309Y-81007000D01*
X124364750Y-81007000D01*
X124206000Y-81165750D01*
X124206000Y-81915000D01*
X124226000Y-81915000D01*
X124226000Y-82169000D01*
X124206000Y-82169000D01*
X124206000Y-82918250D01*
X124364750Y-83077000D01*
X124605309Y-83077000D01*
X124838698Y-82980327D01*
X124857594Y-82961431D01*
X124912646Y-82998215D01*
X125308723Y-83077000D01*
X125349277Y-83077000D01*
X125745354Y-82998215D01*
X125967891Y-82849521D01*
X127985184Y-84866815D01*
X128232395Y-85031996D01*
X128524000Y-85090000D01*
X130748370Y-85090000D01*
X131591386Y-85933016D01*
X131386833Y-85932838D01*
X131043057Y-86074883D01*
X130779808Y-86337673D01*
X130637162Y-86681201D01*
X130636838Y-87053167D01*
X130778883Y-87396943D01*
X130810000Y-87428114D01*
X130810000Y-93927664D01*
X130705327Y-93822808D01*
X130361799Y-93680162D01*
X129989833Y-93679838D01*
X129646057Y-93821883D01*
X129612882Y-93855000D01*
X126552802Y-93855000D01*
X125220000Y-92522198D01*
X125220000Y-89990670D01*
X125459490Y-89990670D01*
X125694807Y-89946392D01*
X125910931Y-89807320D01*
X126055921Y-89595120D01*
X126106930Y-89343230D01*
X126106930Y-87344250D01*
X126083034Y-87217250D01*
X126369070Y-87217250D01*
X126369070Y-89216230D01*
X126413348Y-89451547D01*
X126552420Y-89667671D01*
X126764620Y-89812661D01*
X127016510Y-89863670D01*
X129015490Y-89863670D01*
X129250807Y-89819392D01*
X129466931Y-89680320D01*
X129611921Y-89468120D01*
X129662930Y-89216230D01*
X129662930Y-87217250D01*
X129618652Y-86981933D01*
X129479580Y-86765809D01*
X129267380Y-86620819D01*
X129015490Y-86569810D01*
X127016510Y-86569810D01*
X126781193Y-86614088D01*
X126565069Y-86753160D01*
X126420079Y-86965360D01*
X126369070Y-87217250D01*
X126083034Y-87217250D01*
X126062652Y-87108933D01*
X125923580Y-86892809D01*
X125711380Y-86747819D01*
X125459490Y-86696810D01*
X123460510Y-86696810D01*
X123225193Y-86741088D01*
X123009069Y-86880160D01*
X122864079Y-87092360D01*
X122813070Y-87344250D01*
X107390000Y-87344250D01*
X107390000Y-82327750D01*
X123044000Y-82327750D01*
X123044000Y-82568310D01*
X123140673Y-82801699D01*
X123319302Y-82980327D01*
X123552691Y-83077000D01*
X123793250Y-83077000D01*
X123952000Y-82918250D01*
X123952000Y-82169000D01*
X123202750Y-82169000D01*
X123044000Y-82327750D01*
X107390000Y-82327750D01*
X107390000Y-81515690D01*
X123044000Y-81515690D01*
X123044000Y-81756250D01*
X123202750Y-81915000D01*
X123952000Y-81915000D01*
X123952000Y-81165750D01*
X123793250Y-81007000D01*
X123552691Y-81007000D01*
X123319302Y-81103673D01*
X123140673Y-81282301D01*
X123044000Y-81515690D01*
X107390000Y-81515690D01*
X107390000Y-76402000D01*
X108866513Y-76402000D01*
X108285932Y-76789932D01*
M02*
